G04 EAGLE Gerber RS-274X export*
G75*
%MOMM*%
%FSLAX34Y34*%
%LPD*%
%INBottom Copper*%
%IPPOS*%
%AMOC8*
5,1,8,0,0,1.08239X$1,22.5*%
G01*
%ADD10R,1.267000X1.267000*%
%ADD11C,1.267000*%
%ADD12C,1.530000*%
%ADD13C,2.550000*%
%ADD14R,1.248000X1.248000*%
%ADD15C,1.248000*%
%ADD16C,1.524000*%
%ADD17C,1.800000*%
%ADD18C,4.050000*%
%ADD19C,0.756400*%
%ADD20C,0.304800*%

G36*
X400036Y-386185D02*
X400036Y-386185D01*
X400100Y-386186D01*
X404624Y-385889D01*
X404651Y-385885D01*
X404678Y-385885D01*
X404919Y-385841D01*
X413660Y-383499D01*
X413732Y-383470D01*
X413807Y-383451D01*
X413940Y-383388D01*
X413984Y-383370D01*
X414001Y-383359D01*
X414028Y-383346D01*
X421865Y-378822D01*
X421927Y-378776D01*
X421994Y-378738D01*
X422107Y-378642D01*
X422145Y-378614D01*
X422158Y-378599D01*
X422180Y-378579D01*
X428579Y-372180D01*
X428627Y-372120D01*
X428683Y-372066D01*
X428767Y-371945D01*
X428796Y-371907D01*
X428805Y-371890D01*
X428822Y-371865D01*
X433346Y-364028D01*
X433372Y-363968D01*
X433373Y-363967D01*
X433376Y-363958D01*
X433415Y-363893D01*
X433416Y-363892D01*
X433417Y-363891D01*
X433466Y-363751D01*
X433485Y-363708D01*
X433488Y-363689D01*
X433499Y-363660D01*
X435841Y-354919D01*
X435845Y-354892D01*
X435854Y-354866D01*
X435889Y-354624D01*
X436186Y-350100D01*
X436184Y-350063D01*
X436189Y-350000D01*
X436189Y610000D01*
X436185Y610036D01*
X436185Y610042D01*
X436187Y610068D01*
X436186Y610079D01*
X436186Y610100D01*
X435889Y614624D01*
X435885Y614651D01*
X435885Y614678D01*
X435841Y614919D01*
X433499Y623660D01*
X433470Y623732D01*
X433451Y623807D01*
X433388Y623940D01*
X433370Y623984D01*
X433359Y624001D01*
X433346Y624028D01*
X428822Y631865D01*
X428776Y631927D01*
X428738Y631994D01*
X428642Y632107D01*
X428614Y632145D01*
X428599Y632158D01*
X428579Y632180D01*
X422180Y638579D01*
X422120Y638627D01*
X422066Y638683D01*
X421945Y638767D01*
X421907Y638796D01*
X421890Y638805D01*
X421865Y638822D01*
X414028Y643346D01*
X413957Y643377D01*
X413891Y643417D01*
X413751Y643466D01*
X413708Y643485D01*
X413689Y643488D01*
X413660Y643499D01*
X404919Y645841D01*
X404892Y645845D01*
X404866Y645854D01*
X404624Y645889D01*
X400100Y646186D01*
X400063Y646184D01*
X400000Y646189D01*
X-380000Y646189D01*
X-380036Y646185D01*
X-380100Y646186D01*
X-384624Y645889D01*
X-384651Y645885D01*
X-384678Y645885D01*
X-384919Y645841D01*
X-393660Y643499D01*
X-393732Y643470D01*
X-393807Y643451D01*
X-393940Y643388D01*
X-393984Y643370D01*
X-394001Y643359D01*
X-394028Y643346D01*
X-401865Y638822D01*
X-401927Y638776D01*
X-401994Y638738D01*
X-402107Y638642D01*
X-402145Y638614D01*
X-402158Y638599D01*
X-402180Y638579D01*
X-408579Y632180D01*
X-408627Y632120D01*
X-408683Y632066D01*
X-408767Y631945D01*
X-408796Y631907D01*
X-408805Y631890D01*
X-408822Y631865D01*
X-413346Y624028D01*
X-413377Y623957D01*
X-413417Y623891D01*
X-413466Y623751D01*
X-413485Y623708D01*
X-413488Y623689D01*
X-413499Y623660D01*
X-415841Y614919D01*
X-415845Y614892D01*
X-415854Y614866D01*
X-415889Y614624D01*
X-416186Y610100D01*
X-416184Y610063D01*
X-416189Y610000D01*
X-416189Y-350000D01*
X-416185Y-350036D01*
X-416186Y-350100D01*
X-415889Y-354624D01*
X-415885Y-354651D01*
X-415885Y-354678D01*
X-415841Y-354919D01*
X-413499Y-363660D01*
X-413470Y-363732D01*
X-413451Y-363807D01*
X-413388Y-363940D01*
X-413370Y-363984D01*
X-413359Y-364001D01*
X-413346Y-364028D01*
X-408822Y-371865D01*
X-408776Y-371927D01*
X-408738Y-371994D01*
X-408642Y-372107D01*
X-408614Y-372145D01*
X-408599Y-372158D01*
X-408579Y-372180D01*
X-402180Y-378579D01*
X-402120Y-378627D01*
X-402066Y-378683D01*
X-401945Y-378767D01*
X-401907Y-378796D01*
X-401890Y-378805D01*
X-401865Y-378822D01*
X-394028Y-383346D01*
X-393957Y-383377D01*
X-393891Y-383417D01*
X-393751Y-383466D01*
X-393708Y-383485D01*
X-393689Y-383488D01*
X-393660Y-383499D01*
X-384919Y-385841D01*
X-384892Y-385845D01*
X-384866Y-385854D01*
X-384624Y-385889D01*
X-380100Y-386186D01*
X-380063Y-386184D01*
X-380000Y-386189D01*
X400000Y-386189D01*
X400036Y-386185D01*
G37*
%LPC*%
G36*
X-163773Y-252960D02*
X-163773Y-252960D01*
X-166662Y-251763D01*
X-168873Y-249552D01*
X-170070Y-246663D01*
X-170070Y-243537D01*
X-168873Y-240648D01*
X-166662Y-238437D01*
X-163773Y-237240D01*
X-160647Y-237240D01*
X-157758Y-238437D01*
X-155547Y-240648D01*
X-155355Y-241111D01*
X-155318Y-241178D01*
X-155290Y-241249D01*
X-155234Y-241330D01*
X-155186Y-241416D01*
X-155134Y-241472D01*
X-155091Y-241535D01*
X-155018Y-241601D01*
X-154952Y-241674D01*
X-154889Y-241717D01*
X-154832Y-241768D01*
X-154746Y-241816D01*
X-154665Y-241872D01*
X-154594Y-241900D01*
X-154527Y-241937D01*
X-154432Y-241964D01*
X-154341Y-242000D01*
X-154265Y-242011D01*
X-154191Y-242032D01*
X-154043Y-242044D01*
X-153996Y-242051D01*
X-153977Y-242049D01*
X-153948Y-242051D01*
X-89994Y-242051D01*
X-89868Y-242037D01*
X-89742Y-242030D01*
X-89696Y-242017D01*
X-89648Y-242011D01*
X-89529Y-241969D01*
X-89407Y-241934D01*
X-89365Y-241910D01*
X-89319Y-241894D01*
X-89213Y-241825D01*
X-89103Y-241764D01*
X-89057Y-241724D01*
X-89027Y-241705D01*
X-88993Y-241670D01*
X-88917Y-241605D01*
X44542Y-108147D01*
X44589Y-108087D01*
X44644Y-108034D01*
X44697Y-107951D01*
X44758Y-107874D01*
X44791Y-107805D01*
X44832Y-107740D01*
X44865Y-107648D01*
X44907Y-107559D01*
X44923Y-107484D01*
X44949Y-107412D01*
X44960Y-107314D01*
X44981Y-107218D01*
X44979Y-107142D01*
X44988Y-107066D01*
X44976Y-106968D01*
X44975Y-106870D01*
X44956Y-106796D01*
X44947Y-106720D01*
X44901Y-106577D01*
X44890Y-106532D01*
X44881Y-106515D01*
X44872Y-106487D01*
X44852Y-106438D01*
X44779Y-106307D01*
X44710Y-106173D01*
X44694Y-106155D01*
X44683Y-106134D01*
X44582Y-106022D01*
X44484Y-105908D01*
X44465Y-105893D01*
X44448Y-105876D01*
X44325Y-105790D01*
X44204Y-105701D01*
X44182Y-105691D01*
X44162Y-105677D01*
X44022Y-105622D01*
X43884Y-105563D01*
X43860Y-105558D01*
X43837Y-105550D01*
X43689Y-105528D01*
X43541Y-105501D01*
X43517Y-105502D01*
X43493Y-105499D01*
X43343Y-105511D01*
X43193Y-105519D01*
X43170Y-105526D01*
X43145Y-105528D01*
X43002Y-105574D01*
X42858Y-105615D01*
X42837Y-105627D01*
X42814Y-105635D01*
X42685Y-105712D01*
X42554Y-105786D01*
X42531Y-105805D01*
X42515Y-105814D01*
X42481Y-105847D01*
X42367Y-105944D01*
X-72205Y-220517D01*
X-74437Y-222749D01*
X-153948Y-222749D01*
X-154024Y-222757D01*
X-154100Y-222756D01*
X-154196Y-222777D01*
X-154294Y-222789D01*
X-154366Y-222814D01*
X-154441Y-222831D01*
X-154529Y-222873D01*
X-154622Y-222906D01*
X-154686Y-222948D01*
X-154755Y-222980D01*
X-154832Y-223042D01*
X-154915Y-223095D01*
X-154968Y-223150D01*
X-155028Y-223198D01*
X-155089Y-223275D01*
X-155157Y-223346D01*
X-155196Y-223411D01*
X-155244Y-223471D01*
X-155312Y-223604D01*
X-155336Y-223645D01*
X-155342Y-223663D01*
X-155355Y-223689D01*
X-155547Y-224152D01*
X-157758Y-226363D01*
X-160647Y-227560D01*
X-163773Y-227560D01*
X-166662Y-226363D01*
X-168873Y-224152D01*
X-170070Y-221263D01*
X-170070Y-218137D01*
X-168873Y-215248D01*
X-166662Y-213037D01*
X-163773Y-211840D01*
X-160647Y-211840D01*
X-157758Y-213037D01*
X-155547Y-215248D01*
X-155355Y-215711D01*
X-155318Y-215778D01*
X-155290Y-215849D01*
X-155234Y-215930D01*
X-155186Y-216016D01*
X-155134Y-216072D01*
X-155091Y-216135D01*
X-155018Y-216201D01*
X-154952Y-216274D01*
X-154889Y-216317D01*
X-154832Y-216368D01*
X-154746Y-216416D01*
X-154665Y-216472D01*
X-154594Y-216500D01*
X-154527Y-216537D01*
X-154432Y-216564D01*
X-154341Y-216600D01*
X-154265Y-216611D01*
X-154191Y-216632D01*
X-154043Y-216644D01*
X-153996Y-216651D01*
X-153977Y-216649D01*
X-153948Y-216651D01*
X-77594Y-216651D01*
X-77468Y-216637D01*
X-77342Y-216630D01*
X-77296Y-216617D01*
X-77248Y-216611D01*
X-77129Y-216569D01*
X-77007Y-216534D01*
X-76965Y-216510D01*
X-76919Y-216494D01*
X-76813Y-216425D01*
X-76703Y-216364D01*
X-76657Y-216324D01*
X-76627Y-216305D01*
X-76593Y-216270D01*
X-76517Y-216205D01*
X44247Y-95441D01*
X44326Y-95342D01*
X44410Y-95248D01*
X44434Y-95206D01*
X44464Y-95168D01*
X44518Y-95054D01*
X44579Y-94943D01*
X44592Y-94897D01*
X44613Y-94853D01*
X44639Y-94730D01*
X44674Y-94608D01*
X44679Y-94547D01*
X44686Y-94512D01*
X44685Y-94464D01*
X44693Y-94364D01*
X44693Y-92944D01*
X45435Y-91155D01*
X45476Y-91010D01*
X45522Y-90867D01*
X45524Y-90843D01*
X45530Y-90820D01*
X45538Y-90669D01*
X45550Y-90520D01*
X45546Y-90496D01*
X45547Y-90472D01*
X45520Y-90324D01*
X45498Y-90175D01*
X45489Y-90153D01*
X45485Y-90129D01*
X45425Y-89991D01*
X45369Y-89851D01*
X45355Y-89831D01*
X45346Y-89809D01*
X45256Y-89688D01*
X45170Y-89565D01*
X45152Y-89549D01*
X45138Y-89529D01*
X45023Y-89432D01*
X44911Y-89332D01*
X44890Y-89320D01*
X44872Y-89304D01*
X44738Y-89236D01*
X44606Y-89163D01*
X44583Y-89157D01*
X44562Y-89146D01*
X44416Y-89109D01*
X44271Y-89068D01*
X44242Y-89066D01*
X44223Y-89061D01*
X44176Y-89061D01*
X44027Y-89049D01*
X5924Y-89049D01*
X5824Y-89060D01*
X5724Y-89062D01*
X5652Y-89080D01*
X5578Y-89089D01*
X5484Y-89122D01*
X5386Y-89147D01*
X5320Y-89181D01*
X5250Y-89206D01*
X5166Y-89261D01*
X5076Y-89307D01*
X5020Y-89355D01*
X4957Y-89395D01*
X4887Y-89467D01*
X4811Y-89532D01*
X4767Y-89592D01*
X4715Y-89646D01*
X4663Y-89732D01*
X4604Y-89813D01*
X4574Y-89881D01*
X4536Y-89945D01*
X4506Y-90041D01*
X4466Y-90133D01*
X4453Y-90206D01*
X4430Y-90277D01*
X4422Y-90377D01*
X4404Y-90476D01*
X4408Y-90550D01*
X4402Y-90624D01*
X4417Y-90724D01*
X4422Y-90824D01*
X4443Y-90895D01*
X4454Y-90969D01*
X4491Y-91062D01*
X4519Y-91159D01*
X4555Y-91224D01*
X4582Y-91293D01*
X4640Y-91375D01*
X4689Y-91463D01*
X4754Y-91539D01*
X4781Y-91579D01*
X4808Y-91603D01*
X4847Y-91649D01*
X7342Y-94144D01*
X8661Y-97327D01*
X8661Y-100773D01*
X7342Y-103956D01*
X4906Y-106392D01*
X1723Y-107711D01*
X-1723Y-107711D01*
X-4906Y-106392D01*
X-7342Y-103956D01*
X-8661Y-100773D01*
X-8661Y-97327D01*
X-7342Y-94144D01*
X-4847Y-91649D01*
X-4785Y-91571D01*
X-4715Y-91498D01*
X-4677Y-91434D01*
X-4631Y-91376D01*
X-4588Y-91285D01*
X-4536Y-91199D01*
X-4513Y-91128D01*
X-4482Y-91061D01*
X-4461Y-90963D01*
X-4430Y-90867D01*
X-4424Y-90793D01*
X-4408Y-90720D01*
X-4410Y-90620D01*
X-4402Y-90520D01*
X-4413Y-90446D01*
X-4414Y-90372D01*
X-4439Y-90275D01*
X-4454Y-90175D01*
X-4481Y-90106D01*
X-4499Y-90034D01*
X-4545Y-89945D01*
X-4582Y-89851D01*
X-4625Y-89790D01*
X-4659Y-89724D01*
X-4724Y-89648D01*
X-4781Y-89565D01*
X-4836Y-89515D01*
X-4885Y-89459D01*
X-4966Y-89399D01*
X-5040Y-89332D01*
X-5105Y-89296D01*
X-5165Y-89251D01*
X-5257Y-89212D01*
X-5345Y-89163D01*
X-5417Y-89143D01*
X-5485Y-89113D01*
X-5584Y-89096D01*
X-5681Y-89068D01*
X-5781Y-89060D01*
X-5828Y-89052D01*
X-5864Y-89054D01*
X-5924Y-89049D01*
X-29106Y-89049D01*
X-29232Y-89063D01*
X-29358Y-89070D01*
X-29404Y-89083D01*
X-29452Y-89089D01*
X-29571Y-89131D01*
X-29693Y-89166D01*
X-29735Y-89190D01*
X-29781Y-89206D01*
X-29887Y-89275D01*
X-29997Y-89336D01*
X-30043Y-89376D01*
X-30073Y-89395D01*
X-30107Y-89430D01*
X-30183Y-89495D01*
X-44247Y-103559D01*
X-44326Y-103658D01*
X-44410Y-103752D01*
X-44434Y-103794D01*
X-44464Y-103832D01*
X-44518Y-103946D01*
X-44579Y-104057D01*
X-44592Y-104103D01*
X-44613Y-104147D01*
X-44639Y-104270D01*
X-44674Y-104392D01*
X-44679Y-104453D01*
X-44686Y-104488D01*
X-44685Y-104536D01*
X-44693Y-104636D01*
X-44693Y-106056D01*
X-45501Y-108006D01*
X-46505Y-109010D01*
X-46584Y-109109D01*
X-46668Y-109203D01*
X-46692Y-109245D01*
X-46722Y-109283D01*
X-46776Y-109397D01*
X-46837Y-109508D01*
X-46850Y-109554D01*
X-46871Y-109598D01*
X-46897Y-109721D01*
X-46932Y-109843D01*
X-46937Y-109904D01*
X-46944Y-109939D01*
X-46943Y-109987D01*
X-46951Y-110087D01*
X-46951Y-110353D01*
X-49183Y-112585D01*
X-131715Y-195117D01*
X-133947Y-197349D01*
X-153948Y-197349D01*
X-154024Y-197357D01*
X-154100Y-197356D01*
X-154196Y-197377D01*
X-154294Y-197389D01*
X-154366Y-197414D01*
X-154441Y-197431D01*
X-154529Y-197473D01*
X-154622Y-197506D01*
X-154686Y-197548D01*
X-154755Y-197580D01*
X-154832Y-197642D01*
X-154915Y-197695D01*
X-154968Y-197750D01*
X-155028Y-197798D01*
X-155089Y-197875D01*
X-155157Y-197946D01*
X-155196Y-198011D01*
X-155244Y-198071D01*
X-155312Y-198204D01*
X-155336Y-198245D01*
X-155342Y-198263D01*
X-155355Y-198289D01*
X-155547Y-198752D01*
X-157758Y-200963D01*
X-160647Y-202160D01*
X-163773Y-202160D01*
X-166662Y-200963D01*
X-168873Y-198752D01*
X-170070Y-195863D01*
X-170070Y-192737D01*
X-168873Y-189848D01*
X-166662Y-187637D01*
X-163773Y-186440D01*
X-160647Y-186440D01*
X-157758Y-187637D01*
X-155547Y-189848D01*
X-155355Y-190311D01*
X-155320Y-190374D01*
X-155305Y-190411D01*
X-155304Y-190413D01*
X-155290Y-190449D01*
X-155234Y-190530D01*
X-155186Y-190616D01*
X-155134Y-190672D01*
X-155091Y-190735D01*
X-155018Y-190801D01*
X-154952Y-190874D01*
X-154889Y-190917D01*
X-154832Y-190968D01*
X-154746Y-191016D01*
X-154665Y-191072D01*
X-154594Y-191100D01*
X-154527Y-191137D01*
X-154432Y-191164D01*
X-154341Y-191200D01*
X-154265Y-191211D01*
X-154191Y-191232D01*
X-154043Y-191244D01*
X-153996Y-191251D01*
X-153977Y-191249D01*
X-153948Y-191251D01*
X-137104Y-191251D01*
X-136978Y-191237D01*
X-136852Y-191230D01*
X-136806Y-191217D01*
X-136758Y-191211D01*
X-136639Y-191169D01*
X-136517Y-191134D01*
X-136475Y-191110D01*
X-136429Y-191094D01*
X-136323Y-191025D01*
X-136213Y-190964D01*
X-136167Y-190924D01*
X-136137Y-190905D01*
X-136103Y-190870D01*
X-136101Y-190869D01*
X-136099Y-190867D01*
X-136096Y-190864D01*
X-136027Y-190805D01*
X-54846Y-109625D01*
X-54799Y-109565D01*
X-54744Y-109511D01*
X-54691Y-109429D01*
X-54630Y-109352D01*
X-54597Y-109282D01*
X-54556Y-109218D01*
X-54523Y-109125D01*
X-54481Y-109037D01*
X-54465Y-108962D01*
X-54439Y-108890D01*
X-54428Y-108792D01*
X-54407Y-108696D01*
X-54409Y-108620D01*
X-54400Y-108543D01*
X-54412Y-108446D01*
X-54413Y-108347D01*
X-54432Y-108273D01*
X-54441Y-108197D01*
X-54487Y-108055D01*
X-54498Y-108009D01*
X-54507Y-107992D01*
X-54516Y-107965D01*
X-55307Y-106056D01*
X-55307Y-103944D01*
X-54499Y-101994D01*
X-53006Y-100501D01*
X-51056Y-99693D01*
X-49636Y-99693D01*
X-49510Y-99679D01*
X-49384Y-99672D01*
X-49338Y-99659D01*
X-49290Y-99653D01*
X-49171Y-99611D01*
X-49049Y-99576D01*
X-49007Y-99552D01*
X-48961Y-99536D01*
X-48855Y-99467D01*
X-48745Y-99406D01*
X-48699Y-99366D01*
X-48669Y-99347D01*
X-48635Y-99312D01*
X-48559Y-99247D01*
X-34495Y-85184D01*
X-34495Y-85183D01*
X-32961Y-83649D01*
X-32898Y-83570D01*
X-32828Y-83498D01*
X-32790Y-83434D01*
X-32744Y-83376D01*
X-32701Y-83285D01*
X-32650Y-83199D01*
X-32627Y-83128D01*
X-32595Y-83061D01*
X-32574Y-82963D01*
X-32543Y-82867D01*
X-32537Y-82793D01*
X-32522Y-82720D01*
X-32523Y-82620D01*
X-32515Y-82520D01*
X-32526Y-82446D01*
X-32528Y-82372D01*
X-32552Y-82275D01*
X-32567Y-82175D01*
X-32595Y-82106D01*
X-32613Y-82034D01*
X-32659Y-81945D01*
X-32696Y-81851D01*
X-32738Y-81790D01*
X-32772Y-81724D01*
X-32837Y-81648D01*
X-32895Y-81565D01*
X-32950Y-81515D01*
X-32998Y-81459D01*
X-33079Y-81399D01*
X-33154Y-81332D01*
X-33219Y-81296D01*
X-33278Y-81251D01*
X-33371Y-81212D01*
X-33459Y-81163D01*
X-33530Y-81143D01*
X-33598Y-81113D01*
X-33697Y-81096D01*
X-33794Y-81068D01*
X-33894Y-81060D01*
X-33941Y-81052D01*
X-33977Y-81054D01*
X-34038Y-81049D01*
X-56416Y-81049D01*
X-56542Y-81063D01*
X-56668Y-81070D01*
X-56714Y-81083D01*
X-56762Y-81089D01*
X-56881Y-81131D01*
X-57003Y-81166D01*
X-57045Y-81190D01*
X-57091Y-81206D01*
X-57197Y-81275D01*
X-57307Y-81336D01*
X-57353Y-81376D01*
X-57383Y-81395D01*
X-57417Y-81430D01*
X-57493Y-81495D01*
X-147947Y-171949D01*
X-153948Y-171949D01*
X-154024Y-171957D01*
X-154100Y-171956D01*
X-154196Y-171977D01*
X-154294Y-171989D01*
X-154366Y-172014D01*
X-154441Y-172031D01*
X-154529Y-172073D01*
X-154622Y-172106D01*
X-154686Y-172148D01*
X-154755Y-172180D01*
X-154832Y-172242D01*
X-154915Y-172295D01*
X-154968Y-172350D01*
X-155028Y-172398D01*
X-155089Y-172475D01*
X-155157Y-172546D01*
X-155196Y-172611D01*
X-155244Y-172671D01*
X-155312Y-172804D01*
X-155336Y-172845D01*
X-155342Y-172863D01*
X-155355Y-172889D01*
X-155547Y-173352D01*
X-157758Y-175563D01*
X-160647Y-176760D01*
X-163773Y-176760D01*
X-166662Y-175563D01*
X-168873Y-173352D01*
X-170070Y-170463D01*
X-170070Y-167337D01*
X-168873Y-164448D01*
X-166662Y-162237D01*
X-163773Y-161040D01*
X-160647Y-161040D01*
X-157758Y-162237D01*
X-155547Y-164448D01*
X-155355Y-164911D01*
X-155318Y-164978D01*
X-155290Y-165049D01*
X-155234Y-165130D01*
X-155186Y-165216D01*
X-155134Y-165272D01*
X-155091Y-165335D01*
X-155018Y-165401D01*
X-154952Y-165474D01*
X-154889Y-165517D01*
X-154832Y-165568D01*
X-154746Y-165616D01*
X-154665Y-165672D01*
X-154594Y-165700D01*
X-154527Y-165737D01*
X-154432Y-165764D01*
X-154341Y-165800D01*
X-154265Y-165811D01*
X-154191Y-165832D01*
X-154043Y-165844D01*
X-153996Y-165851D01*
X-153977Y-165849D01*
X-153948Y-165851D01*
X-151104Y-165851D01*
X-150978Y-165837D01*
X-150852Y-165830D01*
X-150806Y-165817D01*
X-150758Y-165811D01*
X-150639Y-165769D01*
X-150517Y-165734D01*
X-150475Y-165710D01*
X-150429Y-165694D01*
X-150323Y-165625D01*
X-150213Y-165564D01*
X-150167Y-165524D01*
X-150137Y-165505D01*
X-150103Y-165470D01*
X-150027Y-165405D01*
X-59573Y-74951D01*
X-54231Y-74951D01*
X-54131Y-74940D01*
X-54031Y-74938D01*
X-53959Y-74920D01*
X-53885Y-74911D01*
X-53790Y-74878D01*
X-53693Y-74853D01*
X-53627Y-74819D01*
X-53557Y-74794D01*
X-53472Y-74739D01*
X-53383Y-74693D01*
X-53326Y-74645D01*
X-53264Y-74605D01*
X-53194Y-74533D01*
X-53118Y-74468D01*
X-53073Y-74408D01*
X-53022Y-74354D01*
X-52970Y-74268D01*
X-52910Y-74187D01*
X-52881Y-74119D01*
X-52843Y-74055D01*
X-52812Y-73959D01*
X-52772Y-73867D01*
X-52759Y-73794D01*
X-52737Y-73723D01*
X-52729Y-73623D01*
X-52711Y-73524D01*
X-52715Y-73450D01*
X-52709Y-73376D01*
X-52724Y-73276D01*
X-52729Y-73176D01*
X-52749Y-73105D01*
X-52760Y-73031D01*
X-52797Y-72938D01*
X-52825Y-72841D01*
X-52862Y-72776D01*
X-52889Y-72707D01*
X-52946Y-72625D01*
X-52995Y-72537D01*
X-53061Y-72461D01*
X-53088Y-72421D01*
X-53114Y-72397D01*
X-53154Y-72351D01*
X-54499Y-71006D01*
X-55307Y-69056D01*
X-55307Y-67636D01*
X-55321Y-67510D01*
X-55328Y-67384D01*
X-55341Y-67338D01*
X-55347Y-67290D01*
X-55389Y-67171D01*
X-55424Y-67049D01*
X-55448Y-67007D01*
X-55464Y-66961D01*
X-55533Y-66855D01*
X-55594Y-66745D01*
X-55634Y-66699D01*
X-55653Y-66669D01*
X-55688Y-66635D01*
X-55753Y-66559D01*
X-63817Y-58495D01*
X-63916Y-58416D01*
X-64010Y-58332D01*
X-64052Y-58308D01*
X-64090Y-58278D01*
X-64204Y-58224D01*
X-64315Y-58163D01*
X-64361Y-58150D01*
X-64405Y-58129D01*
X-64528Y-58103D01*
X-64650Y-58068D01*
X-64711Y-58063D01*
X-64746Y-58056D01*
X-64794Y-58057D01*
X-64894Y-58049D01*
X-156668Y-58049D01*
X-156768Y-58060D01*
X-156869Y-58062D01*
X-156941Y-58080D01*
X-157015Y-58089D01*
X-157109Y-58122D01*
X-157207Y-58147D01*
X-157273Y-58181D01*
X-157343Y-58206D01*
X-157427Y-58261D01*
X-157516Y-58307D01*
X-157573Y-58355D01*
X-157636Y-58395D01*
X-157706Y-58467D01*
X-157782Y-58532D01*
X-157826Y-58592D01*
X-157878Y-58646D01*
X-157929Y-58732D01*
X-157989Y-58813D01*
X-158018Y-58881D01*
X-158057Y-58945D01*
X-158087Y-59041D01*
X-158127Y-59133D01*
X-158140Y-59206D01*
X-158163Y-59277D01*
X-158171Y-59377D01*
X-158189Y-59476D01*
X-158185Y-59550D01*
X-158191Y-59624D01*
X-158176Y-59724D01*
X-158171Y-59824D01*
X-158150Y-59895D01*
X-158139Y-59969D01*
X-158102Y-60062D01*
X-158074Y-60159D01*
X-158038Y-60224D01*
X-158010Y-60293D01*
X-157953Y-60375D01*
X-157904Y-60463D01*
X-157839Y-60539D01*
X-157811Y-60579D01*
X-157785Y-60603D01*
X-157746Y-60649D01*
X-155547Y-62848D01*
X-154350Y-65737D01*
X-154350Y-68863D01*
X-155547Y-71752D01*
X-157758Y-73963D01*
X-160647Y-75160D01*
X-163773Y-75160D01*
X-166662Y-73963D01*
X-168873Y-71752D01*
X-170070Y-68863D01*
X-170070Y-65737D01*
X-168873Y-62848D01*
X-166674Y-60649D01*
X-166612Y-60571D01*
X-166542Y-60498D01*
X-166504Y-60434D01*
X-166458Y-60376D01*
X-166415Y-60285D01*
X-166363Y-60199D01*
X-166341Y-60128D01*
X-166309Y-60061D01*
X-166288Y-59963D01*
X-166257Y-59867D01*
X-166251Y-59793D01*
X-166236Y-59720D01*
X-166237Y-59620D01*
X-166229Y-59520D01*
X-166240Y-59446D01*
X-166241Y-59372D01*
X-166266Y-59275D01*
X-166281Y-59175D01*
X-166308Y-59106D01*
X-166326Y-59034D01*
X-166372Y-58945D01*
X-166410Y-58851D01*
X-166452Y-58790D01*
X-166486Y-58724D01*
X-166551Y-58648D01*
X-166609Y-58565D01*
X-166664Y-58515D01*
X-166712Y-58459D01*
X-166793Y-58399D01*
X-166867Y-58332D01*
X-166932Y-58296D01*
X-166992Y-58251D01*
X-167084Y-58212D01*
X-167172Y-58163D01*
X-167244Y-58143D01*
X-167312Y-58113D01*
X-167411Y-58096D01*
X-167508Y-58068D01*
X-167608Y-58060D01*
X-167655Y-58052D01*
X-167691Y-58054D01*
X-167752Y-58049D01*
X-292953Y-58049D01*
X-305607Y-45395D01*
X-305706Y-45316D01*
X-305800Y-45232D01*
X-305842Y-45208D01*
X-305880Y-45178D01*
X-305994Y-45124D01*
X-306105Y-45063D01*
X-306151Y-45050D01*
X-306195Y-45029D01*
X-306318Y-45003D01*
X-306440Y-44968D01*
X-306501Y-44963D01*
X-306536Y-44956D01*
X-306584Y-44957D01*
X-306684Y-44949D01*
X-309528Y-44949D01*
X-309604Y-44957D01*
X-309680Y-44956D01*
X-309776Y-44977D01*
X-309874Y-44989D01*
X-309946Y-45014D01*
X-310021Y-45031D01*
X-310109Y-45073D01*
X-310202Y-45106D01*
X-310266Y-45148D01*
X-310335Y-45180D01*
X-310412Y-45242D01*
X-310495Y-45295D01*
X-310548Y-45350D01*
X-310608Y-45398D01*
X-310669Y-45475D01*
X-310737Y-45546D01*
X-310776Y-45611D01*
X-310824Y-45671D01*
X-310892Y-45804D01*
X-310916Y-45845D01*
X-310922Y-45863D01*
X-310927Y-45874D01*
X-310929Y-45877D01*
X-310930Y-45879D01*
X-310935Y-45889D01*
X-311127Y-46352D01*
X-313338Y-48563D01*
X-316227Y-49760D01*
X-319353Y-49760D01*
X-322242Y-48563D01*
X-324453Y-46352D01*
X-325650Y-43463D01*
X-325650Y-40337D01*
X-324453Y-37448D01*
X-322242Y-35237D01*
X-319353Y-34040D01*
X-316227Y-34040D01*
X-313338Y-35237D01*
X-311127Y-37448D01*
X-310935Y-37911D01*
X-310898Y-37978D01*
X-310870Y-38049D01*
X-310814Y-38130D01*
X-310766Y-38216D01*
X-310714Y-38272D01*
X-310671Y-38335D01*
X-310598Y-38401D01*
X-310532Y-38474D01*
X-310469Y-38517D01*
X-310412Y-38568D01*
X-310326Y-38616D01*
X-310245Y-38672D01*
X-310174Y-38700D01*
X-310107Y-38737D01*
X-310012Y-38764D01*
X-309921Y-38800D01*
X-309845Y-38811D01*
X-309771Y-38832D01*
X-309623Y-38844D01*
X-309576Y-38851D01*
X-309557Y-38849D01*
X-309528Y-38851D01*
X-303527Y-38851D01*
X-290873Y-51505D01*
X-290774Y-51584D01*
X-290680Y-51668D01*
X-290638Y-51692D01*
X-290600Y-51722D01*
X-290486Y-51776D01*
X-290375Y-51837D01*
X-290329Y-51850D01*
X-290285Y-51871D01*
X-290162Y-51897D01*
X-290040Y-51932D01*
X-289979Y-51937D01*
X-289944Y-51944D01*
X-289896Y-51943D01*
X-289796Y-51951D01*
X-61737Y-51951D01*
X-59505Y-54183D01*
X-51577Y-62111D01*
X-51557Y-62128D01*
X-51540Y-62148D01*
X-51420Y-62236D01*
X-51304Y-62328D01*
X-51280Y-62339D01*
X-51259Y-62355D01*
X-51123Y-62414D01*
X-50989Y-62477D01*
X-50963Y-62482D01*
X-50939Y-62493D01*
X-50793Y-62519D01*
X-50648Y-62550D01*
X-50622Y-62550D01*
X-50596Y-62554D01*
X-50448Y-62547D01*
X-50300Y-62544D01*
X-50274Y-62538D01*
X-50248Y-62537D01*
X-50106Y-62495D01*
X-49962Y-62459D01*
X-49939Y-62447D01*
X-49913Y-62440D01*
X-49784Y-62368D01*
X-49652Y-62300D01*
X-49632Y-62283D01*
X-49609Y-62270D01*
X-49423Y-62111D01*
X-26163Y-38851D01*
X153948Y-38851D01*
X154024Y-38843D01*
X154100Y-38844D01*
X154196Y-38823D01*
X154294Y-38811D01*
X154366Y-38786D01*
X154441Y-38769D01*
X154529Y-38727D01*
X154622Y-38694D01*
X154686Y-38652D01*
X154755Y-38620D01*
X154832Y-38558D01*
X154915Y-38505D01*
X154968Y-38450D01*
X155028Y-38402D01*
X155089Y-38325D01*
X155157Y-38254D01*
X155196Y-38189D01*
X155244Y-38129D01*
X155312Y-37996D01*
X155336Y-37955D01*
X155342Y-37937D01*
X155355Y-37911D01*
X155547Y-37448D01*
X157758Y-35237D01*
X160647Y-34040D01*
X163773Y-34040D01*
X166662Y-35237D01*
X168873Y-37448D01*
X170070Y-40337D01*
X170070Y-43463D01*
X169878Y-43926D01*
X169857Y-44000D01*
X169827Y-44070D01*
X169809Y-44167D01*
X169782Y-44262D01*
X169779Y-44338D01*
X169765Y-44413D01*
X169770Y-44512D01*
X169765Y-44610D01*
X169779Y-44685D01*
X169783Y-44761D01*
X169810Y-44856D01*
X169828Y-44953D01*
X169858Y-45023D01*
X169879Y-45096D01*
X169928Y-45182D01*
X169967Y-45272D01*
X170012Y-45334D01*
X170050Y-45400D01*
X170146Y-45514D01*
X170175Y-45552D01*
X170189Y-45564D01*
X170208Y-45587D01*
X177127Y-52505D01*
X177226Y-52584D01*
X177320Y-52668D01*
X177362Y-52692D01*
X177400Y-52722D01*
X177514Y-52776D01*
X177625Y-52837D01*
X177671Y-52850D01*
X177715Y-52871D01*
X177838Y-52897D01*
X177960Y-52932D01*
X178021Y-52937D01*
X178056Y-52944D01*
X178104Y-52943D01*
X178204Y-52951D01*
X329263Y-52951D01*
X334559Y-58247D01*
X334658Y-58326D01*
X334752Y-58410D01*
X334794Y-58434D01*
X334832Y-58464D01*
X334946Y-58518D01*
X335057Y-58579D01*
X335103Y-58592D01*
X335147Y-58613D01*
X335270Y-58639D01*
X335392Y-58674D01*
X335453Y-58679D01*
X335488Y-58686D01*
X335536Y-58685D01*
X335636Y-58693D01*
X337056Y-58693D01*
X339006Y-59501D01*
X340499Y-60994D01*
X341307Y-62944D01*
X341307Y-65056D01*
X340499Y-67006D01*
X339006Y-68499D01*
X337056Y-69307D01*
X334944Y-69307D01*
X332994Y-68499D01*
X331501Y-67006D01*
X330693Y-65056D01*
X330693Y-63636D01*
X330679Y-63510D01*
X330672Y-63384D01*
X330659Y-63338D01*
X330653Y-63290D01*
X330611Y-63171D01*
X330576Y-63049D01*
X330552Y-63007D01*
X330536Y-62961D01*
X330467Y-62855D01*
X330406Y-62745D01*
X330366Y-62699D01*
X330347Y-62669D01*
X330312Y-62635D01*
X330247Y-62559D01*
X327183Y-59495D01*
X327084Y-59416D01*
X326990Y-59332D01*
X326948Y-59308D01*
X326910Y-59278D01*
X326796Y-59224D01*
X326685Y-59163D01*
X326639Y-59150D01*
X326595Y-59129D01*
X326472Y-59103D01*
X326350Y-59068D01*
X326289Y-59063D01*
X326254Y-59056D01*
X326206Y-59057D01*
X326106Y-59049D01*
X324332Y-59049D01*
X324232Y-59060D01*
X324131Y-59062D01*
X324059Y-59080D01*
X323985Y-59089D01*
X323891Y-59122D01*
X323793Y-59147D01*
X323727Y-59181D01*
X323657Y-59206D01*
X323573Y-59261D01*
X323484Y-59307D01*
X323427Y-59355D01*
X323364Y-59395D01*
X323295Y-59467D01*
X323218Y-59532D01*
X323174Y-59592D01*
X323122Y-59646D01*
X323071Y-59732D01*
X323011Y-59813D01*
X322982Y-59881D01*
X322943Y-59945D01*
X322913Y-60041D01*
X322873Y-60133D01*
X322860Y-60206D01*
X322837Y-60277D01*
X322829Y-60377D01*
X322811Y-60476D01*
X322815Y-60550D01*
X322809Y-60624D01*
X322824Y-60724D01*
X322829Y-60824D01*
X322850Y-60895D01*
X322861Y-60969D01*
X322898Y-61062D01*
X322926Y-61159D01*
X322962Y-61224D01*
X322990Y-61293D01*
X323047Y-61375D01*
X323096Y-61463D01*
X323161Y-61539D01*
X323189Y-61579D01*
X323215Y-61603D01*
X323254Y-61649D01*
X324453Y-62848D01*
X325650Y-65737D01*
X325650Y-68863D01*
X324453Y-71752D01*
X322242Y-73963D01*
X319353Y-75160D01*
X316227Y-75160D01*
X313338Y-73963D01*
X311127Y-71752D01*
X309930Y-68863D01*
X309930Y-65737D01*
X311127Y-62848D01*
X312326Y-61649D01*
X312388Y-61570D01*
X312458Y-61498D01*
X312496Y-61434D01*
X312542Y-61376D01*
X312585Y-61285D01*
X312637Y-61199D01*
X312659Y-61128D01*
X312691Y-61061D01*
X312712Y-60963D01*
X312743Y-60867D01*
X312749Y-60793D01*
X312764Y-60720D01*
X312763Y-60620D01*
X312771Y-60520D01*
X312760Y-60446D01*
X312759Y-60372D01*
X312734Y-60275D01*
X312719Y-60175D01*
X312692Y-60106D01*
X312674Y-60034D01*
X312628Y-59945D01*
X312590Y-59851D01*
X312548Y-59790D01*
X312514Y-59724D01*
X312449Y-59648D01*
X312391Y-59565D01*
X312336Y-59515D01*
X312288Y-59459D01*
X312207Y-59399D01*
X312133Y-59332D01*
X312067Y-59296D01*
X312008Y-59251D01*
X311916Y-59212D01*
X311828Y-59163D01*
X311756Y-59143D01*
X311688Y-59113D01*
X311589Y-59096D01*
X311492Y-59068D01*
X311392Y-59060D01*
X311345Y-59052D01*
X311309Y-59054D01*
X311248Y-59049D01*
X175047Y-59049D01*
X165897Y-49898D01*
X165837Y-49851D01*
X165783Y-49796D01*
X165701Y-49743D01*
X165624Y-49681D01*
X165554Y-49649D01*
X165490Y-49608D01*
X165397Y-49575D01*
X165308Y-49533D01*
X165234Y-49517D01*
X165162Y-49491D01*
X165064Y-49480D01*
X164968Y-49459D01*
X164891Y-49461D01*
X164815Y-49452D01*
X164718Y-49463D01*
X164619Y-49465D01*
X164545Y-49484D01*
X164469Y-49493D01*
X164327Y-49539D01*
X164281Y-49550D01*
X164264Y-49559D01*
X164236Y-49568D01*
X163773Y-49760D01*
X160647Y-49760D01*
X157758Y-48563D01*
X155547Y-46352D01*
X155355Y-45889D01*
X155320Y-45826D01*
X155303Y-45784D01*
X155302Y-45782D01*
X155290Y-45751D01*
X155234Y-45670D01*
X155186Y-45584D01*
X155134Y-45528D01*
X155091Y-45465D01*
X155018Y-45399D01*
X154952Y-45326D01*
X154889Y-45283D01*
X154832Y-45232D01*
X154746Y-45184D01*
X154665Y-45128D01*
X154594Y-45100D01*
X154527Y-45063D01*
X154432Y-45036D01*
X154341Y-45000D01*
X154265Y-44989D01*
X154191Y-44968D01*
X154043Y-44956D01*
X153996Y-44949D01*
X153977Y-44951D01*
X153948Y-44949D01*
X-23006Y-44949D01*
X-23132Y-44963D01*
X-23258Y-44970D01*
X-23304Y-44983D01*
X-23352Y-44989D01*
X-23471Y-45031D01*
X-23593Y-45066D01*
X-23635Y-45090D01*
X-23681Y-45106D01*
X-23787Y-45175D01*
X-23897Y-45236D01*
X-23943Y-45276D01*
X-23973Y-45295D01*
X-24003Y-45326D01*
X-24006Y-45328D01*
X-24013Y-45335D01*
X-24083Y-45395D01*
X-44249Y-65560D01*
X-44298Y-65622D01*
X-44354Y-65677D01*
X-44392Y-65737D01*
X-44410Y-65757D01*
X-44423Y-65780D01*
X-44465Y-65833D01*
X-44499Y-65904D01*
X-44541Y-65970D01*
X-44564Y-66035D01*
X-44579Y-66062D01*
X-44587Y-66090D01*
X-44614Y-66148D01*
X-44631Y-66225D01*
X-44657Y-66299D01*
X-44664Y-66363D01*
X-44674Y-66398D01*
X-44677Y-66440D01*
X-44688Y-66489D01*
X-44687Y-66557D01*
X-44690Y-66601D01*
X-44695Y-66646D01*
X-44693Y-66659D01*
X-44693Y-69056D01*
X-45501Y-71006D01*
X-46846Y-72351D01*
X-46909Y-72430D01*
X-46978Y-72502D01*
X-47017Y-72566D01*
X-47063Y-72624D01*
X-47106Y-72715D01*
X-47157Y-72801D01*
X-47180Y-72872D01*
X-47212Y-72939D01*
X-47233Y-73037D01*
X-47263Y-73133D01*
X-47269Y-73207D01*
X-47285Y-73280D01*
X-47283Y-73380D01*
X-47291Y-73480D01*
X-47280Y-73554D01*
X-47279Y-73628D01*
X-47255Y-73725D01*
X-47240Y-73825D01*
X-47212Y-73894D01*
X-47194Y-73966D01*
X-47148Y-74055D01*
X-47111Y-74149D01*
X-47068Y-74210D01*
X-47034Y-74276D01*
X-46969Y-74352D01*
X-46912Y-74435D01*
X-46857Y-74485D01*
X-46809Y-74541D01*
X-46728Y-74601D01*
X-46653Y-74668D01*
X-46588Y-74704D01*
X-46528Y-74749D01*
X-46436Y-74788D01*
X-46348Y-74837D01*
X-46277Y-74857D01*
X-46208Y-74887D01*
X-46109Y-74904D01*
X-46013Y-74932D01*
X-45913Y-74940D01*
X-45865Y-74948D01*
X-45830Y-74946D01*
X-45769Y-74951D01*
X44913Y-74951D01*
X45039Y-74937D01*
X45165Y-74930D01*
X45211Y-74917D01*
X45259Y-74911D01*
X45378Y-74869D01*
X45500Y-74834D01*
X45542Y-74810D01*
X45587Y-74794D01*
X45693Y-74725D01*
X45804Y-74664D01*
X45850Y-74624D01*
X45880Y-74605D01*
X45914Y-74570D01*
X45990Y-74505D01*
X46994Y-73501D01*
X48944Y-72693D01*
X51056Y-72693D01*
X53006Y-73501D01*
X53910Y-74405D01*
X54009Y-74484D01*
X54103Y-74568D01*
X54145Y-74592D01*
X54183Y-74622D01*
X54297Y-74676D01*
X54408Y-74737D01*
X54454Y-74750D01*
X54498Y-74771D01*
X54621Y-74797D01*
X54743Y-74832D01*
X54804Y-74837D01*
X54839Y-74844D01*
X54887Y-74843D01*
X54987Y-74851D01*
X228053Y-74851D01*
X230285Y-77083D01*
X314103Y-160902D01*
X314163Y-160949D01*
X314217Y-161004D01*
X314299Y-161057D01*
X314376Y-161119D01*
X314445Y-161151D01*
X314510Y-161192D01*
X314603Y-161225D01*
X314692Y-161267D01*
X314766Y-161284D01*
X314838Y-161309D01*
X314936Y-161320D01*
X315032Y-161341D01*
X315109Y-161339D01*
X315185Y-161348D01*
X315283Y-161337D01*
X315381Y-161335D01*
X315455Y-161316D01*
X315531Y-161307D01*
X315673Y-161261D01*
X315719Y-161250D01*
X315736Y-161241D01*
X315763Y-161232D01*
X316227Y-161040D01*
X319353Y-161040D01*
X322242Y-162237D01*
X324453Y-164448D01*
X325650Y-167337D01*
X325650Y-170463D01*
X324453Y-173352D01*
X322242Y-175563D01*
X319353Y-176760D01*
X316227Y-176760D01*
X313338Y-175563D01*
X311127Y-173352D01*
X309930Y-170463D01*
X309930Y-167337D01*
X310122Y-166873D01*
X310143Y-166800D01*
X310173Y-166730D01*
X310191Y-166633D01*
X310218Y-166538D01*
X310221Y-166462D01*
X310235Y-166387D01*
X310230Y-166288D01*
X310235Y-166190D01*
X310221Y-166115D01*
X310217Y-166039D01*
X310190Y-165944D01*
X310172Y-165847D01*
X310142Y-165777D01*
X310121Y-165704D01*
X310073Y-165618D01*
X310033Y-165528D01*
X309988Y-165466D01*
X309950Y-165400D01*
X309854Y-165286D01*
X309825Y-165248D01*
X309811Y-165236D01*
X309792Y-165213D01*
X225973Y-81395D01*
X225874Y-81316D01*
X225780Y-81232D01*
X225738Y-81208D01*
X225700Y-81178D01*
X225586Y-81124D01*
X225475Y-81063D01*
X225429Y-81050D01*
X225385Y-81029D01*
X225262Y-81003D01*
X225140Y-80968D01*
X225079Y-80963D01*
X225044Y-80956D01*
X224996Y-80957D01*
X224896Y-80949D01*
X212428Y-80949D01*
X212328Y-80960D01*
X212228Y-80962D01*
X212155Y-80980D01*
X212082Y-80989D01*
X211987Y-81022D01*
X211890Y-81047D01*
X211823Y-81081D01*
X211753Y-81106D01*
X211669Y-81161D01*
X211580Y-81207D01*
X211523Y-81255D01*
X211461Y-81295D01*
X211391Y-81367D01*
X211314Y-81432D01*
X211270Y-81492D01*
X211218Y-81546D01*
X211167Y-81632D01*
X211107Y-81713D01*
X211078Y-81781D01*
X211040Y-81845D01*
X211009Y-81941D01*
X210969Y-82033D01*
X210956Y-82106D01*
X210933Y-82177D01*
X210925Y-82277D01*
X210908Y-82376D01*
X210911Y-82450D01*
X210905Y-82524D01*
X210920Y-82624D01*
X210925Y-82724D01*
X210946Y-82795D01*
X210957Y-82869D01*
X210994Y-82962D01*
X211022Y-83059D01*
X211058Y-83124D01*
X211086Y-83193D01*
X211143Y-83275D01*
X211192Y-83363D01*
X211257Y-83439D01*
X211285Y-83479D01*
X211311Y-83503D01*
X211351Y-83549D01*
X314103Y-186302D01*
X314163Y-186349D01*
X314217Y-186404D01*
X314299Y-186457D01*
X314376Y-186519D01*
X314445Y-186551D01*
X314510Y-186592D01*
X314603Y-186625D01*
X314692Y-186667D01*
X314766Y-186684D01*
X314838Y-186709D01*
X314936Y-186720D01*
X315032Y-186741D01*
X315109Y-186739D01*
X315185Y-186748D01*
X315283Y-186737D01*
X315381Y-186735D01*
X315455Y-186716D01*
X315531Y-186707D01*
X315673Y-186661D01*
X315719Y-186650D01*
X315736Y-186641D01*
X315763Y-186632D01*
X316227Y-186440D01*
X319353Y-186440D01*
X322242Y-187637D01*
X324453Y-189848D01*
X325650Y-192737D01*
X325650Y-195863D01*
X324453Y-198752D01*
X322242Y-200963D01*
X319353Y-202160D01*
X316227Y-202160D01*
X313338Y-200963D01*
X311127Y-198752D01*
X309930Y-195863D01*
X309930Y-192737D01*
X310122Y-192273D01*
X310143Y-192200D01*
X310173Y-192130D01*
X310191Y-192033D01*
X310218Y-191938D01*
X310221Y-191862D01*
X310235Y-191787D01*
X310230Y-191688D01*
X310235Y-191590D01*
X310221Y-191515D01*
X310217Y-191439D01*
X310190Y-191344D01*
X310172Y-191247D01*
X310142Y-191177D01*
X310121Y-191104D01*
X310073Y-191018D01*
X310033Y-190928D01*
X309988Y-190866D01*
X309950Y-190800D01*
X309854Y-190686D01*
X309825Y-190648D01*
X309811Y-190636D01*
X309792Y-190613D01*
X205673Y-86495D01*
X205574Y-86416D01*
X205480Y-86332D01*
X205438Y-86308D01*
X205400Y-86278D01*
X205286Y-86224D01*
X205175Y-86163D01*
X205129Y-86150D01*
X205085Y-86129D01*
X204962Y-86103D01*
X204840Y-86068D01*
X204779Y-86063D01*
X204744Y-86056D01*
X204696Y-86057D01*
X204596Y-86049D01*
X170242Y-86049D01*
X170093Y-86066D01*
X169943Y-86078D01*
X169920Y-86086D01*
X169896Y-86089D01*
X169754Y-86139D01*
X169611Y-86185D01*
X169590Y-86198D01*
X169568Y-86206D01*
X169441Y-86288D01*
X169313Y-86365D01*
X169295Y-86382D01*
X169275Y-86395D01*
X169170Y-86504D01*
X169063Y-86608D01*
X169050Y-86628D01*
X169033Y-86646D01*
X168955Y-86775D01*
X168874Y-86901D01*
X168866Y-86924D01*
X168854Y-86945D01*
X168808Y-87088D01*
X168758Y-87230D01*
X168755Y-87254D01*
X168748Y-87277D01*
X168736Y-87426D01*
X168719Y-87576D01*
X168722Y-87600D01*
X168720Y-87624D01*
X168742Y-87773D01*
X168760Y-87922D01*
X168768Y-87950D01*
X168771Y-87969D01*
X168789Y-88013D01*
X168835Y-88155D01*
X170070Y-91137D01*
X170070Y-94263D01*
X168873Y-97152D01*
X168674Y-97351D01*
X168612Y-97430D01*
X168542Y-97502D01*
X168504Y-97566D01*
X168458Y-97624D01*
X168415Y-97715D01*
X168363Y-97801D01*
X168341Y-97872D01*
X168309Y-97939D01*
X168288Y-98037D01*
X168257Y-98133D01*
X168251Y-98207D01*
X168236Y-98280D01*
X168237Y-98380D01*
X168229Y-98480D01*
X168240Y-98554D01*
X168241Y-98628D01*
X168266Y-98726D01*
X168281Y-98825D01*
X168308Y-98894D01*
X168326Y-98966D01*
X168372Y-99055D01*
X168410Y-99149D01*
X168452Y-99210D01*
X168486Y-99276D01*
X168551Y-99352D01*
X168609Y-99435D01*
X168664Y-99485D01*
X168712Y-99541D01*
X168793Y-99601D01*
X168867Y-99668D01*
X168932Y-99704D01*
X168992Y-99749D01*
X169084Y-99788D01*
X169172Y-99837D01*
X169244Y-99857D01*
X169312Y-99887D01*
X169411Y-99904D01*
X169508Y-99932D01*
X169608Y-99940D01*
X169655Y-99948D01*
X169691Y-99946D01*
X169752Y-99951D01*
X202353Y-99951D01*
X314103Y-211702D01*
X314163Y-211749D01*
X314217Y-211804D01*
X314299Y-211857D01*
X314376Y-211919D01*
X314445Y-211951D01*
X314510Y-211992D01*
X314603Y-212025D01*
X314692Y-212067D01*
X314766Y-212084D01*
X314838Y-212109D01*
X314936Y-212120D01*
X315032Y-212141D01*
X315109Y-212139D01*
X315185Y-212148D01*
X315283Y-212137D01*
X315381Y-212135D01*
X315455Y-212116D01*
X315531Y-212107D01*
X315673Y-212061D01*
X315719Y-212050D01*
X315736Y-212041D01*
X315763Y-212032D01*
X316227Y-211840D01*
X319353Y-211840D01*
X322242Y-213037D01*
X324453Y-215248D01*
X325650Y-218137D01*
X325650Y-221263D01*
X324453Y-224152D01*
X322242Y-226363D01*
X319353Y-227560D01*
X316227Y-227560D01*
X313338Y-226363D01*
X311127Y-224152D01*
X309930Y-221263D01*
X309930Y-218137D01*
X310122Y-217673D01*
X310143Y-217600D01*
X310173Y-217530D01*
X310189Y-217445D01*
X310202Y-217404D01*
X310203Y-217391D01*
X310218Y-217338D01*
X310221Y-217262D01*
X310235Y-217187D01*
X310230Y-217088D01*
X310235Y-216990D01*
X310221Y-216915D01*
X310217Y-216839D01*
X310190Y-216744D01*
X310172Y-216647D01*
X310142Y-216577D01*
X310121Y-216504D01*
X310073Y-216418D01*
X310033Y-216328D01*
X309988Y-216266D01*
X309950Y-216200D01*
X309854Y-216086D01*
X309825Y-216048D01*
X309811Y-216036D01*
X309792Y-216013D01*
X200273Y-106495D01*
X200174Y-106416D01*
X200080Y-106332D01*
X200038Y-106308D01*
X200000Y-106278D01*
X199886Y-106224D01*
X199775Y-106163D01*
X199729Y-106150D01*
X199685Y-106129D01*
X199562Y-106103D01*
X199440Y-106068D01*
X199379Y-106063D01*
X199344Y-106056D01*
X199296Y-106057D01*
X199196Y-106049D01*
X187728Y-106049D01*
X187628Y-106060D01*
X187528Y-106062D01*
X187455Y-106080D01*
X187382Y-106089D01*
X187287Y-106122D01*
X187190Y-106147D01*
X187123Y-106181D01*
X187053Y-106206D01*
X186969Y-106261D01*
X186880Y-106307D01*
X186823Y-106355D01*
X186761Y-106395D01*
X186691Y-106467D01*
X186614Y-106532D01*
X186570Y-106592D01*
X186518Y-106646D01*
X186467Y-106732D01*
X186407Y-106813D01*
X186378Y-106881D01*
X186340Y-106945D01*
X186309Y-107041D01*
X186269Y-107133D01*
X186256Y-107206D01*
X186233Y-107277D01*
X186225Y-107377D01*
X186208Y-107476D01*
X186211Y-107550D01*
X186205Y-107624D01*
X186220Y-107724D01*
X186225Y-107824D01*
X186246Y-107895D01*
X186257Y-107969D01*
X186294Y-108062D01*
X186322Y-108159D01*
X186358Y-108224D01*
X186386Y-108293D01*
X186443Y-108375D01*
X186492Y-108463D01*
X186557Y-108539D01*
X186585Y-108579D01*
X186611Y-108603D01*
X186651Y-108649D01*
X314811Y-236809D01*
X314871Y-236857D01*
X314924Y-236912D01*
X315007Y-236965D01*
X315084Y-237026D01*
X315153Y-237058D01*
X315218Y-237100D01*
X315310Y-237133D01*
X315399Y-237175D01*
X315474Y-237191D01*
X315546Y-237216D01*
X315644Y-237227D01*
X315739Y-237248D01*
X315816Y-237247D01*
X315892Y-237255D01*
X315990Y-237244D01*
X316088Y-237242D01*
X316095Y-237240D01*
X319353Y-237240D01*
X322242Y-238437D01*
X324453Y-240648D01*
X325650Y-243537D01*
X325650Y-246663D01*
X324453Y-249552D01*
X322242Y-251763D01*
X319353Y-252960D01*
X316227Y-252960D01*
X313338Y-251763D01*
X311127Y-249552D01*
X309930Y-246663D01*
X309930Y-243537D01*
X310415Y-242366D01*
X310436Y-242293D01*
X310466Y-242223D01*
X310484Y-242126D01*
X310511Y-242031D01*
X310514Y-241955D01*
X310528Y-241880D01*
X310523Y-241781D01*
X310528Y-241683D01*
X310514Y-241608D01*
X310510Y-241532D01*
X310483Y-241437D01*
X310465Y-241340D01*
X310435Y-241270D01*
X310413Y-241197D01*
X310365Y-241111D01*
X310326Y-241021D01*
X310281Y-240959D01*
X310243Y-240893D01*
X310147Y-240779D01*
X310118Y-240741D01*
X310104Y-240729D01*
X310085Y-240706D01*
X181190Y-111812D01*
X181091Y-111733D01*
X180997Y-111649D01*
X180955Y-111625D01*
X180917Y-111595D01*
X180803Y-111541D01*
X180692Y-111480D01*
X180646Y-111467D01*
X180602Y-111446D01*
X180479Y-111420D01*
X180357Y-111385D01*
X180296Y-111380D01*
X180261Y-111373D01*
X180213Y-111374D01*
X180113Y-111366D01*
X170208Y-111366D01*
X170059Y-111383D01*
X169908Y-111395D01*
X169885Y-111403D01*
X169861Y-111406D01*
X169720Y-111456D01*
X169577Y-111502D01*
X169556Y-111515D01*
X169533Y-111523D01*
X169407Y-111605D01*
X169278Y-111682D01*
X169261Y-111699D01*
X169240Y-111712D01*
X169135Y-111821D01*
X169028Y-111925D01*
X169015Y-111945D01*
X168998Y-111963D01*
X168921Y-112092D01*
X168840Y-112218D01*
X168832Y-112241D01*
X168819Y-112262D01*
X168774Y-112405D01*
X168723Y-112547D01*
X168721Y-112571D01*
X168713Y-112594D01*
X168701Y-112743D01*
X168684Y-112893D01*
X168687Y-112917D01*
X168685Y-112941D01*
X168708Y-113090D01*
X168725Y-113239D01*
X168734Y-113267D01*
X168737Y-113286D01*
X168754Y-113330D01*
X168800Y-113472D01*
X170070Y-116537D01*
X170070Y-119663D01*
X168873Y-122552D01*
X166662Y-124763D01*
X163773Y-125960D01*
X160647Y-125960D01*
X157758Y-124763D01*
X155547Y-122552D01*
X154350Y-119663D01*
X154350Y-116537D01*
X155620Y-113472D01*
X155661Y-113327D01*
X155707Y-113184D01*
X155709Y-113160D01*
X155715Y-113137D01*
X155723Y-112986D01*
X155735Y-112837D01*
X155731Y-112813D01*
X155732Y-112789D01*
X155705Y-112641D01*
X155683Y-112492D01*
X155674Y-112470D01*
X155670Y-112446D01*
X155610Y-112308D01*
X155554Y-112168D01*
X155541Y-112148D01*
X155531Y-112126D01*
X155441Y-112005D01*
X155355Y-111882D01*
X155338Y-111866D01*
X155323Y-111846D01*
X155208Y-111749D01*
X155097Y-111649D01*
X155075Y-111637D01*
X155057Y-111621D01*
X154923Y-111553D01*
X154792Y-111480D01*
X154768Y-111474D01*
X154747Y-111463D01*
X154601Y-111426D01*
X154456Y-111385D01*
X154427Y-111383D01*
X154409Y-111378D01*
X154362Y-111378D01*
X154212Y-111366D01*
X53054Y-111366D01*
X52577Y-110889D01*
X52557Y-110872D01*
X52540Y-110852D01*
X52436Y-110776D01*
X52423Y-110764D01*
X52413Y-110759D01*
X52304Y-110672D01*
X52280Y-110661D01*
X52259Y-110645D01*
X52123Y-110586D01*
X51989Y-110523D01*
X51963Y-110518D01*
X51939Y-110507D01*
X51793Y-110481D01*
X51648Y-110450D01*
X51622Y-110450D01*
X51596Y-110446D01*
X51448Y-110453D01*
X51300Y-110456D01*
X51274Y-110462D01*
X51248Y-110463D01*
X51106Y-110505D01*
X50962Y-110541D01*
X50938Y-110553D01*
X50913Y-110560D01*
X50784Y-110632D01*
X50652Y-110700D01*
X50632Y-110717D01*
X50609Y-110730D01*
X50496Y-110826D01*
X50494Y-110827D01*
X50492Y-110830D01*
X50423Y-110889D01*
X-84605Y-245917D01*
X-86837Y-248149D01*
X-153948Y-248149D01*
X-154024Y-248157D01*
X-154100Y-248156D01*
X-154196Y-248177D01*
X-154294Y-248189D01*
X-154366Y-248214D01*
X-154441Y-248231D01*
X-154529Y-248273D01*
X-154622Y-248306D01*
X-154686Y-248348D01*
X-154755Y-248380D01*
X-154832Y-248442D01*
X-154915Y-248495D01*
X-154968Y-248550D01*
X-155028Y-248598D01*
X-155089Y-248675D01*
X-155157Y-248746D01*
X-155196Y-248811D01*
X-155244Y-248871D01*
X-155312Y-249004D01*
X-155336Y-249045D01*
X-155342Y-249063D01*
X-155355Y-249089D01*
X-155547Y-249552D01*
X-157758Y-251763D01*
X-160647Y-252960D01*
X-163773Y-252960D01*
G37*
%LPD*%
%LPC*%
G36*
X-73973Y-363049D02*
X-73973Y-363049D01*
X-158523Y-278498D01*
X-158583Y-278451D01*
X-158637Y-278396D01*
X-158719Y-278343D01*
X-158796Y-278281D01*
X-158866Y-278249D01*
X-158930Y-278208D01*
X-159023Y-278175D01*
X-159112Y-278133D01*
X-159186Y-278117D01*
X-159258Y-278091D01*
X-159356Y-278080D01*
X-159452Y-278059D01*
X-159529Y-278061D01*
X-159605Y-278052D01*
X-159702Y-278063D01*
X-159801Y-278065D01*
X-159875Y-278084D01*
X-159951Y-278093D01*
X-160093Y-278139D01*
X-160139Y-278150D01*
X-160156Y-278159D01*
X-160184Y-278168D01*
X-160647Y-278360D01*
X-163773Y-278360D01*
X-166662Y-277163D01*
X-168873Y-274952D01*
X-170070Y-272063D01*
X-170070Y-268937D01*
X-168873Y-266048D01*
X-166662Y-263837D01*
X-163773Y-262640D01*
X-160647Y-262640D01*
X-157758Y-263837D01*
X-155547Y-266048D01*
X-154350Y-268937D01*
X-154350Y-272063D01*
X-154542Y-272526D01*
X-154563Y-272600D01*
X-154593Y-272670D01*
X-154611Y-272767D01*
X-154638Y-272862D01*
X-154641Y-272938D01*
X-154655Y-273013D01*
X-154650Y-273112D01*
X-154655Y-273210D01*
X-154641Y-273285D01*
X-154637Y-273361D01*
X-154610Y-273456D01*
X-154592Y-273553D01*
X-154562Y-273623D01*
X-154541Y-273696D01*
X-154492Y-273782D01*
X-154453Y-273872D01*
X-154408Y-273934D01*
X-154370Y-274000D01*
X-154274Y-274114D01*
X-154245Y-274152D01*
X-154231Y-274164D01*
X-154212Y-274187D01*
X-71893Y-356505D01*
X-71794Y-356584D01*
X-71700Y-356668D01*
X-71658Y-356692D01*
X-71620Y-356722D01*
X-71506Y-356776D01*
X-71395Y-356837D01*
X-71349Y-356850D01*
X-71305Y-356871D01*
X-71182Y-356897D01*
X-71060Y-356932D01*
X-70999Y-356937D01*
X-70964Y-356944D01*
X-70916Y-356943D01*
X-70816Y-356951D01*
X226396Y-356951D01*
X226522Y-356937D01*
X226648Y-356930D01*
X226694Y-356917D01*
X226742Y-356911D01*
X226861Y-356869D01*
X226983Y-356834D01*
X227025Y-356810D01*
X227071Y-356794D01*
X227177Y-356725D01*
X227287Y-356664D01*
X227333Y-356624D01*
X227363Y-356605D01*
X227397Y-356570D01*
X227473Y-356505D01*
X309792Y-274187D01*
X309839Y-274127D01*
X309894Y-274073D01*
X309947Y-273991D01*
X310009Y-273914D01*
X310041Y-273844D01*
X310082Y-273780D01*
X310115Y-273687D01*
X310157Y-273598D01*
X310173Y-273524D01*
X310199Y-273452D01*
X310210Y-273354D01*
X310231Y-273258D01*
X310229Y-273181D01*
X310238Y-273105D01*
X310227Y-273008D01*
X310225Y-272909D01*
X310206Y-272835D01*
X310197Y-272759D01*
X310151Y-272617D01*
X310140Y-272571D01*
X310131Y-272554D01*
X310122Y-272526D01*
X309930Y-272063D01*
X309930Y-268937D01*
X311127Y-266048D01*
X313338Y-263837D01*
X316227Y-262640D01*
X319353Y-262640D01*
X322242Y-263837D01*
X324453Y-266048D01*
X325650Y-268937D01*
X325650Y-272063D01*
X324453Y-274952D01*
X322242Y-277163D01*
X319353Y-278360D01*
X316227Y-278360D01*
X315764Y-278168D01*
X315690Y-278147D01*
X315620Y-278117D01*
X315523Y-278099D01*
X315428Y-278072D01*
X315352Y-278069D01*
X315277Y-278055D01*
X315178Y-278060D01*
X315080Y-278055D01*
X315005Y-278069D01*
X314929Y-278073D01*
X314834Y-278100D01*
X314737Y-278118D01*
X314667Y-278148D01*
X314594Y-278169D01*
X314508Y-278218D01*
X314418Y-278257D01*
X314356Y-278302D01*
X314290Y-278340D01*
X314176Y-278436D01*
X314138Y-278465D01*
X314126Y-278479D01*
X314103Y-278498D01*
X229553Y-363049D01*
X-73973Y-363049D01*
G37*
%LPD*%
%LPC*%
G36*
X-89373Y-373049D02*
X-89373Y-373049D01*
X-158523Y-303898D01*
X-158583Y-303851D01*
X-158637Y-303796D01*
X-158719Y-303743D01*
X-158796Y-303681D01*
X-158866Y-303649D01*
X-158930Y-303608D01*
X-159023Y-303575D01*
X-159112Y-303533D01*
X-159186Y-303517D01*
X-159258Y-303491D01*
X-159356Y-303480D01*
X-159452Y-303459D01*
X-159529Y-303461D01*
X-159605Y-303452D01*
X-159702Y-303463D01*
X-159801Y-303465D01*
X-159875Y-303484D01*
X-159951Y-303493D01*
X-160093Y-303539D01*
X-160139Y-303550D01*
X-160156Y-303559D01*
X-160184Y-303568D01*
X-160647Y-303760D01*
X-163773Y-303760D01*
X-166662Y-302563D01*
X-168873Y-300352D01*
X-170070Y-297463D01*
X-170070Y-294337D01*
X-168873Y-291448D01*
X-166662Y-289237D01*
X-163773Y-288040D01*
X-160647Y-288040D01*
X-157758Y-289237D01*
X-155547Y-291448D01*
X-154350Y-294337D01*
X-154350Y-297463D01*
X-154542Y-297926D01*
X-154563Y-298000D01*
X-154593Y-298070D01*
X-154611Y-298167D01*
X-154638Y-298262D01*
X-154641Y-298338D01*
X-154655Y-298413D01*
X-154650Y-298512D01*
X-154655Y-298610D01*
X-154641Y-298685D01*
X-154637Y-298761D01*
X-154610Y-298856D01*
X-154592Y-298953D01*
X-154562Y-299023D01*
X-154541Y-299096D01*
X-154492Y-299182D01*
X-154453Y-299272D01*
X-154408Y-299334D01*
X-154370Y-299400D01*
X-154274Y-299514D01*
X-154245Y-299552D01*
X-154231Y-299564D01*
X-154212Y-299587D01*
X-87293Y-366505D01*
X-87194Y-366584D01*
X-87100Y-366668D01*
X-87058Y-366692D01*
X-87020Y-366722D01*
X-86906Y-366776D01*
X-86795Y-366837D01*
X-86749Y-366850D01*
X-86705Y-366871D01*
X-86582Y-366897D01*
X-86460Y-366932D01*
X-86399Y-366937D01*
X-86364Y-366944D01*
X-86316Y-366943D01*
X-86216Y-366951D01*
X241796Y-366951D01*
X241922Y-366937D01*
X242048Y-366930D01*
X242094Y-366917D01*
X242142Y-366911D01*
X242261Y-366869D01*
X242383Y-366834D01*
X242425Y-366810D01*
X242471Y-366794D01*
X242577Y-366725D01*
X242687Y-366664D01*
X242733Y-366624D01*
X242763Y-366605D01*
X242797Y-366570D01*
X242873Y-366505D01*
X309792Y-299587D01*
X309839Y-299527D01*
X309894Y-299473D01*
X309947Y-299391D01*
X310009Y-299314D01*
X310041Y-299244D01*
X310082Y-299180D01*
X310115Y-299087D01*
X310157Y-298998D01*
X310173Y-298924D01*
X310199Y-298852D01*
X310210Y-298754D01*
X310231Y-298658D01*
X310229Y-298581D01*
X310238Y-298505D01*
X310227Y-298408D01*
X310225Y-298309D01*
X310206Y-298235D01*
X310197Y-298159D01*
X310151Y-298017D01*
X310140Y-297971D01*
X310131Y-297954D01*
X310122Y-297926D01*
X309930Y-297463D01*
X309930Y-294337D01*
X311127Y-291448D01*
X313338Y-289237D01*
X316227Y-288040D01*
X319353Y-288040D01*
X322242Y-289237D01*
X324453Y-291448D01*
X325650Y-294337D01*
X325650Y-297463D01*
X324453Y-300352D01*
X322242Y-302563D01*
X319353Y-303760D01*
X316227Y-303760D01*
X315764Y-303568D01*
X315690Y-303547D01*
X315620Y-303517D01*
X315523Y-303499D01*
X315428Y-303472D01*
X315352Y-303469D01*
X315277Y-303455D01*
X315178Y-303460D01*
X315080Y-303455D01*
X315005Y-303469D01*
X314929Y-303473D01*
X314834Y-303500D01*
X314737Y-303518D01*
X314667Y-303548D01*
X314594Y-303569D01*
X314508Y-303618D01*
X314418Y-303657D01*
X314356Y-303702D01*
X314290Y-303740D01*
X314176Y-303836D01*
X314138Y-303865D01*
X314126Y-303879D01*
X314103Y-303898D01*
X244953Y-373049D01*
X-89373Y-373049D01*
G37*
%LPD*%
%LPC*%
G36*
X404169Y592725D02*
X404169Y592725D01*
X396166Y596040D01*
X390040Y602166D01*
X386725Y610169D01*
X386725Y618831D01*
X390040Y626834D01*
X396166Y632960D01*
X404169Y636275D01*
X412831Y636275D01*
X420834Y632960D01*
X426960Y626834D01*
X430275Y618831D01*
X430275Y610169D01*
X426960Y602166D01*
X420834Y596040D01*
X412831Y592725D01*
X404169Y592725D01*
G37*
%LPD*%
%LPC*%
G36*
X-389121Y592725D02*
X-389121Y592725D01*
X-397124Y596040D01*
X-403250Y602166D01*
X-406565Y610169D01*
X-406565Y618831D01*
X-403250Y626834D01*
X-397124Y632960D01*
X-389121Y636275D01*
X-380459Y636275D01*
X-372456Y632960D01*
X-366330Y626834D01*
X-363015Y618831D01*
X-363015Y610169D01*
X-366330Y602166D01*
X-372456Y596040D01*
X-380459Y592725D01*
X-389121Y592725D01*
G37*
%LPD*%
%LPC*%
G36*
X404169Y202725D02*
X404169Y202725D01*
X396166Y206040D01*
X390040Y212166D01*
X386725Y220169D01*
X386725Y228831D01*
X390040Y236834D01*
X396166Y242960D01*
X404169Y246275D01*
X412831Y246275D01*
X420834Y242960D01*
X426960Y236834D01*
X430275Y228831D01*
X430275Y220169D01*
X426960Y212166D01*
X420834Y206040D01*
X412831Y202725D01*
X404169Y202725D01*
G37*
%LPD*%
%LPC*%
G36*
X-389121Y202725D02*
X-389121Y202725D01*
X-397124Y206040D01*
X-403250Y212166D01*
X-406565Y220169D01*
X-406565Y228831D01*
X-403250Y236834D01*
X-397124Y242960D01*
X-389121Y246275D01*
X-380459Y246275D01*
X-372456Y242960D01*
X-366330Y236834D01*
X-363015Y228831D01*
X-363015Y220169D01*
X-366330Y212166D01*
X-372456Y206040D01*
X-380459Y202725D01*
X-389121Y202725D01*
G37*
%LPD*%
%LPC*%
G36*
X21258Y114189D02*
X21258Y114189D01*
X14345Y117053D01*
X9053Y122345D01*
X6189Y129258D01*
X6189Y136742D01*
X9053Y143655D01*
X14345Y148947D01*
X21258Y151811D01*
X28742Y151811D01*
X35655Y148947D01*
X40947Y143655D01*
X43811Y136742D01*
X43811Y129258D01*
X40947Y122345D01*
X35655Y117053D01*
X28742Y114189D01*
X21258Y114189D01*
G37*
%LPD*%
%LPC*%
G36*
X-142742Y-380811D02*
X-142742Y-380811D01*
X-149655Y-377947D01*
X-154947Y-372655D01*
X-157811Y-365742D01*
X-157811Y-358258D01*
X-154947Y-351345D01*
X-149655Y-346053D01*
X-142742Y-343189D01*
X-135258Y-343189D01*
X-128345Y-346053D01*
X-123053Y-351345D01*
X-120189Y-358258D01*
X-120189Y-365742D01*
X-123053Y-372655D01*
X-128345Y-377947D01*
X-135258Y-380811D01*
X-142742Y-380811D01*
G37*
%LPD*%
%LPC*%
G36*
X408258Y-235811D02*
X408258Y-235811D01*
X401345Y-232947D01*
X396053Y-227655D01*
X393189Y-220742D01*
X393189Y-213258D01*
X396053Y-206345D01*
X401345Y-201053D01*
X408258Y-198189D01*
X415742Y-198189D01*
X422655Y-201053D01*
X427947Y-206345D01*
X430811Y-213258D01*
X430811Y-220742D01*
X427947Y-227655D01*
X422655Y-232947D01*
X415742Y-235811D01*
X408258Y-235811D01*
G37*
%LPD*%
%LPC*%
G36*
X-394742Y156189D02*
X-394742Y156189D01*
X-401655Y159053D01*
X-406947Y164345D01*
X-409811Y171258D01*
X-409811Y178742D01*
X-406947Y185655D01*
X-401655Y190947D01*
X-394742Y193811D01*
X-387258Y193811D01*
X-380345Y190947D01*
X-375053Y185655D01*
X-372189Y178742D01*
X-372189Y171258D01*
X-375053Y164345D01*
X-380345Y159053D01*
X-387258Y156189D01*
X-394742Y156189D01*
G37*
%LPD*%
%LPC*%
G36*
X70561Y126555D02*
X70561Y126555D01*
X67200Y127948D01*
X64628Y130520D01*
X63235Y133881D01*
X63235Y137519D01*
X64628Y140880D01*
X67200Y143452D01*
X70561Y144845D01*
X89439Y144845D01*
X92800Y143452D01*
X95373Y140880D01*
X95866Y139689D01*
X95903Y139622D01*
X95931Y139551D01*
X95987Y139470D01*
X96035Y139384D01*
X96087Y139328D01*
X96130Y139265D01*
X96203Y139199D01*
X96269Y139126D01*
X96332Y139083D01*
X96389Y139032D01*
X96475Y138984D01*
X96556Y138928D01*
X96627Y138900D01*
X96694Y138863D01*
X96789Y138836D01*
X96880Y138800D01*
X96956Y138789D01*
X97029Y138768D01*
X97178Y138756D01*
X97225Y138749D01*
X97244Y138751D01*
X97273Y138749D01*
X153865Y138749D01*
X153941Y138757D01*
X154017Y138756D01*
X154113Y138777D01*
X154211Y138789D01*
X154283Y138814D01*
X154358Y138831D01*
X154446Y138873D01*
X154539Y138906D01*
X154604Y138948D01*
X154672Y138980D01*
X154749Y139042D01*
X154832Y139095D01*
X154885Y139150D01*
X154945Y139198D01*
X155006Y139275D01*
X155074Y139346D01*
X155113Y139411D01*
X155161Y139471D01*
X155229Y139604D01*
X155253Y139645D01*
X155259Y139663D01*
X155272Y139689D01*
X155547Y140352D01*
X157758Y142563D01*
X160647Y143760D01*
X163773Y143760D01*
X166662Y142563D01*
X168873Y140352D01*
X170070Y137463D01*
X170070Y134337D01*
X168873Y131448D01*
X166662Y129237D01*
X163773Y128040D01*
X160647Y128040D01*
X157758Y129237D01*
X155547Y131448D01*
X155438Y131711D01*
X155401Y131778D01*
X155372Y131849D01*
X155316Y131930D01*
X155269Y132016D01*
X155217Y132072D01*
X155174Y132135D01*
X155101Y132201D01*
X155034Y132274D01*
X154971Y132317D01*
X154915Y132368D01*
X154829Y132416D01*
X154748Y132472D01*
X154677Y132500D01*
X154610Y132537D01*
X154515Y132564D01*
X154424Y132600D01*
X154348Y132611D01*
X154274Y132632D01*
X154125Y132644D01*
X154079Y132651D01*
X154060Y132649D01*
X154031Y132651D01*
X97273Y132651D01*
X97197Y132643D01*
X97121Y132644D01*
X97025Y132623D01*
X96927Y132611D01*
X96855Y132586D01*
X96780Y132569D01*
X96692Y132527D01*
X96599Y132494D01*
X96535Y132452D01*
X96466Y132420D01*
X96389Y132358D01*
X96306Y132305D01*
X96253Y132250D01*
X96193Y132202D01*
X96132Y132125D01*
X96064Y132054D01*
X96025Y131989D01*
X95977Y131929D01*
X95909Y131795D01*
X95885Y131755D01*
X95879Y131737D01*
X95866Y131711D01*
X95373Y130520D01*
X92800Y127948D01*
X89439Y126555D01*
X70561Y126555D01*
G37*
%LPD*%
%LPC*%
G36*
X71775Y-309175D02*
X71775Y-309175D01*
X68403Y-307778D01*
X65822Y-305197D01*
X64425Y-301825D01*
X64425Y-298175D01*
X65822Y-294803D01*
X68403Y-292222D01*
X69611Y-291722D01*
X69678Y-291685D01*
X69749Y-291656D01*
X69830Y-291600D01*
X69916Y-291552D01*
X69972Y-291501D01*
X70035Y-291457D01*
X70101Y-291384D01*
X70174Y-291318D01*
X70217Y-291255D01*
X70268Y-291199D01*
X70316Y-291112D01*
X70372Y-291032D01*
X70400Y-290960D01*
X70437Y-290894D01*
X70464Y-290799D01*
X70500Y-290707D01*
X70511Y-290632D01*
X70532Y-290558D01*
X70544Y-290409D01*
X70551Y-290363D01*
X70549Y-290343D01*
X70551Y-290314D01*
X70551Y-286737D01*
X89837Y-267451D01*
X153948Y-267451D01*
X154024Y-267443D01*
X154100Y-267444D01*
X154196Y-267423D01*
X154294Y-267411D01*
X154366Y-267386D01*
X154441Y-267369D01*
X154529Y-267327D01*
X154622Y-267294D01*
X154686Y-267252D01*
X154755Y-267220D01*
X154832Y-267158D01*
X154915Y-267105D01*
X154968Y-267050D01*
X155028Y-267002D01*
X155089Y-266925D01*
X155157Y-266854D01*
X155196Y-266789D01*
X155244Y-266729D01*
X155312Y-266596D01*
X155336Y-266555D01*
X155342Y-266537D01*
X155355Y-266511D01*
X155547Y-266048D01*
X157758Y-263837D01*
X160647Y-262640D01*
X163773Y-262640D01*
X166662Y-263837D01*
X168873Y-266048D01*
X170070Y-268937D01*
X170070Y-272063D01*
X168873Y-274952D01*
X166662Y-277163D01*
X163773Y-278360D01*
X160647Y-278360D01*
X157758Y-277163D01*
X155547Y-274952D01*
X155355Y-274489D01*
X155318Y-274422D01*
X155290Y-274351D01*
X155234Y-274270D01*
X155186Y-274184D01*
X155134Y-274128D01*
X155091Y-274065D01*
X155018Y-273999D01*
X154952Y-273926D01*
X154889Y-273883D01*
X154832Y-273832D01*
X154746Y-273784D01*
X154665Y-273728D01*
X154594Y-273700D01*
X154527Y-273663D01*
X154432Y-273636D01*
X154341Y-273600D01*
X154265Y-273589D01*
X154191Y-273568D01*
X154043Y-273556D01*
X153996Y-273549D01*
X153977Y-273551D01*
X153948Y-273549D01*
X92994Y-273549D01*
X92868Y-273563D01*
X92742Y-273570D01*
X92696Y-273583D01*
X92648Y-273589D01*
X92529Y-273631D01*
X92407Y-273666D01*
X92365Y-273690D01*
X92319Y-273706D01*
X92213Y-273775D01*
X92103Y-273836D01*
X92057Y-273876D01*
X92027Y-273895D01*
X91993Y-273930D01*
X91917Y-273995D01*
X77095Y-288817D01*
X77016Y-288916D01*
X76932Y-289010D01*
X76908Y-289052D01*
X76878Y-289090D01*
X76824Y-289204D01*
X76763Y-289315D01*
X76750Y-289361D01*
X76729Y-289405D01*
X76703Y-289528D01*
X76668Y-289650D01*
X76663Y-289711D01*
X76656Y-289746D01*
X76657Y-289794D01*
X76649Y-289894D01*
X76649Y-290314D01*
X76657Y-290390D01*
X76656Y-290467D01*
X76677Y-290563D01*
X76689Y-290661D01*
X76714Y-290733D01*
X76731Y-290807D01*
X76773Y-290896D01*
X76806Y-290989D01*
X76848Y-291053D01*
X76880Y-291122D01*
X76942Y-291199D01*
X76995Y-291281D01*
X77050Y-291335D01*
X77098Y-291394D01*
X77175Y-291455D01*
X77246Y-291524D01*
X77311Y-291563D01*
X77371Y-291610D01*
X77504Y-291678D01*
X77545Y-291703D01*
X77563Y-291708D01*
X77589Y-291722D01*
X78797Y-292222D01*
X81378Y-294803D01*
X82775Y-298175D01*
X82775Y-301825D01*
X81378Y-305197D01*
X78797Y-307778D01*
X75425Y-309175D01*
X71775Y-309175D01*
G37*
%LPD*%
%LPC*%
G36*
X24161Y-313275D02*
X24161Y-313275D01*
X18914Y-311102D01*
X14898Y-307086D01*
X12725Y-301839D01*
X12725Y-296161D01*
X14898Y-290914D01*
X18914Y-286898D01*
X24161Y-284725D01*
X29839Y-284725D01*
X35086Y-286898D01*
X39102Y-290914D01*
X41275Y-296161D01*
X41275Y-301839D01*
X39102Y-307086D01*
X35086Y-311102D01*
X29839Y-313275D01*
X24161Y-313275D01*
G37*
%LPD*%
%LPC*%
G36*
X-2839Y-338275D02*
X-2839Y-338275D01*
X-8086Y-336102D01*
X-12102Y-332086D01*
X-14275Y-326839D01*
X-14275Y-321161D01*
X-12102Y-315914D01*
X-8086Y-311898D01*
X-2839Y-309725D01*
X2839Y-309725D01*
X8086Y-311898D01*
X12102Y-315914D01*
X14275Y-321161D01*
X14275Y-326839D01*
X12102Y-332086D01*
X8086Y-336102D01*
X2839Y-338275D01*
X-2839Y-338275D01*
G37*
%LPD*%
%LPC*%
G36*
X-385439Y-280145D02*
X-385439Y-280145D01*
X-388800Y-278752D01*
X-391372Y-276180D01*
X-392765Y-272819D01*
X-392765Y-269181D01*
X-391372Y-265820D01*
X-388800Y-263248D01*
X-385439Y-261855D01*
X-366561Y-261855D01*
X-363200Y-263248D01*
X-360628Y-265820D01*
X-359235Y-269181D01*
X-359235Y-272819D01*
X-360628Y-276180D01*
X-363200Y-278752D01*
X-366561Y-280145D01*
X-385439Y-280145D01*
G37*
%LPD*%
%LPC*%
G36*
X70561Y101155D02*
X70561Y101155D01*
X67200Y102548D01*
X64628Y105120D01*
X63235Y108481D01*
X63235Y112119D01*
X64628Y115480D01*
X67200Y118052D01*
X70561Y119445D01*
X89439Y119445D01*
X92800Y118052D01*
X95372Y115480D01*
X96765Y112119D01*
X96765Y108481D01*
X95372Y105120D01*
X92800Y102548D01*
X89439Y101155D01*
X70561Y101155D01*
G37*
%LPD*%
%LPC*%
G36*
X-385439Y-229345D02*
X-385439Y-229345D01*
X-388800Y-227952D01*
X-391372Y-225380D01*
X-392765Y-222019D01*
X-392765Y-218381D01*
X-391372Y-215020D01*
X-388800Y-212448D01*
X-385439Y-211055D01*
X-366561Y-211055D01*
X-363200Y-212448D01*
X-360628Y-215020D01*
X-359235Y-218381D01*
X-359235Y-222019D01*
X-360628Y-225380D01*
X-363200Y-227952D01*
X-366561Y-229345D01*
X-385439Y-229345D01*
G37*
%LPD*%
%LPC*%
G36*
X-385439Y-254745D02*
X-385439Y-254745D01*
X-388800Y-253352D01*
X-391372Y-250780D01*
X-392765Y-247419D01*
X-392765Y-243781D01*
X-391372Y-240420D01*
X-388800Y-237848D01*
X-385439Y-236455D01*
X-366561Y-236455D01*
X-363200Y-237848D01*
X-360628Y-240420D01*
X-359235Y-243781D01*
X-359235Y-247419D01*
X-360628Y-250780D01*
X-363200Y-253352D01*
X-366561Y-254745D01*
X-385439Y-254745D01*
G37*
%LPD*%
%LPC*%
G36*
X-385439Y-356345D02*
X-385439Y-356345D01*
X-388800Y-354952D01*
X-391372Y-352380D01*
X-392765Y-349019D01*
X-392765Y-345381D01*
X-391372Y-342020D01*
X-388800Y-339448D01*
X-385439Y-338055D01*
X-366561Y-338055D01*
X-363200Y-339448D01*
X-360628Y-342020D01*
X-359235Y-345381D01*
X-359235Y-349019D01*
X-360628Y-352380D01*
X-363200Y-354952D01*
X-366561Y-356345D01*
X-385439Y-356345D01*
G37*
%LPD*%
%LPC*%
G36*
X-385439Y-330945D02*
X-385439Y-330945D01*
X-388800Y-329552D01*
X-391372Y-326980D01*
X-392765Y-323619D01*
X-392765Y-319981D01*
X-391372Y-316620D01*
X-388800Y-314048D01*
X-385439Y-312655D01*
X-366561Y-312655D01*
X-363200Y-314048D01*
X-360628Y-316620D01*
X-359235Y-319981D01*
X-359235Y-323619D01*
X-360628Y-326980D01*
X-363200Y-329552D01*
X-366561Y-330945D01*
X-385439Y-330945D01*
G37*
%LPD*%
%LPC*%
G36*
X-385439Y-305545D02*
X-385439Y-305545D01*
X-388800Y-304152D01*
X-391372Y-301580D01*
X-392765Y-298219D01*
X-392765Y-294581D01*
X-391372Y-291220D01*
X-388800Y-288648D01*
X-385439Y-287255D01*
X-366561Y-287255D01*
X-363200Y-288648D01*
X-360628Y-291220D01*
X-359235Y-294581D01*
X-359235Y-298219D01*
X-360628Y-301580D01*
X-363200Y-304152D01*
X-366561Y-305545D01*
X-385439Y-305545D01*
G37*
%LPD*%
%LPC*%
G36*
X388455Y54935D02*
X388455Y54935D01*
X385602Y56117D01*
X383417Y58302D01*
X382235Y61155D01*
X382235Y64245D01*
X383417Y67098D01*
X384292Y67973D01*
X384308Y67993D01*
X384328Y68010D01*
X384416Y68129D01*
X384509Y68246D01*
X384520Y68270D01*
X384535Y68291D01*
X384594Y68427D01*
X384657Y68561D01*
X384663Y68587D01*
X384673Y68611D01*
X384700Y68757D01*
X384731Y68902D01*
X384730Y68928D01*
X384735Y68954D01*
X384727Y69102D01*
X384725Y69250D01*
X384718Y69276D01*
X384717Y69302D01*
X384676Y69444D01*
X384640Y69588D01*
X384628Y69611D01*
X384621Y69637D01*
X384548Y69766D01*
X384480Y69898D01*
X384463Y69918D01*
X384450Y69941D01*
X384292Y70127D01*
X383417Y71002D01*
X382235Y73855D01*
X382235Y76945D01*
X383417Y79798D01*
X384292Y80673D01*
X384308Y80693D01*
X384328Y80710D01*
X384416Y80829D01*
X384509Y80946D01*
X384520Y80970D01*
X384535Y80991D01*
X384594Y81127D01*
X384657Y81261D01*
X384663Y81287D01*
X384673Y81311D01*
X384700Y81457D01*
X384731Y81602D01*
X384730Y81628D01*
X384735Y81654D01*
X384727Y81802D01*
X384725Y81950D01*
X384718Y81976D01*
X384717Y82002D01*
X384676Y82144D01*
X384640Y82288D01*
X384628Y82311D01*
X384621Y82337D01*
X384548Y82466D01*
X384480Y82598D01*
X384463Y82618D01*
X384450Y82641D01*
X384292Y82827D01*
X383417Y83702D01*
X382235Y86555D01*
X382235Y89645D01*
X383417Y92498D01*
X385602Y94683D01*
X388455Y95865D01*
X391545Y95865D01*
X394398Y94683D01*
X396583Y92498D01*
X397765Y89645D01*
X397765Y86555D01*
X396583Y83702D01*
X395708Y82827D01*
X395692Y82807D01*
X395672Y82790D01*
X395584Y82670D01*
X395491Y82554D01*
X395480Y82530D01*
X395465Y82509D01*
X395406Y82373D01*
X395343Y82239D01*
X395337Y82213D01*
X395327Y82189D01*
X395300Y82043D01*
X395269Y81898D01*
X395270Y81872D01*
X395265Y81846D01*
X395273Y81698D01*
X395275Y81550D01*
X395282Y81524D01*
X395283Y81498D01*
X395324Y81356D01*
X395360Y81212D01*
X395372Y81188D01*
X395379Y81163D01*
X395452Y81034D01*
X395520Y80902D01*
X395537Y80882D01*
X395550Y80859D01*
X395708Y80673D01*
X396583Y79798D01*
X397765Y76945D01*
X397765Y73855D01*
X396583Y71002D01*
X395708Y70127D01*
X395692Y70107D01*
X395672Y70090D01*
X395584Y69970D01*
X395491Y69854D01*
X395480Y69830D01*
X395465Y69809D01*
X395406Y69673D01*
X395343Y69539D01*
X395337Y69513D01*
X395327Y69489D01*
X395300Y69343D01*
X395269Y69198D01*
X395270Y69172D01*
X395265Y69146D01*
X395273Y68998D01*
X395275Y68850D01*
X395282Y68824D01*
X395283Y68798D01*
X395324Y68656D01*
X395360Y68512D01*
X395372Y68488D01*
X395379Y68463D01*
X395452Y68334D01*
X395520Y68202D01*
X395537Y68182D01*
X395550Y68159D01*
X395708Y67973D01*
X396583Y67098D01*
X397765Y64245D01*
X397765Y61155D01*
X396583Y58302D01*
X394398Y56117D01*
X391545Y54935D01*
X388455Y54935D01*
G37*
%LPD*%
%LPC*%
G36*
X388455Y145935D02*
X388455Y145935D01*
X385602Y147117D01*
X383417Y149302D01*
X382235Y152155D01*
X382235Y155245D01*
X383417Y158098D01*
X384292Y158973D01*
X384308Y158993D01*
X384328Y159010D01*
X384416Y159129D01*
X384509Y159246D01*
X384520Y159270D01*
X384535Y159291D01*
X384594Y159427D01*
X384657Y159561D01*
X384663Y159587D01*
X384673Y159611D01*
X384700Y159757D01*
X384731Y159902D01*
X384730Y159928D01*
X384735Y159954D01*
X384727Y160102D01*
X384725Y160250D01*
X384718Y160276D01*
X384717Y160302D01*
X384676Y160444D01*
X384640Y160588D01*
X384628Y160611D01*
X384621Y160637D01*
X384548Y160766D01*
X384480Y160898D01*
X384463Y160918D01*
X384450Y160941D01*
X384292Y161127D01*
X383417Y162002D01*
X382235Y164855D01*
X382235Y167945D01*
X383417Y170798D01*
X384292Y171673D01*
X384308Y171693D01*
X384328Y171710D01*
X384416Y171829D01*
X384509Y171946D01*
X384520Y171970D01*
X384535Y171991D01*
X384594Y172127D01*
X384657Y172261D01*
X384663Y172287D01*
X384673Y172311D01*
X384700Y172457D01*
X384731Y172602D01*
X384730Y172628D01*
X384735Y172654D01*
X384727Y172802D01*
X384725Y172950D01*
X384718Y172976D01*
X384717Y173002D01*
X384676Y173144D01*
X384640Y173288D01*
X384628Y173311D01*
X384621Y173337D01*
X384548Y173466D01*
X384480Y173598D01*
X384463Y173618D01*
X384450Y173641D01*
X384292Y173827D01*
X383417Y174702D01*
X382235Y177555D01*
X382235Y180645D01*
X383417Y183498D01*
X385602Y185683D01*
X388455Y186865D01*
X391545Y186865D01*
X394398Y185683D01*
X396583Y183498D01*
X397765Y180645D01*
X397765Y177555D01*
X396583Y174702D01*
X395708Y173827D01*
X395692Y173807D01*
X395672Y173790D01*
X395584Y173670D01*
X395491Y173554D01*
X395480Y173530D01*
X395465Y173509D01*
X395406Y173373D01*
X395343Y173239D01*
X395337Y173213D01*
X395327Y173189D01*
X395300Y173043D01*
X395269Y172898D01*
X395270Y172872D01*
X395265Y172846D01*
X395273Y172698D01*
X395275Y172550D01*
X395282Y172524D01*
X395283Y172498D01*
X395324Y172356D01*
X395360Y172212D01*
X395372Y172188D01*
X395379Y172163D01*
X395452Y172034D01*
X395520Y171902D01*
X395537Y171882D01*
X395550Y171859D01*
X395708Y171673D01*
X396583Y170798D01*
X397765Y167945D01*
X397765Y164855D01*
X396583Y162002D01*
X395708Y161127D01*
X395692Y161107D01*
X395672Y161090D01*
X395584Y160970D01*
X395491Y160854D01*
X395480Y160830D01*
X395465Y160809D01*
X395406Y160673D01*
X395343Y160539D01*
X395337Y160513D01*
X395327Y160489D01*
X395300Y160343D01*
X395269Y160198D01*
X395270Y160172D01*
X395265Y160146D01*
X395273Y159998D01*
X395275Y159850D01*
X395282Y159824D01*
X395283Y159798D01*
X395324Y159656D01*
X395360Y159512D01*
X395372Y159488D01*
X395379Y159463D01*
X395452Y159334D01*
X395520Y159202D01*
X395537Y159182D01*
X395550Y159159D01*
X395708Y158973D01*
X396583Y158098D01*
X397765Y155245D01*
X397765Y152155D01*
X396583Y149302D01*
X394398Y147117D01*
X391545Y145935D01*
X388455Y145935D01*
G37*
%LPD*%
%LPC*%
G36*
X-126293Y614055D02*
X-126293Y614055D01*
X-130162Y615658D01*
X-133122Y618618D01*
X-134725Y622487D01*
X-134725Y626673D01*
X-133122Y630542D01*
X-130162Y633502D01*
X-126293Y635105D01*
X-122107Y635105D01*
X-118238Y633502D01*
X-115278Y630542D01*
X-113675Y626673D01*
X-113675Y622487D01*
X-115278Y618618D01*
X-118238Y615658D01*
X-122107Y614055D01*
X-126293Y614055D01*
G37*
%LPD*%
%LPC*%
G36*
X-177093Y614055D02*
X-177093Y614055D01*
X-180962Y615658D01*
X-183922Y618618D01*
X-185525Y622487D01*
X-185525Y626673D01*
X-183922Y630542D01*
X-180962Y633502D01*
X-177093Y635105D01*
X-172907Y635105D01*
X-169038Y633502D01*
X-166078Y630542D01*
X-164475Y626673D01*
X-164475Y622487D01*
X-166078Y618618D01*
X-169038Y615658D01*
X-172907Y614055D01*
X-177093Y614055D01*
G37*
%LPD*%
%LPC*%
G36*
X-151693Y614055D02*
X-151693Y614055D01*
X-155562Y615658D01*
X-158522Y618618D01*
X-160125Y622487D01*
X-160125Y626673D01*
X-158522Y630542D01*
X-155562Y633502D01*
X-151693Y635105D01*
X-147507Y635105D01*
X-143638Y633502D01*
X-140678Y630542D01*
X-139075Y626673D01*
X-139075Y622487D01*
X-140678Y618618D01*
X-143638Y615658D01*
X-147507Y614055D01*
X-151693Y614055D01*
G37*
%LPD*%
%LPC*%
G36*
X-202493Y614055D02*
X-202493Y614055D01*
X-206362Y615658D01*
X-209322Y618618D01*
X-210925Y622487D01*
X-210925Y626673D01*
X-209322Y630542D01*
X-206362Y633502D01*
X-202493Y635105D01*
X-198307Y635105D01*
X-194438Y633502D01*
X-191478Y630542D01*
X-189875Y626673D01*
X-189875Y622487D01*
X-191478Y618618D01*
X-194438Y615658D01*
X-198307Y614055D01*
X-202493Y614055D01*
G37*
%LPD*%
%LPC*%
G36*
X-227893Y614055D02*
X-227893Y614055D01*
X-231762Y615658D01*
X-234722Y618618D01*
X-236325Y622487D01*
X-236325Y626673D01*
X-234722Y630542D01*
X-231762Y633502D01*
X-227893Y635105D01*
X-223707Y635105D01*
X-219838Y633502D01*
X-216878Y630542D01*
X-215275Y626673D01*
X-215275Y622487D01*
X-216878Y618618D01*
X-219838Y615658D01*
X-223707Y614055D01*
X-227893Y614055D01*
G37*
%LPD*%
%LPC*%
G36*
X-278693Y614055D02*
X-278693Y614055D01*
X-282562Y615658D01*
X-285522Y618618D01*
X-287125Y622487D01*
X-287125Y626673D01*
X-285522Y630542D01*
X-282562Y633502D01*
X-278693Y635105D01*
X-274507Y635105D01*
X-270638Y633502D01*
X-267678Y630542D01*
X-266075Y626673D01*
X-266075Y622487D01*
X-267678Y618618D01*
X-270638Y615658D01*
X-274507Y614055D01*
X-278693Y614055D01*
G37*
%LPD*%
%LPC*%
G36*
X102307Y614055D02*
X102307Y614055D01*
X98438Y615658D01*
X95478Y618618D01*
X93875Y622487D01*
X93875Y626673D01*
X95478Y630542D01*
X98438Y633502D01*
X102307Y635105D01*
X106493Y635105D01*
X110362Y633502D01*
X113322Y630542D01*
X114925Y626673D01*
X114925Y622487D01*
X113322Y618618D01*
X110362Y615658D01*
X106493Y614055D01*
X102307Y614055D01*
G37*
%LPD*%
%LPC*%
G36*
X76907Y614055D02*
X76907Y614055D01*
X73038Y615658D01*
X70078Y618618D01*
X68475Y622487D01*
X68475Y626673D01*
X70078Y630542D01*
X73038Y633502D01*
X76907Y635105D01*
X81093Y635105D01*
X84962Y633502D01*
X87922Y630542D01*
X89525Y626673D01*
X89525Y622487D01*
X87922Y618618D01*
X84962Y615658D01*
X81093Y614055D01*
X76907Y614055D01*
G37*
%LPD*%
%LPC*%
G36*
X51507Y614055D02*
X51507Y614055D01*
X47638Y615658D01*
X44678Y618618D01*
X43075Y622487D01*
X43075Y626673D01*
X44678Y630542D01*
X47638Y633502D01*
X51507Y635105D01*
X55693Y635105D01*
X59562Y633502D01*
X62522Y630542D01*
X64125Y626673D01*
X64125Y622487D01*
X62522Y618618D01*
X59562Y615658D01*
X55693Y614055D01*
X51507Y614055D01*
G37*
%LPD*%
%LPC*%
G36*
X26107Y614055D02*
X26107Y614055D01*
X22238Y615658D01*
X19278Y618618D01*
X17675Y622487D01*
X17675Y626673D01*
X19278Y630542D01*
X22238Y633502D01*
X26107Y635105D01*
X30293Y635105D01*
X34162Y633502D01*
X37122Y630542D01*
X38725Y626673D01*
X38725Y622487D01*
X37122Y618618D01*
X34162Y615658D01*
X30293Y614055D01*
X26107Y614055D01*
G37*
%LPD*%
%LPC*%
G36*
X-24693Y614055D02*
X-24693Y614055D01*
X-28562Y615658D01*
X-31522Y618618D01*
X-33125Y622487D01*
X-33125Y626673D01*
X-31522Y630542D01*
X-28562Y633502D01*
X-24693Y635105D01*
X-20507Y635105D01*
X-16638Y633502D01*
X-13678Y630542D01*
X-12075Y626673D01*
X-12075Y622487D01*
X-13678Y618618D01*
X-16638Y615658D01*
X-20507Y614055D01*
X-24693Y614055D01*
G37*
%LPD*%
%LPC*%
G36*
X-50093Y614055D02*
X-50093Y614055D01*
X-53962Y615658D01*
X-56922Y618618D01*
X-58525Y622487D01*
X-58525Y626673D01*
X-56922Y630542D01*
X-53962Y633502D01*
X-50093Y635105D01*
X-45907Y635105D01*
X-42038Y633502D01*
X-39078Y630542D01*
X-37475Y626673D01*
X-37475Y622487D01*
X-39078Y618618D01*
X-42038Y615658D01*
X-45907Y614055D01*
X-50093Y614055D01*
G37*
%LPD*%
%LPC*%
G36*
X-75493Y614055D02*
X-75493Y614055D01*
X-79362Y615658D01*
X-82322Y618618D01*
X-83925Y622487D01*
X-83925Y626673D01*
X-82322Y630542D01*
X-79362Y633502D01*
X-75493Y635105D01*
X-71307Y635105D01*
X-67438Y633502D01*
X-64478Y630542D01*
X-62875Y626673D01*
X-62875Y622487D01*
X-64478Y618618D01*
X-67438Y615658D01*
X-71307Y614055D01*
X-75493Y614055D01*
G37*
%LPD*%
%LPC*%
G36*
X-100893Y614055D02*
X-100893Y614055D01*
X-104762Y615658D01*
X-107722Y618618D01*
X-109325Y622487D01*
X-109325Y626673D01*
X-107722Y630542D01*
X-104762Y633502D01*
X-100893Y635105D01*
X-96707Y635105D01*
X-92838Y633502D01*
X-89878Y630542D01*
X-88275Y626673D01*
X-88275Y622487D01*
X-89878Y618618D01*
X-92838Y615658D01*
X-96707Y614055D01*
X-100893Y614055D01*
G37*
%LPD*%
%LPC*%
G36*
X707Y614055D02*
X707Y614055D01*
X-3162Y615658D01*
X-6122Y618618D01*
X-7725Y622487D01*
X-7725Y626673D01*
X-6122Y630542D01*
X-3162Y633502D01*
X707Y635105D01*
X4893Y635105D01*
X8762Y633502D01*
X11722Y630542D01*
X13325Y626673D01*
X13325Y622487D01*
X11722Y618618D01*
X8762Y615658D01*
X4893Y614055D01*
X707Y614055D01*
G37*
%LPD*%
%LPC*%
G36*
X378175Y-309175D02*
X378175Y-309175D01*
X374803Y-307778D01*
X372222Y-305197D01*
X370825Y-301825D01*
X370825Y-298175D01*
X372222Y-294803D01*
X374803Y-292222D01*
X378175Y-290825D01*
X381825Y-290825D01*
X385197Y-292222D01*
X387778Y-294803D01*
X389175Y-298175D01*
X389175Y-301825D01*
X387778Y-305197D01*
X385197Y-307778D01*
X381825Y-309175D01*
X378175Y-309175D01*
G37*
%LPD*%
%LPC*%
G36*
X403575Y-309175D02*
X403575Y-309175D01*
X400203Y-307778D01*
X397622Y-305197D01*
X396225Y-301825D01*
X396225Y-298175D01*
X397622Y-294803D01*
X400203Y-292222D01*
X403575Y-290825D01*
X407225Y-290825D01*
X410597Y-292222D01*
X413178Y-294803D01*
X414575Y-298175D01*
X414575Y-301825D01*
X413178Y-305197D01*
X410597Y-307778D01*
X407225Y-309175D01*
X403575Y-309175D01*
G37*
%LPD*%
%LPC*%
G36*
X97175Y-309175D02*
X97175Y-309175D01*
X93803Y-307778D01*
X91222Y-305197D01*
X89825Y-301825D01*
X89825Y-298175D01*
X91222Y-294803D01*
X93803Y-292222D01*
X97175Y-290825D01*
X100825Y-290825D01*
X104197Y-292222D01*
X106778Y-294803D01*
X108175Y-298175D01*
X108175Y-301825D01*
X106778Y-305197D01*
X104197Y-307778D01*
X100825Y-309175D01*
X97175Y-309175D01*
G37*
%LPD*%
%LPC*%
G36*
X352775Y-309175D02*
X352775Y-309175D01*
X349403Y-307778D01*
X346822Y-305197D01*
X345425Y-301825D01*
X345425Y-298175D01*
X346822Y-294803D01*
X349403Y-292222D01*
X352775Y-290825D01*
X356425Y-290825D01*
X359797Y-292222D01*
X362378Y-294803D01*
X363775Y-298175D01*
X363775Y-301825D01*
X362378Y-305197D01*
X359797Y-307778D01*
X356425Y-309175D01*
X352775Y-309175D01*
G37*
%LPD*%
%LPC*%
G36*
X122575Y-309175D02*
X122575Y-309175D01*
X119203Y-307778D01*
X116622Y-305197D01*
X115225Y-301825D01*
X115225Y-298175D01*
X116622Y-294803D01*
X119203Y-292222D01*
X122575Y-290825D01*
X126225Y-290825D01*
X129597Y-292222D01*
X132178Y-294803D01*
X133575Y-298175D01*
X133575Y-301825D01*
X132178Y-305197D01*
X129597Y-307778D01*
X126225Y-309175D01*
X122575Y-309175D01*
G37*
%LPD*%
%LPC*%
G36*
X155243Y153440D02*
X155243Y153440D01*
X154350Y154333D01*
X154350Y168267D01*
X155243Y169160D01*
X169177Y169160D01*
X170070Y168267D01*
X170070Y154333D01*
X169177Y153440D01*
X155243Y153440D01*
G37*
%LPD*%
%LPC*%
G36*
X-324757Y153440D02*
X-324757Y153440D01*
X-325650Y154333D01*
X-325650Y168267D01*
X-324757Y169160D01*
X-310823Y169160D01*
X-309930Y168267D01*
X-309930Y154333D01*
X-310823Y153440D01*
X-324757Y153440D01*
G37*
%LPD*%
%LPC*%
G36*
X-1723Y-69611D02*
X-1723Y-69611D01*
X-4906Y-68292D01*
X-7342Y-65856D01*
X-8661Y-62673D01*
X-8661Y-59227D01*
X-7342Y-56044D01*
X-4906Y-53608D01*
X-1723Y-52289D01*
X1723Y-52289D01*
X4906Y-53608D01*
X7342Y-56044D01*
X8661Y-59227D01*
X8661Y-62673D01*
X7342Y-65856D01*
X4906Y-68292D01*
X1723Y-69611D01*
X-1723Y-69611D01*
G37*
%LPD*%
%LPC*%
G36*
X-319353Y128040D02*
X-319353Y128040D01*
X-322242Y129237D01*
X-324453Y131448D01*
X-325650Y134337D01*
X-325650Y137463D01*
X-324453Y140352D01*
X-322242Y142563D01*
X-319353Y143760D01*
X-316227Y143760D01*
X-313338Y142563D01*
X-311127Y140352D01*
X-309930Y137463D01*
X-309930Y134337D01*
X-311127Y131448D01*
X-313338Y129237D01*
X-316227Y128040D01*
X-319353Y128040D01*
G37*
%LPD*%
%LPC*%
G36*
X-163773Y128040D02*
X-163773Y128040D01*
X-166662Y129237D01*
X-168873Y131448D01*
X-170070Y134337D01*
X-170070Y137463D01*
X-168873Y140352D01*
X-166662Y142563D01*
X-163773Y143760D01*
X-160647Y143760D01*
X-157758Y142563D01*
X-155547Y140352D01*
X-154350Y137463D01*
X-154350Y134337D01*
X-155547Y131448D01*
X-157758Y129237D01*
X-160647Y128040D01*
X-163773Y128040D01*
G37*
%LPD*%
%LPC*%
G36*
X316227Y128040D02*
X316227Y128040D01*
X313338Y129237D01*
X311127Y131448D01*
X309930Y134337D01*
X309930Y137463D01*
X311127Y140352D01*
X313338Y142563D01*
X316227Y143760D01*
X319353Y143760D01*
X322242Y142563D01*
X324453Y140352D01*
X325650Y137463D01*
X325650Y134337D01*
X324453Y131448D01*
X322242Y129237D01*
X319353Y128040D01*
X316227Y128040D01*
G37*
%LPD*%
%LPC*%
G36*
X316227Y102640D02*
X316227Y102640D01*
X313338Y103837D01*
X311127Y106048D01*
X309930Y108937D01*
X309930Y112063D01*
X311127Y114952D01*
X313338Y117163D01*
X316227Y118360D01*
X319353Y118360D01*
X322242Y117163D01*
X324453Y114952D01*
X325650Y112063D01*
X325650Y108937D01*
X324453Y106048D01*
X322242Y103837D01*
X319353Y102640D01*
X316227Y102640D01*
G37*
%LPD*%
%LPC*%
G36*
X-319353Y102640D02*
X-319353Y102640D01*
X-322242Y103837D01*
X-324453Y106048D01*
X-325650Y108937D01*
X-325650Y112063D01*
X-324453Y114952D01*
X-322242Y117163D01*
X-319353Y118360D01*
X-316227Y118360D01*
X-313338Y117163D01*
X-311127Y114952D01*
X-309930Y112063D01*
X-309930Y108937D01*
X-311127Y106048D01*
X-313338Y103837D01*
X-316227Y102640D01*
X-319353Y102640D01*
G37*
%LPD*%
%LPC*%
G36*
X160647Y102640D02*
X160647Y102640D01*
X157758Y103837D01*
X155547Y106048D01*
X154350Y108937D01*
X154350Y112063D01*
X155547Y114952D01*
X157758Y117163D01*
X160647Y118360D01*
X163773Y118360D01*
X166662Y117163D01*
X168873Y114952D01*
X170070Y112063D01*
X170070Y108937D01*
X168873Y106048D01*
X166662Y103837D01*
X163773Y102640D01*
X160647Y102640D01*
G37*
%LPD*%
%LPC*%
G36*
X-163773Y102640D02*
X-163773Y102640D01*
X-166662Y103837D01*
X-168873Y106048D01*
X-170070Y108937D01*
X-170070Y112063D01*
X-168873Y114952D01*
X-166662Y117163D01*
X-163773Y118360D01*
X-160647Y118360D01*
X-157758Y117163D01*
X-155547Y114952D01*
X-154350Y112063D01*
X-154350Y108937D01*
X-155547Y106048D01*
X-157758Y103837D01*
X-160647Y102640D01*
X-163773Y102640D01*
G37*
%LPD*%
%LPC*%
G36*
X316227Y-24360D02*
X316227Y-24360D01*
X313338Y-23163D01*
X311127Y-20952D01*
X309930Y-18063D01*
X309930Y-14937D01*
X311127Y-12048D01*
X313338Y-9837D01*
X316227Y-8640D01*
X319353Y-8640D01*
X322242Y-9837D01*
X324453Y-12048D01*
X325650Y-14937D01*
X325650Y-18063D01*
X324453Y-20952D01*
X322242Y-23163D01*
X319353Y-24360D01*
X316227Y-24360D01*
G37*
%LPD*%
%LPC*%
G36*
X160647Y-24360D02*
X160647Y-24360D01*
X157758Y-23163D01*
X155547Y-20952D01*
X154350Y-18063D01*
X154350Y-14937D01*
X155547Y-12048D01*
X157758Y-9837D01*
X160647Y-8640D01*
X163773Y-8640D01*
X166662Y-9837D01*
X168873Y-12048D01*
X170070Y-14937D01*
X170070Y-18063D01*
X168873Y-20952D01*
X166662Y-23163D01*
X163773Y-24360D01*
X160647Y-24360D01*
G37*
%LPD*%
%LPC*%
G36*
X-163773Y-24360D02*
X-163773Y-24360D01*
X-166662Y-23163D01*
X-168873Y-20952D01*
X-170070Y-18063D01*
X-170070Y-14937D01*
X-168873Y-12048D01*
X-166662Y-9837D01*
X-163773Y-8640D01*
X-160647Y-8640D01*
X-157758Y-9837D01*
X-155547Y-12048D01*
X-154350Y-14937D01*
X-154350Y-18063D01*
X-155547Y-20952D01*
X-157758Y-23163D01*
X-160647Y-24360D01*
X-163773Y-24360D01*
G37*
%LPD*%
%LPC*%
G36*
X-319353Y-24360D02*
X-319353Y-24360D01*
X-322242Y-23163D01*
X-324453Y-20952D01*
X-325650Y-18063D01*
X-325650Y-14937D01*
X-324453Y-12048D01*
X-322242Y-9837D01*
X-319353Y-8640D01*
X-316227Y-8640D01*
X-313338Y-9837D01*
X-311127Y-12048D01*
X-309930Y-14937D01*
X-309930Y-18063D01*
X-311127Y-20952D01*
X-313338Y-23163D01*
X-316227Y-24360D01*
X-319353Y-24360D01*
G37*
%LPD*%
%LPC*%
G36*
X-319353Y-100560D02*
X-319353Y-100560D01*
X-322242Y-99363D01*
X-324453Y-97152D01*
X-325650Y-94263D01*
X-325650Y-91137D01*
X-324453Y-88248D01*
X-322242Y-86037D01*
X-319353Y-84840D01*
X-316227Y-84840D01*
X-313338Y-86037D01*
X-311127Y-88248D01*
X-309930Y-91137D01*
X-309930Y-94263D01*
X-311127Y-97152D01*
X-313338Y-99363D01*
X-316227Y-100560D01*
X-319353Y-100560D01*
G37*
%LPD*%
%LPC*%
G36*
X-319353Y-125960D02*
X-319353Y-125960D01*
X-322242Y-124763D01*
X-324453Y-122552D01*
X-325650Y-119663D01*
X-325650Y-116537D01*
X-324453Y-113648D01*
X-322242Y-111437D01*
X-319353Y-110240D01*
X-316227Y-110240D01*
X-313338Y-111437D01*
X-311127Y-113648D01*
X-309930Y-116537D01*
X-309930Y-119663D01*
X-311127Y-122552D01*
X-313338Y-124763D01*
X-316227Y-125960D01*
X-319353Y-125960D01*
G37*
%LPD*%
%LPC*%
G36*
X-163773Y-125960D02*
X-163773Y-125960D01*
X-166662Y-124763D01*
X-168873Y-122552D01*
X-170070Y-119663D01*
X-170070Y-116537D01*
X-168873Y-113648D01*
X-166662Y-111437D01*
X-163773Y-110240D01*
X-160647Y-110240D01*
X-157758Y-111437D01*
X-155547Y-113648D01*
X-154350Y-116537D01*
X-154350Y-119663D01*
X-155547Y-122552D01*
X-157758Y-124763D01*
X-160647Y-125960D01*
X-163773Y-125960D01*
G37*
%LPD*%
%LPC*%
G36*
X160647Y-202160D02*
X160647Y-202160D01*
X157758Y-200963D01*
X155547Y-198752D01*
X154350Y-195863D01*
X154350Y-192737D01*
X155547Y-189848D01*
X157758Y-187637D01*
X160647Y-186440D01*
X163773Y-186440D01*
X166662Y-187637D01*
X168873Y-189848D01*
X170070Y-192737D01*
X170070Y-195863D01*
X168873Y-198752D01*
X166662Y-200963D01*
X163773Y-202160D01*
X160647Y-202160D01*
G37*
%LPD*%
%LPC*%
G36*
X316227Y-151360D02*
X316227Y-151360D01*
X313338Y-150163D01*
X311127Y-147952D01*
X309930Y-145063D01*
X309930Y-141937D01*
X311127Y-139048D01*
X313338Y-136837D01*
X316227Y-135640D01*
X319353Y-135640D01*
X322242Y-136837D01*
X324453Y-139048D01*
X325650Y-141937D01*
X325650Y-145063D01*
X324453Y-147952D01*
X322242Y-150163D01*
X319353Y-151360D01*
X316227Y-151360D01*
G37*
%LPD*%
%LPC*%
G36*
X160647Y-151360D02*
X160647Y-151360D01*
X157758Y-150163D01*
X155547Y-147952D01*
X154350Y-145063D01*
X154350Y-141937D01*
X155547Y-139048D01*
X157758Y-136837D01*
X160647Y-135640D01*
X163773Y-135640D01*
X166662Y-136837D01*
X168873Y-139048D01*
X170070Y-141937D01*
X170070Y-145063D01*
X168873Y-147952D01*
X166662Y-150163D01*
X163773Y-151360D01*
X160647Y-151360D01*
G37*
%LPD*%
%LPC*%
G36*
X-163773Y-151360D02*
X-163773Y-151360D01*
X-166662Y-150163D01*
X-168873Y-147952D01*
X-170070Y-145063D01*
X-170070Y-141937D01*
X-168873Y-139048D01*
X-166662Y-136837D01*
X-163773Y-135640D01*
X-160647Y-135640D01*
X-157758Y-136837D01*
X-155547Y-139048D01*
X-154350Y-141937D01*
X-154350Y-145063D01*
X-155547Y-147952D01*
X-157758Y-150163D01*
X-160647Y-151360D01*
X-163773Y-151360D01*
G37*
%LPD*%
%LPC*%
G36*
X-319353Y-151360D02*
X-319353Y-151360D01*
X-322242Y-150163D01*
X-324453Y-147952D01*
X-325650Y-145063D01*
X-325650Y-141937D01*
X-324453Y-139048D01*
X-322242Y-136837D01*
X-319353Y-135640D01*
X-316227Y-135640D01*
X-313338Y-136837D01*
X-311127Y-139048D01*
X-309930Y-141937D01*
X-309930Y-145063D01*
X-311127Y-147952D01*
X-313338Y-150163D01*
X-316227Y-151360D01*
X-319353Y-151360D01*
G37*
%LPD*%
%LPC*%
G36*
X-319353Y-176760D02*
X-319353Y-176760D01*
X-322242Y-175563D01*
X-324453Y-173352D01*
X-325650Y-170463D01*
X-325650Y-167337D01*
X-324453Y-164448D01*
X-322242Y-162237D01*
X-319353Y-161040D01*
X-316227Y-161040D01*
X-313338Y-162237D01*
X-311127Y-164448D01*
X-309930Y-167337D01*
X-309930Y-170463D01*
X-311127Y-173352D01*
X-313338Y-175563D01*
X-316227Y-176760D01*
X-319353Y-176760D01*
G37*
%LPD*%
%LPC*%
G36*
X160647Y-176760D02*
X160647Y-176760D01*
X157758Y-175563D01*
X155547Y-173352D01*
X154350Y-170463D01*
X154350Y-167337D01*
X155547Y-164448D01*
X157758Y-162237D01*
X160647Y-161040D01*
X163773Y-161040D01*
X166662Y-162237D01*
X168873Y-164448D01*
X170070Y-167337D01*
X170070Y-170463D01*
X168873Y-173352D01*
X166662Y-175563D01*
X163773Y-176760D01*
X160647Y-176760D01*
G37*
%LPD*%
%LPC*%
G36*
X-319353Y-252960D02*
X-319353Y-252960D01*
X-322242Y-251763D01*
X-324453Y-249552D01*
X-325650Y-246663D01*
X-325650Y-243537D01*
X-324453Y-240648D01*
X-322242Y-238437D01*
X-319353Y-237240D01*
X-316227Y-237240D01*
X-313338Y-238437D01*
X-311127Y-240648D01*
X-309930Y-243537D01*
X-309930Y-246663D01*
X-311127Y-249552D01*
X-313338Y-251763D01*
X-316227Y-252960D01*
X-319353Y-252960D01*
G37*
%LPD*%
%LPC*%
G36*
X-319353Y-202160D02*
X-319353Y-202160D01*
X-322242Y-200963D01*
X-324453Y-198752D01*
X-325650Y-195863D01*
X-325650Y-192737D01*
X-324453Y-189848D01*
X-322242Y-187637D01*
X-319353Y-186440D01*
X-316227Y-186440D01*
X-313338Y-187637D01*
X-311127Y-189848D01*
X-309930Y-192737D01*
X-309930Y-195863D01*
X-311127Y-198752D01*
X-313338Y-200963D01*
X-316227Y-202160D01*
X-319353Y-202160D01*
G37*
%LPD*%
%LPC*%
G36*
X-319353Y26440D02*
X-319353Y26440D01*
X-322242Y27637D01*
X-324453Y29848D01*
X-325650Y32737D01*
X-325650Y35863D01*
X-324453Y38752D01*
X-322242Y40963D01*
X-319353Y42160D01*
X-316227Y42160D01*
X-313338Y40963D01*
X-311127Y38752D01*
X-309930Y35863D01*
X-309930Y32737D01*
X-311127Y29848D01*
X-313338Y27637D01*
X-316227Y26440D01*
X-319353Y26440D01*
G37*
%LPD*%
%LPC*%
G36*
X-163773Y26440D02*
X-163773Y26440D01*
X-166662Y27637D01*
X-168873Y29848D01*
X-170070Y32737D01*
X-170070Y35863D01*
X-168873Y38752D01*
X-166662Y40963D01*
X-163773Y42160D01*
X-160647Y42160D01*
X-157758Y40963D01*
X-155547Y38752D01*
X-154350Y35863D01*
X-154350Y32737D01*
X-155547Y29848D01*
X-157758Y27637D01*
X-160647Y26440D01*
X-163773Y26440D01*
G37*
%LPD*%
%LPC*%
G36*
X-319353Y-227560D02*
X-319353Y-227560D01*
X-322242Y-226363D01*
X-324453Y-224152D01*
X-325650Y-221263D01*
X-325650Y-218137D01*
X-324453Y-215248D01*
X-322242Y-213037D01*
X-319353Y-211840D01*
X-316227Y-211840D01*
X-313338Y-213037D01*
X-311127Y-215248D01*
X-309930Y-218137D01*
X-309930Y-221263D01*
X-311127Y-224152D01*
X-313338Y-226363D01*
X-316227Y-227560D01*
X-319353Y-227560D01*
G37*
%LPD*%
%LPC*%
G36*
X160647Y-227560D02*
X160647Y-227560D01*
X157758Y-226363D01*
X155547Y-224152D01*
X154350Y-221263D01*
X154350Y-218137D01*
X155547Y-215248D01*
X157758Y-213037D01*
X160647Y-211840D01*
X163773Y-211840D01*
X166662Y-213037D01*
X168873Y-215248D01*
X170070Y-218137D01*
X170070Y-221263D01*
X168873Y-224152D01*
X166662Y-226363D01*
X163773Y-227560D01*
X160647Y-227560D01*
G37*
%LPD*%
%LPC*%
G36*
X316227Y26440D02*
X316227Y26440D01*
X313338Y27637D01*
X311127Y29848D01*
X309930Y32737D01*
X309930Y35863D01*
X311127Y38752D01*
X313338Y40963D01*
X316227Y42160D01*
X319353Y42160D01*
X322242Y40963D01*
X324453Y38752D01*
X325650Y35863D01*
X325650Y32737D01*
X324453Y29848D01*
X322242Y27637D01*
X319353Y26440D01*
X316227Y26440D01*
G37*
%LPD*%
%LPC*%
G36*
X160647Y-252960D02*
X160647Y-252960D01*
X157758Y-251763D01*
X155547Y-249552D01*
X154350Y-246663D01*
X154350Y-243537D01*
X155547Y-240648D01*
X157758Y-238437D01*
X160647Y-237240D01*
X163773Y-237240D01*
X166662Y-238437D01*
X168873Y-240648D01*
X170070Y-243537D01*
X170070Y-246663D01*
X168873Y-249552D01*
X166662Y-251763D01*
X163773Y-252960D01*
X160647Y-252960D01*
G37*
%LPD*%
%LPC*%
G36*
X160647Y26440D02*
X160647Y26440D01*
X157758Y27637D01*
X155547Y29848D01*
X154350Y32737D01*
X154350Y35863D01*
X155547Y38752D01*
X157758Y40963D01*
X160647Y42160D01*
X163773Y42160D01*
X166662Y40963D01*
X168873Y38752D01*
X170070Y35863D01*
X170070Y32737D01*
X168873Y29848D01*
X166662Y27637D01*
X163773Y26440D01*
X160647Y26440D01*
G37*
%LPD*%
%LPC*%
G36*
X316227Y51840D02*
X316227Y51840D01*
X313338Y53037D01*
X311127Y55248D01*
X309930Y58137D01*
X309930Y61263D01*
X311127Y64152D01*
X313338Y66363D01*
X316227Y67560D01*
X319353Y67560D01*
X322242Y66363D01*
X324453Y64152D01*
X325650Y61263D01*
X325650Y58137D01*
X324453Y55248D01*
X322242Y53037D01*
X319353Y51840D01*
X316227Y51840D01*
G37*
%LPD*%
%LPC*%
G36*
X-319353Y-278360D02*
X-319353Y-278360D01*
X-322242Y-277163D01*
X-324453Y-274952D01*
X-325650Y-272063D01*
X-325650Y-268937D01*
X-324453Y-266048D01*
X-322242Y-263837D01*
X-319353Y-262640D01*
X-316227Y-262640D01*
X-313338Y-263837D01*
X-311127Y-266048D01*
X-309930Y-268937D01*
X-309930Y-272063D01*
X-311127Y-274952D01*
X-313338Y-277163D01*
X-316227Y-278360D01*
X-319353Y-278360D01*
G37*
%LPD*%
%LPC*%
G36*
X-319353Y51840D02*
X-319353Y51840D01*
X-322242Y53037D01*
X-324453Y55248D01*
X-325650Y58137D01*
X-325650Y61263D01*
X-324453Y64152D01*
X-322242Y66363D01*
X-319353Y67560D01*
X-316227Y67560D01*
X-313338Y66363D01*
X-311127Y64152D01*
X-309930Y61263D01*
X-309930Y58137D01*
X-311127Y55248D01*
X-313338Y53037D01*
X-316227Y51840D01*
X-319353Y51840D01*
G37*
%LPD*%
%LPC*%
G36*
X-163773Y51840D02*
X-163773Y51840D01*
X-166662Y53037D01*
X-168873Y55248D01*
X-170070Y58137D01*
X-170070Y61263D01*
X-168873Y64152D01*
X-166662Y66363D01*
X-163773Y67560D01*
X-160647Y67560D01*
X-157758Y66363D01*
X-155547Y64152D01*
X-154350Y61263D01*
X-154350Y58137D01*
X-155547Y55248D01*
X-157758Y53037D01*
X-160647Y51840D01*
X-163773Y51840D01*
G37*
%LPD*%
%LPC*%
G36*
X160647Y51840D02*
X160647Y51840D01*
X157758Y53037D01*
X155547Y55248D01*
X154350Y58137D01*
X154350Y61263D01*
X155547Y64152D01*
X157758Y66363D01*
X160647Y67560D01*
X163773Y67560D01*
X166662Y66363D01*
X168873Y64152D01*
X170070Y61263D01*
X170070Y58137D01*
X168873Y55248D01*
X166662Y53037D01*
X163773Y51840D01*
X160647Y51840D01*
G37*
%LPD*%
%LPC*%
G36*
X-319353Y77240D02*
X-319353Y77240D01*
X-322242Y78437D01*
X-324453Y80648D01*
X-325650Y83537D01*
X-325650Y86663D01*
X-324453Y89552D01*
X-322242Y91763D01*
X-319353Y92960D01*
X-316227Y92960D01*
X-313338Y91763D01*
X-311127Y89552D01*
X-309930Y86663D01*
X-309930Y83537D01*
X-311127Y80648D01*
X-313338Y78437D01*
X-316227Y77240D01*
X-319353Y77240D01*
G37*
%LPD*%
%LPC*%
G36*
X160647Y-303760D02*
X160647Y-303760D01*
X157758Y-302563D01*
X155547Y-300352D01*
X154350Y-297463D01*
X154350Y-294337D01*
X155547Y-291448D01*
X157758Y-289237D01*
X160647Y-288040D01*
X163773Y-288040D01*
X166662Y-289237D01*
X168873Y-291448D01*
X170070Y-294337D01*
X170070Y-297463D01*
X168873Y-300352D01*
X166662Y-302563D01*
X163773Y-303760D01*
X160647Y-303760D01*
G37*
%LPD*%
%LPC*%
G36*
X316227Y-125960D02*
X316227Y-125960D01*
X313338Y-124763D01*
X311127Y-122552D01*
X309930Y-119663D01*
X309930Y-116537D01*
X311127Y-113648D01*
X313338Y-111437D01*
X316227Y-110240D01*
X319353Y-110240D01*
X322242Y-111437D01*
X324453Y-113648D01*
X325650Y-116537D01*
X325650Y-119663D01*
X324453Y-122552D01*
X322242Y-124763D01*
X319353Y-125960D01*
X316227Y-125960D01*
G37*
%LPD*%
%LPC*%
G36*
X316227Y153440D02*
X316227Y153440D01*
X313338Y154637D01*
X311127Y156848D01*
X309930Y159737D01*
X309930Y162863D01*
X311127Y165752D01*
X313338Y167963D01*
X316227Y169160D01*
X319353Y169160D01*
X322242Y167963D01*
X324453Y165752D01*
X325650Y162863D01*
X325650Y159737D01*
X324453Y156848D01*
X322242Y154637D01*
X319353Y153440D01*
X316227Y153440D01*
G37*
%LPD*%
%LPC*%
G36*
X-163773Y153440D02*
X-163773Y153440D01*
X-166662Y154637D01*
X-168873Y156848D01*
X-170070Y159737D01*
X-170070Y162863D01*
X-168873Y165752D01*
X-166662Y167963D01*
X-163773Y169160D01*
X-160647Y169160D01*
X-157758Y167963D01*
X-155547Y165752D01*
X-154350Y162863D01*
X-154350Y159737D01*
X-155547Y156848D01*
X-157758Y154637D01*
X-160647Y153440D01*
X-163773Y153440D01*
G37*
%LPD*%
%LPC*%
G36*
X-319353Y-303760D02*
X-319353Y-303760D01*
X-322242Y-302563D01*
X-324453Y-300352D01*
X-325650Y-297463D01*
X-325650Y-294337D01*
X-324453Y-291448D01*
X-322242Y-289237D01*
X-319353Y-288040D01*
X-316227Y-288040D01*
X-313338Y-289237D01*
X-311127Y-291448D01*
X-309930Y-294337D01*
X-309930Y-297463D01*
X-311127Y-300352D01*
X-313338Y-302563D01*
X-316227Y-303760D01*
X-319353Y-303760D01*
G37*
%LPD*%
%LPC*%
G36*
X160647Y77240D02*
X160647Y77240D01*
X157758Y78437D01*
X155547Y80648D01*
X154350Y83537D01*
X154350Y86663D01*
X155547Y89552D01*
X157758Y91763D01*
X160647Y92960D01*
X163773Y92960D01*
X166662Y91763D01*
X168873Y89552D01*
X170070Y86663D01*
X170070Y83537D01*
X168873Y80648D01*
X166662Y78437D01*
X163773Y77240D01*
X160647Y77240D01*
G37*
%LPD*%
%LPC*%
G36*
X316227Y-329160D02*
X316227Y-329160D01*
X313338Y-327963D01*
X311127Y-325752D01*
X309930Y-322863D01*
X309930Y-319737D01*
X311127Y-316848D01*
X313338Y-314637D01*
X316227Y-313440D01*
X319353Y-313440D01*
X322242Y-314637D01*
X324453Y-316848D01*
X325650Y-319737D01*
X325650Y-322863D01*
X324453Y-325752D01*
X322242Y-327963D01*
X319353Y-329160D01*
X316227Y-329160D01*
G37*
%LPD*%
%LPC*%
G36*
X160647Y-329160D02*
X160647Y-329160D01*
X157758Y-327963D01*
X155547Y-325752D01*
X154350Y-322863D01*
X154350Y-319737D01*
X155547Y-316848D01*
X157758Y-314637D01*
X160647Y-313440D01*
X163773Y-313440D01*
X166662Y-314637D01*
X168873Y-316848D01*
X170070Y-319737D01*
X170070Y-322863D01*
X168873Y-325752D01*
X166662Y-327963D01*
X163773Y-329160D01*
X160647Y-329160D01*
G37*
%LPD*%
%LPC*%
G36*
X-163773Y-329160D02*
X-163773Y-329160D01*
X-166662Y-327963D01*
X-168873Y-325752D01*
X-170070Y-322863D01*
X-170070Y-319737D01*
X-168873Y-316848D01*
X-166662Y-314637D01*
X-163773Y-313440D01*
X-160647Y-313440D01*
X-157758Y-314637D01*
X-155547Y-316848D01*
X-154350Y-319737D01*
X-154350Y-322863D01*
X-155547Y-325752D01*
X-157758Y-327963D01*
X-160647Y-329160D01*
X-163773Y-329160D01*
G37*
%LPD*%
%LPC*%
G36*
X-319353Y-329160D02*
X-319353Y-329160D01*
X-322242Y-327963D01*
X-324453Y-325752D01*
X-325650Y-322863D01*
X-325650Y-319737D01*
X-324453Y-316848D01*
X-322242Y-314637D01*
X-319353Y-313440D01*
X-316227Y-313440D01*
X-313338Y-314637D01*
X-311127Y-316848D01*
X-309930Y-319737D01*
X-309930Y-322863D01*
X-311127Y-325752D01*
X-313338Y-327963D01*
X-316227Y-329160D01*
X-319353Y-329160D01*
G37*
%LPD*%
%LPC*%
G36*
X316227Y77240D02*
X316227Y77240D01*
X313338Y78437D01*
X311127Y80648D01*
X309930Y83537D01*
X309930Y86663D01*
X311127Y89552D01*
X313338Y91763D01*
X316227Y92960D01*
X319353Y92960D01*
X322242Y91763D01*
X324453Y89552D01*
X325650Y86663D01*
X325650Y83537D01*
X324453Y80648D01*
X322242Y78437D01*
X319353Y77240D01*
X316227Y77240D01*
G37*
%LPD*%
%LPC*%
G36*
X-163773Y77240D02*
X-163773Y77240D01*
X-166662Y78437D01*
X-168873Y80648D01*
X-170070Y83537D01*
X-170070Y86663D01*
X-168873Y89552D01*
X-166662Y91763D01*
X-163773Y92960D01*
X-160647Y92960D01*
X-157758Y91763D01*
X-155547Y89552D01*
X-154350Y86663D01*
X-154350Y83537D01*
X-155547Y80648D01*
X-157758Y78437D01*
X-160647Y77240D01*
X-163773Y77240D01*
G37*
%LPD*%
%LPC*%
G36*
X-319353Y1040D02*
X-319353Y1040D01*
X-322242Y2237D01*
X-324453Y4448D01*
X-325650Y7337D01*
X-325650Y10463D01*
X-324453Y13352D01*
X-322242Y15563D01*
X-319353Y16760D01*
X-316227Y16760D01*
X-313338Y15563D01*
X-311127Y13352D01*
X-309930Y10463D01*
X-309930Y7337D01*
X-311127Y4448D01*
X-313338Y2237D01*
X-316227Y1040D01*
X-319353Y1040D01*
G37*
%LPD*%
%LPC*%
G36*
X316227Y1040D02*
X316227Y1040D01*
X313338Y2237D01*
X311127Y4448D01*
X309930Y7337D01*
X309930Y10463D01*
X311127Y13352D01*
X313338Y15563D01*
X316227Y16760D01*
X319353Y16760D01*
X322242Y15563D01*
X324453Y13352D01*
X325650Y10463D01*
X325650Y7337D01*
X324453Y4448D01*
X322242Y2237D01*
X319353Y1040D01*
X316227Y1040D01*
G37*
%LPD*%
%LPC*%
G36*
X-163773Y1040D02*
X-163773Y1040D01*
X-166662Y2237D01*
X-168873Y4448D01*
X-170070Y7337D01*
X-170070Y10463D01*
X-168873Y13352D01*
X-166662Y15563D01*
X-163773Y16760D01*
X-160647Y16760D01*
X-157758Y15563D01*
X-155547Y13352D01*
X-154350Y10463D01*
X-154350Y7337D01*
X-155547Y4448D01*
X-157758Y2237D01*
X-160647Y1040D01*
X-163773Y1040D01*
G37*
%LPD*%
%LPC*%
G36*
X160647Y1040D02*
X160647Y1040D01*
X157758Y2237D01*
X155547Y4448D01*
X154350Y7337D01*
X154350Y10463D01*
X155547Y13352D01*
X157758Y15563D01*
X160647Y16760D01*
X163773Y16760D01*
X166662Y15563D01*
X168873Y13352D01*
X170070Y10463D01*
X170070Y7337D01*
X168873Y4448D01*
X166662Y2237D01*
X163773Y1040D01*
X160647Y1040D01*
G37*
%LPD*%
D10*
X-317790Y161300D03*
D11*
X-317790Y135900D03*
X-317790Y110500D03*
X-317790Y85100D03*
X-317790Y59700D03*
X-317790Y34300D03*
X-317790Y8900D03*
X-317790Y-16500D03*
X-317790Y-41900D03*
X-317790Y-67300D03*
X-317790Y-92700D03*
X-317790Y-118100D03*
X-317790Y-143500D03*
X-317790Y-168900D03*
X-317790Y-194300D03*
X-317790Y-219700D03*
X-317790Y-245100D03*
X-317790Y-270500D03*
X-317790Y-295900D03*
X-317790Y-321300D03*
X-162210Y-321300D03*
X-162210Y-295900D03*
X-162210Y-270500D03*
X-162210Y-245100D03*
X-162210Y-219700D03*
X-162210Y-194300D03*
X-162210Y-168900D03*
X-162210Y-143500D03*
X-162210Y-118100D03*
X-162210Y-92700D03*
X-162210Y-67300D03*
X-162210Y-41900D03*
X-162210Y-16500D03*
X-162210Y8900D03*
X-162210Y34300D03*
X-162210Y59700D03*
X-162210Y85100D03*
X-162210Y110500D03*
X-162210Y135900D03*
X-162210Y161300D03*
D10*
X162210Y161300D03*
D11*
X162210Y135900D03*
X162210Y110500D03*
X162210Y85100D03*
X162210Y59700D03*
X162210Y34300D03*
X162210Y8900D03*
X162210Y-16500D03*
X162210Y-41900D03*
X162210Y-67300D03*
X162210Y-92700D03*
X162210Y-118100D03*
X162210Y-143500D03*
X162210Y-168900D03*
X162210Y-194300D03*
X162210Y-219700D03*
X162210Y-245100D03*
X162210Y-270500D03*
X162210Y-295900D03*
X162210Y-321300D03*
X317790Y-321300D03*
X317790Y-295900D03*
X317790Y-270500D03*
X317790Y-245100D03*
X317790Y-219700D03*
X317790Y-194300D03*
X317790Y-168900D03*
X317790Y-143500D03*
X317790Y-118100D03*
X317790Y-92700D03*
X317790Y-67300D03*
X317790Y-41900D03*
X317790Y-16500D03*
X317790Y8900D03*
X317790Y34300D03*
X317790Y59700D03*
X317790Y85100D03*
X317790Y110500D03*
X317790Y135900D03*
X317790Y161300D03*
D12*
X124400Y-300000D03*
X99000Y-300000D03*
X73600Y-300000D03*
X405400Y-300000D03*
X380000Y-300000D03*
X354600Y-300000D03*
D13*
X0Y-274000D03*
X0Y-324000D03*
X27000Y-299000D03*
D14*
X390000Y50000D03*
D15*
X390000Y62700D03*
X390000Y75400D03*
X390000Y88100D03*
D16*
X-368380Y-194800D02*
X-383620Y-194800D01*
X-383620Y-220200D02*
X-368380Y-220200D01*
X-368380Y-245600D02*
X-383620Y-245600D01*
X-383620Y-271000D02*
X-368380Y-271000D01*
X-368380Y-296400D02*
X-383620Y-296400D01*
X-383620Y-321800D02*
X-368380Y-321800D01*
X-368380Y-347200D02*
X-383620Y-347200D01*
D14*
X390000Y141000D03*
D15*
X390000Y153700D03*
X390000Y166400D03*
X390000Y179100D03*
D17*
X-276600Y624580D03*
X-251200Y624580D03*
X-225800Y624580D03*
X-200400Y624580D03*
X-175000Y624580D03*
X-149600Y624580D03*
X-124200Y624580D03*
X-98800Y624580D03*
X-73400Y624580D03*
X-48000Y624580D03*
X-22600Y624580D03*
X2800Y624580D03*
X28200Y624580D03*
X53600Y624580D03*
X79000Y624580D03*
X104400Y624580D03*
D18*
X-384790Y224500D03*
X408500Y224500D03*
X408500Y614500D03*
X-384790Y614500D03*
D16*
X72380Y110300D02*
X87620Y110300D01*
X87620Y135700D02*
X72380Y135700D01*
D19*
X50000Y-65000D03*
X-140000Y-237000D03*
X-128000Y-281000D03*
X-380000Y10000D03*
X50000Y-105000D03*
D20*
X50000Y-107000D01*
X182007Y-108317D02*
X317790Y-244100D01*
X317790Y-245100D01*
X51500Y-105500D02*
X50000Y-107000D01*
X-88100Y-245100D01*
X-162210Y-245100D01*
X51500Y-105500D02*
X54317Y-108317D01*
X182007Y-108317D01*
D19*
X-50000Y-68000D03*
D20*
X-63000Y-55000D01*
X-291690Y-55000D01*
X-304790Y-41900D01*
X-317790Y-41900D01*
X-24900Y-41900D02*
X162210Y-41900D01*
X-50000Y-67000D02*
X-50000Y-68000D01*
X-50000Y-67000D02*
X-24900Y-41900D01*
D19*
X336000Y-64000D03*
D20*
X176310Y-56000D02*
X162210Y-41900D01*
X328000Y-56000D02*
X336000Y-64000D01*
X328000Y-56000D02*
X176310Y-56000D01*
D19*
X-50000Y-105000D03*
D20*
X-50000Y-109090D02*
X-135210Y-194300D01*
X-162210Y-194300D01*
X-50000Y-109090D02*
X-50000Y-105000D01*
X206490Y-83000D02*
X317790Y-194300D01*
X206490Y-83000D02*
X56830Y-83000D01*
X-31000Y-86000D02*
X-50000Y-105000D01*
X53830Y-86000D02*
X56830Y-83000D01*
X53830Y-86000D02*
X-31000Y-86000D01*
D19*
X50000Y-94000D03*
D20*
X59000Y-103000D01*
X201090Y-103000D01*
X317790Y-219700D01*
X50000Y-94000D02*
X-75700Y-219700D01*
X-162210Y-219700D01*
D19*
X50000Y-78000D03*
D20*
X226790Y-77900D02*
X317790Y-168900D01*
X226790Y-77900D02*
X50100Y-77900D01*
X50000Y-78000D01*
X-58310Y-78000D01*
X-149210Y-168900D01*
X-162210Y-168900D01*
X-162210Y-270500D02*
X-72710Y-360000D01*
X228290Y-360000D02*
X317790Y-270500D01*
X228290Y-360000D02*
X-72710Y-360000D01*
X-88110Y-370000D02*
X-162210Y-295900D01*
X243690Y-370000D02*
X317790Y-295900D01*
X243690Y-370000D02*
X-88110Y-370000D01*
X73600Y-288000D02*
X91100Y-270500D01*
X73600Y-288000D02*
X73600Y-300000D01*
X91100Y-270500D02*
X162210Y-270500D01*
X162010Y135700D02*
X80000Y135700D01*
X162010Y135700D02*
X162210Y135900D01*
M02*
