M48
;GenerationSoftware,Autodesk,EAGLE,9.5.2*%
;CreationDate,2020-02-06T18:32:58Z*%
FMAT,2
ICI,OFF
METRIC,TZ,000.000
T10C0.350
T9C0.740
T8C0.759
T7C0.970
T6C1.016
T5C1.020
T4C1.200
T3C1.700
T2C2.700
T1C3.000
%
G90
M71
T1
X-13900Y-36200
X-39100Y17500
X41200Y-21700
X2500Y13300
T2
X-38479Y61450
X-38479Y22450
X40850Y22450
X40850Y61450
T3
X2700Y-29900
X0Y-32400
X0Y-27400
T4
X-17500Y62458
X10440Y62458
X-25120Y62458
X-27660Y62458
X-20040Y62458
X-22580Y62458
X-14960Y62458
X-12420Y62458
X-9880Y62458
X-7340Y62458
X-4800Y62458
X-2260Y62458
X280Y62458
X2820Y62458
X5360Y62458
X7900Y62458
T5
X38000Y-30000
X40540Y-30000
X7360Y-30000
X9900Y-30000
X35460Y-30000
X12440Y-30000
T6
X-37600Y-24560
X-37600Y-27100
X-37600Y-29640
X-37600Y-19480
X8000Y13570
X-37600Y-34720
X-37600Y-22020
X-37600Y-32180
X8000Y11030
T7
X0Y-6095
X0Y-9905
T8
X-16221Y-11810
X-16221Y-9270
X-16221Y-6730
X-16221Y-4190
X-16221Y-1650
X-16221Y890
X-16221Y3430
X-16221Y5970
X-16221Y8510
X-16221Y11050
X-16221Y13590
X-16221Y16130
X16221Y16130
X16221Y13590
X16221Y11050
X16221Y8510
X16221Y5970
X16221Y3430
X16221Y890
X16221Y-1650
X16221Y-4190
X16221Y-6730
X16221Y-9270
X16221Y-11810
X16221Y-14350
X16221Y-16890
X16221Y-19430
X-31779Y-29590
X16221Y-24510
X16221Y-27050
X16221Y-29590
X16221Y-32130
X31779Y-32130
X31779Y-29590
X31779Y-27050
X31779Y-24510
X31779Y-21970
X31779Y-19430
X31779Y-16890
X31779Y-14350
X31779Y-11810
X31779Y-9270
X31779Y-6730
X31779Y-4190
X31779Y-1650
X31779Y890
X31779Y3430
X31779Y5970
X31779Y8510
X31779Y11050
X31779Y13590
X31779Y16130
X-31779Y13590
X-31779Y16130
X-31779Y11050
X-31779Y8510
X-31779Y5970
X-31779Y3430
X-31779Y890
X-31779Y-1650
X-31779Y-4190
X-31779Y-6730
X-31779Y-9270
X16221Y-21970
X-31779Y-11810
X-31779Y-14350
X-31779Y-16890
X-31779Y-19430
X-31779Y-21970
X-31779Y-24510
X-31779Y-27050
X-31779Y-32130
X-16221Y-32130
X-16221Y-29590
X-16221Y-27050
X-16221Y-24510
X-16221Y-21970
X-16221Y-19430
X-16221Y-16890
X-16221Y-14350
T9
X39000Y8810
X39000Y14100
X39000Y15370
X39000Y16640
X39000Y17910
X39000Y5000
X39000Y6270
X39000Y7540
T10
X-14000Y-23700
X5000Y-6500
X5000Y-7800
X5000Y-9400
X-5000Y-10500
X33600Y-6400
X-5000Y-6800
X5000Y-10500
X-38000Y1000
X-12800Y-28100
M30