G04 EAGLE Gerber RS-274X export*
G75*
%MOMM*%
%FSLAX34Y34*%
%LPD*%
%INSilkscreen Bottom*%
%IPPOS*%
%AMOC8*
5,1,8,0,0,1.08239X$1,22.5*%
G01*
%ADD10R,0.600000X0.100000*%
%ADD11R,1.500000X0.100000*%
%ADD12R,0.100000X0.100000*%
%ADD13R,2.500000X0.100000*%
%ADD14R,2.700000X0.100000*%
%ADD15R,3.200000X0.100000*%
%ADD16R,3.600000X0.100000*%
%ADD17R,4.100000X0.100000*%
%ADD18R,1.700000X0.100000*%
%ADD19R,1.600000X0.100000*%
%ADD20R,0.200000X0.100000*%
%ADD21R,0.300000X0.100000*%
%ADD22R,1.400000X0.100000*%
%ADD23R,1.300000X0.100000*%
%ADD24R,2.200000X0.100000*%
%ADD25R,1.200000X0.100000*%
%ADD26R,1.000000X0.100000*%
%ADD27R,1.100000X0.100000*%
%ADD28R,0.700000X0.100000*%
%ADD29R,1.800000X0.100000*%
%ADD30R,3.500000X0.100000*%
%ADD31R,0.900000X0.100000*%
%ADD32R,2.600000X0.100000*%
%ADD33R,3.700000X0.100000*%
%ADD34R,2.000000X0.100000*%
%ADD35R,0.800000X0.100000*%
%ADD36R,4.000000X0.100000*%
%ADD37R,4.300000X0.100000*%
%ADD38R,0.400000X0.100000*%
%ADD39R,0.500000X0.100000*%
%ADD40R,2.300000X0.100000*%
%ADD41R,2.900000X0.100000*%
%ADD42R,4.700000X0.100000*%
%ADD43R,5.100000X0.100000*%
%ADD44R,5.400000X0.100000*%
%ADD45R,5.800000X0.100000*%
%ADD46R,6.100000X0.100000*%
%ADD47R,2.100000X0.100000*%
%ADD48R,6.400000X0.100000*%
%ADD49R,2.400000X0.100000*%
%ADD50R,6.700000X0.100000*%
%ADD51R,4.600000X0.100000*%
%ADD52R,3.900000X0.100000*%
%ADD53R,3.300000X0.100000*%
%ADD54R,3.100000X0.100000*%
%ADD55R,7.000000X0.100000*%
%ADD56R,6.900000X0.100000*%
%ADD57R,6.800000X0.100000*%
%ADD58R,6.600000X0.100000*%
%ADD59R,6.500000X0.100000*%
%ADD60R,3.800000X0.100000*%
%ADD61R,1.900000X0.100000*%
%ADD62R,4.800000X0.100000*%
%ADD63R,5.200000X0.100000*%
%ADD64R,5.700000X0.100000*%
%ADD65R,6.200000X0.100000*%
%ADD66R,8.800000X0.100000*%
%ADD67R,7.500000X0.100000*%
%ADD68R,7.200000X0.100000*%
%ADD69R,5.000000X0.100000*%
%ADD70R,4.900000X0.100000*%
%ADD71R,2.800000X0.100000*%
%ADD72R,3.000000X0.100000*%
%ADD73R,3.400000X0.100000*%
%ADD74R,4.200000X0.100000*%
%ADD75R,4.400000X0.100000*%
%ADD76R,4.500000X0.100000*%
%ADD77R,5.500000X0.100000*%
%ADD78R,6.000000X0.100000*%
%ADD79R,8.400000X0.100000*%
%ADD80R,8.500000X0.100000*%
%ADD81R,5.600000X0.100000*%
%ADD82R,5.300000X0.100000*%
%ADD83R,5.900000X0.100000*%
%ADD84R,6.300000X0.100000*%
%ADD85R,10.500000X0.100000*%
%ADD86R,9.300000X0.100000*%
%ADD87R,8.000000X0.100000*%
%ADD88C,0.100000*%
%ADD89C,0.100000*%
%ADD90C,0.101600*%


D10*
X-85500Y274000D03*
D11*
X-85000Y275000D03*
D12*
X-76000Y275000D03*
D13*
X-85000Y276000D03*
D14*
X-85000Y277000D03*
D15*
X-85500Y278000D03*
D16*
X-84500Y279000D03*
D17*
X-85000Y280000D03*
D18*
X-98000Y281000D03*
D19*
X-71500Y281000D03*
D20*
X-137500Y282000D03*
D21*
X-134000Y282000D03*
D22*
X-100500Y282000D03*
D23*
X-69000Y282000D03*
D19*
X-135500Y283000D03*
D23*
X-103000Y283000D03*
X-67000Y283000D03*
D24*
X-134500Y284000D03*
D25*
X-104500Y284000D03*
X-65500Y284000D03*
D14*
X-135000Y285000D03*
D26*
X-105500Y285000D03*
D27*
X-64000Y285000D03*
D28*
X-27000Y285000D03*
D12*
X-22000Y285000D03*
D15*
X-134500Y286000D03*
D27*
X-107000Y286000D03*
D26*
X-62500Y286000D03*
D29*
X-26500Y286000D03*
D12*
X-16000Y286000D03*
D30*
X-135000Y287000D03*
D31*
X-108000Y287000D03*
D26*
X-61500Y287000D03*
D12*
X-39000Y287000D03*
D32*
X-24500Y287000D03*
D33*
X-135000Y288000D03*
D31*
X-109000Y288000D03*
D26*
X-60500Y288000D03*
D15*
X-25500Y288000D03*
D18*
X-147000Y289000D03*
D19*
X-123500Y289000D03*
D31*
X-110000Y289000D03*
X-59000Y289000D03*
D16*
X-25500Y289000D03*
D22*
X-149500Y290000D03*
D34*
X-116500Y290000D03*
D12*
X-98000Y290000D03*
D35*
X-58500Y290000D03*
D36*
X-25500Y290000D03*
D25*
X-151500Y291000D03*
D19*
X-115500Y291000D03*
D20*
X-98500Y291000D03*
D35*
X-57500Y291000D03*
D37*
X-26000Y291000D03*
D27*
X-153000Y292000D03*
D23*
X-115000Y292000D03*
D38*
X-99500Y292000D03*
D28*
X-57000Y292000D03*
D29*
X-39500Y292000D03*
X-11500Y292000D03*
D27*
X-154000Y293000D03*
X-115000Y293000D03*
D38*
X-100500Y293000D03*
D31*
X-56000Y293000D03*
D11*
X-43000Y293000D03*
X-8000Y293000D03*
D26*
X-155500Y294000D03*
D31*
X-114000Y294000D03*
D38*
X-101500Y294000D03*
D24*
X-48500Y294000D03*
D23*
X-6000Y294000D03*
D26*
X-156500Y295000D03*
D28*
X-114000Y295000D03*
D39*
X-102000Y295000D03*
D29*
X-49500Y295000D03*
D25*
X-4500Y295000D03*
D31*
X-158000Y296000D03*
D39*
X-114000Y296000D03*
X-103000Y296000D03*
D11*
X-50000Y296000D03*
D27*
X-3000Y296000D03*
D31*
X-159000Y297000D03*
D39*
X-114000Y297000D03*
X-103000Y297000D03*
D22*
X-50500Y297000D03*
D12*
X-33000Y297000D03*
D26*
X-1500Y297000D03*
D31*
X-159000Y298000D03*
D38*
X-114500Y298000D03*
D39*
X-104000Y298000D03*
D27*
X-51000Y298000D03*
D28*
X-35000Y298000D03*
D26*
X-500Y298000D03*
D31*
X-160000Y299000D03*
D21*
X-115000Y299000D03*
D10*
X-104500Y299000D03*
D31*
X-51000Y299000D03*
D35*
X-35500Y299000D03*
D26*
X500Y299000D03*
D31*
X-161000Y300000D03*
D38*
X-115500Y300000D03*
D39*
X-105000Y300000D03*
D35*
X-51500Y300000D03*
D26*
X-37500Y300000D03*
D31*
X2000Y300000D03*
D35*
X-161500Y301000D03*
D12*
X-150000Y301000D03*
D21*
X-116000Y301000D03*
D10*
X-105500Y301000D03*
D39*
X-52000Y301000D03*
D31*
X-38000Y301000D03*
X3000Y301000D03*
D35*
X-162500Y302000D03*
D21*
X-151000Y302000D03*
D38*
X-116500Y302000D03*
D10*
X-106500Y302000D03*
D21*
X-52000Y302000D03*
D35*
X-39500Y302000D03*
D31*
X4000Y302000D03*
D12*
X230000Y302000D03*
D20*
X233500Y302000D03*
X237500Y302000D03*
X240500Y302000D03*
D31*
X-163000Y303000D03*
D21*
X-152000Y303000D03*
X-117000Y303000D03*
D10*
X-106500Y303000D03*
D38*
X-52500Y303000D03*
D31*
X-40000Y303000D03*
X5000Y303000D03*
D40*
X235000Y303000D03*
D35*
X-163500Y304000D03*
D21*
X-152000Y304000D03*
X-117000Y304000D03*
D39*
X-107000Y304000D03*
D21*
X-53000Y304000D03*
D31*
X-41000Y304000D03*
D35*
X5500Y304000D03*
D41*
X235000Y304000D03*
D35*
X-164500Y305000D03*
D21*
X-153000Y305000D03*
X-118000Y305000D03*
D10*
X-107500Y305000D03*
D38*
X-53500Y305000D03*
D35*
X-42500Y305000D03*
X6500Y305000D03*
D30*
X234000Y305000D03*
D35*
X-164500Y306000D03*
D38*
X-153500Y306000D03*
D21*
X-118000Y306000D03*
D10*
X-107500Y306000D03*
D38*
X-54500Y306000D03*
D35*
X-43500Y306000D03*
X7500Y306000D03*
D36*
X233500Y306000D03*
D35*
X-165500Y307000D03*
D21*
X-154000Y307000D03*
X-119000Y307000D03*
D10*
X-107500Y307000D03*
D21*
X-55000Y307000D03*
D35*
X-43500Y307000D03*
X7500Y307000D03*
D37*
X234000Y307000D03*
D35*
X-165500Y308000D03*
D38*
X-154500Y308000D03*
D21*
X-119000Y308000D03*
D10*
X-108500Y308000D03*
D21*
X-56000Y308000D03*
D35*
X-44500Y308000D03*
X8500Y308000D03*
D42*
X233000Y308000D03*
D28*
X-166000Y309000D03*
D39*
X-155000Y309000D03*
D21*
X-119000Y309000D03*
D10*
X-108500Y309000D03*
D21*
X-56000Y309000D03*
D35*
X-45500Y309000D03*
X9500Y309000D03*
D43*
X233000Y309000D03*
D28*
X-166000Y310000D03*
D38*
X-155500Y310000D03*
D21*
X-119000Y310000D03*
D10*
X-108500Y310000D03*
D38*
X-56500Y310000D03*
D35*
X-45500Y310000D03*
D28*
X10000Y310000D03*
D44*
X232500Y310000D03*
D28*
X-167000Y311000D03*
D39*
X-156000Y311000D03*
D21*
X-119000Y311000D03*
D28*
X-109000Y311000D03*
D21*
X-57000Y311000D03*
D35*
X-46500Y311000D03*
X10500Y311000D03*
D45*
X232500Y311000D03*
D28*
X-167000Y312000D03*
D39*
X-156000Y312000D03*
D21*
X-119000Y312000D03*
D10*
X-109500Y312000D03*
D38*
X-57500Y312000D03*
D35*
X-47500Y312000D03*
D34*
X17500Y312000D03*
D46*
X233000Y312000D03*
D39*
X-176000Y313000D03*
D28*
X-167000Y313000D03*
D10*
X-156500Y313000D03*
D21*
X-119000Y313000D03*
D28*
X-110000Y313000D03*
D38*
X-57500Y313000D03*
D35*
X-47500Y313000D03*
D47*
X19000Y313000D03*
D48*
X232500Y313000D03*
D12*
X-183000Y314000D03*
D18*
X-173000Y314000D03*
D39*
X-157000Y314000D03*
D21*
X-119000Y314000D03*
D28*
X-110000Y314000D03*
D21*
X-58000Y314000D03*
D35*
X-48500Y314000D03*
D49*
X20500Y314000D03*
D12*
X34000Y314000D03*
D50*
X233000Y314000D03*
D34*
X-174500Y315000D03*
D39*
X-157000Y315000D03*
D21*
X-119000Y315000D03*
D28*
X-110000Y315000D03*
D38*
X-58500Y315000D03*
D35*
X-48500Y315000D03*
D12*
X10000Y315000D03*
D13*
X24000Y315000D03*
D43*
X223000Y315000D03*
D27*
X262000Y315000D03*
D24*
X-175500Y316000D03*
D10*
X-157500Y316000D03*
D21*
X-119000Y316000D03*
D28*
X-110000Y316000D03*
D21*
X-58000Y316000D03*
D31*
X-49000Y316000D03*
D32*
X24500Y316000D03*
D51*
X218500Y316000D03*
D28*
X266000Y316000D03*
D49*
X-177500Y317000D03*
D10*
X-157500Y317000D03*
D21*
X-119000Y317000D03*
D10*
X-110500Y317000D03*
D21*
X-59000Y317000D03*
D31*
X-49000Y317000D03*
D10*
X14500Y317000D03*
D25*
X33500Y317000D03*
D37*
X216000Y317000D03*
D39*
X268000Y317000D03*
D49*
X-177500Y318000D03*
D10*
X-157500Y318000D03*
D21*
X-119000Y318000D03*
D10*
X-110500Y318000D03*
D38*
X-59500Y318000D03*
D31*
X-50000Y318000D03*
D38*
X12500Y318000D03*
D26*
X35500Y318000D03*
D17*
X214000Y318000D03*
D39*
X270000Y318000D03*
D27*
X-186000Y319000D03*
D10*
X-168500Y319000D03*
D39*
X-158000Y319000D03*
D21*
X-119000Y319000D03*
D28*
X-111000Y319000D03*
D21*
X-59000Y319000D03*
D31*
X-50000Y319000D03*
D39*
X11000Y319000D03*
D35*
X37500Y319000D03*
D52*
X212000Y319000D03*
D38*
X271500Y319000D03*
D26*
X-187500Y320000D03*
D21*
X-168000Y320000D03*
D10*
X-158500Y320000D03*
D21*
X-119000Y320000D03*
D28*
X-111000Y320000D03*
D21*
X-60000Y320000D03*
D35*
X-50500Y320000D03*
D39*
X9000Y320000D03*
D31*
X39000Y320000D03*
D52*
X210000Y320000D03*
D21*
X273000Y320000D03*
D35*
X-189500Y321000D03*
D21*
X-167000Y321000D03*
D10*
X-158500Y321000D03*
D21*
X-119000Y321000D03*
D28*
X-111000Y321000D03*
D21*
X-60000Y321000D03*
D31*
X-51000Y321000D03*
D38*
X7500Y321000D03*
D28*
X41000Y321000D03*
D16*
X208500Y321000D03*
D21*
X274000Y321000D03*
D35*
X-190500Y322000D03*
D20*
X-167500Y322000D03*
D10*
X-158500Y322000D03*
D21*
X-119000Y322000D03*
D28*
X-111000Y322000D03*
D21*
X-60000Y322000D03*
D31*
X-51000Y322000D03*
D38*
X5500Y322000D03*
D35*
X41500Y322000D03*
D20*
X168500Y322000D03*
D16*
X206500Y322000D03*
D21*
X275000Y322000D03*
D35*
X-191500Y323000D03*
D20*
X-167500Y323000D03*
D10*
X-158500Y323000D03*
D21*
X-119000Y323000D03*
D28*
X-111000Y323000D03*
D38*
X-60500Y323000D03*
D31*
X-51000Y323000D03*
D38*
X4500Y323000D03*
D28*
X43000Y323000D03*
D35*
X167500Y323000D03*
D30*
X205000Y323000D03*
D21*
X276000Y323000D03*
D35*
X-192500Y324000D03*
D20*
X-167500Y324000D03*
D28*
X-159000Y324000D03*
D21*
X-119000Y324000D03*
D28*
X-111000Y324000D03*
D21*
X-60000Y324000D03*
D35*
X-51500Y324000D03*
D38*
X3500Y324000D03*
D12*
X41000Y324000D03*
D38*
X44500Y324000D03*
D25*
X165500Y324000D03*
D53*
X204000Y324000D03*
D21*
X277000Y324000D03*
D28*
X-193000Y325000D03*
D20*
X-167500Y325000D03*
D28*
X-159000Y325000D03*
D21*
X-119000Y325000D03*
D28*
X-111000Y325000D03*
D21*
X-60000Y325000D03*
D31*
X-52000Y325000D03*
D21*
X2000Y325000D03*
D10*
X44500Y325000D03*
D18*
X165000Y325000D03*
D53*
X203000Y325000D03*
D21*
X278000Y325000D03*
D35*
X-194500Y326000D03*
D21*
X-168000Y326000D03*
D28*
X-159000Y326000D03*
D21*
X-119000Y326000D03*
D28*
X-111000Y326000D03*
D21*
X-60000Y326000D03*
D31*
X-52000Y326000D03*
D21*
X1000Y326000D03*
D12*
X11000Y326000D03*
D39*
X46000Y326000D03*
D24*
X163500Y326000D03*
D53*
X201000Y326000D03*
D21*
X279000Y326000D03*
D28*
X-195000Y327000D03*
D21*
X-168000Y327000D03*
D28*
X-159000Y327000D03*
D21*
X-119000Y327000D03*
D28*
X-111000Y327000D03*
D38*
X-60500Y327000D03*
D31*
X-52000Y327000D03*
D21*
X0Y327000D03*
X10000Y327000D03*
D39*
X47000Y327000D03*
D41*
X162000Y327000D03*
D15*
X200500Y327000D03*
D21*
X279000Y327000D03*
D10*
X-195500Y328000D03*
D20*
X-168500Y328000D03*
D28*
X-159000Y328000D03*
D20*
X-119500Y328000D03*
D28*
X-111000Y328000D03*
D38*
X-60500Y328000D03*
D31*
X-52000Y328000D03*
D20*
X-500Y328000D03*
D21*
X8000Y328000D03*
D39*
X47000Y328000D03*
D15*
X161500Y328000D03*
D54*
X199000Y328000D03*
D21*
X280000Y328000D03*
D10*
X-196500Y329000D03*
D20*
X-168500Y329000D03*
D28*
X-159000Y329000D03*
D21*
X-120000Y329000D03*
D28*
X-111000Y329000D03*
D38*
X-60500Y329000D03*
D35*
X-52500Y329000D03*
D20*
X-1500Y329000D03*
D21*
X7000Y329000D03*
D39*
X48000Y329000D03*
D33*
X160000Y329000D03*
D54*
X198000Y329000D03*
D20*
X280500Y329000D03*
D10*
X-197500Y330000D03*
D20*
X-168500Y330000D03*
D28*
X-159000Y330000D03*
D20*
X-119500Y330000D03*
D28*
X-111000Y330000D03*
D21*
X-60000Y330000D03*
D35*
X-52500Y330000D03*
D20*
X-2500Y330000D03*
D38*
X6500Y330000D03*
X48500Y330000D03*
D36*
X160500Y330000D03*
D54*
X197000Y330000D03*
D20*
X280500Y330000D03*
D28*
X-198000Y331000D03*
D20*
X-168500Y331000D03*
D28*
X-159000Y331000D03*
D21*
X-119000Y331000D03*
D28*
X-111000Y331000D03*
D38*
X-60500Y331000D03*
D31*
X-52000Y331000D03*
D21*
X-3000Y331000D03*
D38*
X5500Y331000D03*
D39*
X49000Y331000D03*
D55*
X175500Y331000D03*
D20*
X281500Y331000D03*
D10*
X-198500Y332000D03*
D20*
X-168500Y332000D03*
D10*
X-159500Y332000D03*
D21*
X-119000Y332000D03*
D28*
X-111000Y332000D03*
D38*
X-60500Y332000D03*
D31*
X-52000Y332000D03*
D20*
X-3500Y332000D03*
D38*
X4500Y332000D03*
D39*
X50000Y332000D03*
D56*
X175000Y332000D03*
D20*
X281500Y332000D03*
D28*
X-199000Y333000D03*
D20*
X-168500Y333000D03*
D28*
X-160000Y333000D03*
D21*
X-119000Y333000D03*
D28*
X-111000Y333000D03*
D38*
X-60500Y333000D03*
D31*
X-52000Y333000D03*
D20*
X-4500Y333000D03*
D39*
X4000Y333000D03*
D10*
X50500Y333000D03*
D57*
X174500Y333000D03*
D20*
X282500Y333000D03*
D28*
X-199000Y334000D03*
D20*
X-168500Y334000D03*
D28*
X-160000Y334000D03*
D21*
X-119000Y334000D03*
D28*
X-111000Y334000D03*
D38*
X-60500Y334000D03*
D31*
X-52000Y334000D03*
D38*
X-5500Y334000D03*
D39*
X3000Y334000D03*
X51000Y334000D03*
D50*
X174000Y334000D03*
D20*
X282500Y334000D03*
D10*
X-199500Y335000D03*
D12*
X-189000Y335000D03*
D20*
X-168500Y335000D03*
D28*
X-160000Y335000D03*
D21*
X-119000Y335000D03*
D28*
X-111000Y335000D03*
D38*
X-60500Y335000D03*
D31*
X-52000Y335000D03*
D38*
X-6500Y335000D03*
D10*
X2500Y335000D03*
D39*
X52000Y335000D03*
D38*
X120500Y335000D03*
D58*
X173500Y335000D03*
D21*
X283000Y335000D03*
D39*
X-200000Y336000D03*
D20*
X-189500Y336000D03*
X-168500Y336000D03*
D28*
X-160000Y336000D03*
D21*
X-119000Y336000D03*
D28*
X-111000Y336000D03*
D21*
X-61000Y336000D03*
D35*
X-52500Y336000D03*
D21*
X-7000Y336000D03*
D39*
X2000Y336000D03*
X52000Y336000D03*
D31*
X119000Y336000D03*
D58*
X172500Y336000D03*
D20*
X283500Y336000D03*
D10*
X-200500Y337000D03*
D20*
X-189500Y337000D03*
X-168500Y337000D03*
D28*
X-160000Y337000D03*
D21*
X-119000Y337000D03*
D10*
X-110500Y337000D03*
D21*
X-61000Y337000D03*
D31*
X-52000Y337000D03*
D38*
X-7500Y337000D03*
D10*
X1500Y337000D03*
D39*
X53000Y337000D03*
D23*
X119000Y337000D03*
D59*
X172000Y337000D03*
D20*
X283500Y337000D03*
D10*
X-201500Y338000D03*
D20*
X-190500Y338000D03*
X-168500Y338000D03*
D28*
X-160000Y338000D03*
D21*
X-118000Y338000D03*
D28*
X-110000Y338000D03*
D21*
X-61000Y338000D03*
D35*
X-52500Y338000D03*
D21*
X-8000Y338000D03*
D39*
X1000Y338000D03*
D38*
X53500Y338000D03*
D29*
X116500Y338000D03*
D36*
X159500Y338000D03*
D24*
X192500Y338000D03*
D20*
X283500Y338000D03*
D39*
X-201000Y339000D03*
D20*
X-190500Y339000D03*
X-168500Y339000D03*
D28*
X-159000Y339000D03*
D21*
X-118000Y339000D03*
D28*
X-110000Y339000D03*
D21*
X-61000Y339000D03*
D35*
X-52500Y339000D03*
D38*
X-8500Y339000D03*
D10*
X500Y339000D03*
D39*
X54000Y339000D03*
D40*
X116000Y339000D03*
D16*
X157500Y339000D03*
D47*
X192000Y339000D03*
D21*
X284000Y339000D03*
D10*
X-201500Y340000D03*
D21*
X-191000Y340000D03*
D20*
X-168500Y340000D03*
D28*
X-159000Y340000D03*
D38*
X-118500Y340000D03*
D28*
X-110000Y340000D03*
D21*
X-61000Y340000D03*
D35*
X-52500Y340000D03*
D21*
X-9000Y340000D03*
D10*
X500Y340000D03*
D38*
X54500Y340000D03*
D41*
X114000Y340000D03*
D15*
X155500Y340000D03*
D47*
X191000Y340000D03*
D20*
X284500Y340000D03*
D28*
X-202000Y341000D03*
D21*
X-191000Y341000D03*
D20*
X-168500Y341000D03*
D28*
X-159000Y341000D03*
D21*
X-118000Y341000D03*
D28*
X-110000Y341000D03*
D21*
X-61000Y341000D03*
D35*
X-52500Y341000D03*
D21*
X-9000Y341000D03*
D10*
X-500Y341000D03*
D39*
X55000Y341000D03*
D15*
X113500Y341000D03*
D41*
X154000Y341000D03*
D34*
X190500Y341000D03*
D20*
X284500Y341000D03*
D39*
X-202000Y342000D03*
D21*
X-191000Y342000D03*
D20*
X-168500Y342000D03*
D28*
X-159000Y342000D03*
D21*
X-118000Y342000D03*
D28*
X-110000Y342000D03*
D21*
X-61000Y342000D03*
D35*
X-52500Y342000D03*
D21*
X-9000Y342000D03*
D10*
X-500Y342000D03*
D39*
X55000Y342000D03*
D60*
X111500Y342000D03*
D13*
X152000Y342000D03*
D61*
X190000Y342000D03*
D20*
X284500Y342000D03*
D10*
X-202500Y343000D03*
D38*
X-191500Y343000D03*
D20*
X-168500Y343000D03*
D28*
X-159000Y343000D03*
D21*
X-118000Y343000D03*
D28*
X-110000Y343000D03*
D21*
X-61000Y343000D03*
D31*
X-52000Y343000D03*
D21*
X-10000Y343000D03*
D10*
X-500Y343000D03*
D38*
X55500Y343000D03*
D37*
X110000Y343000D03*
D47*
X150000Y343000D03*
D61*
X190000Y343000D03*
D20*
X284500Y343000D03*
D10*
X-202500Y344000D03*
D21*
X-192000Y344000D03*
X-168000Y344000D03*
D28*
X-159000Y344000D03*
D21*
X-118000Y344000D03*
D35*
X-109500Y344000D03*
D21*
X-61000Y344000D03*
D31*
X-52000Y344000D03*
D21*
X-10000Y344000D03*
D28*
X-1000Y344000D03*
D39*
X56000Y344000D03*
D62*
X108500Y344000D03*
D29*
X147500Y344000D03*
X189500Y344000D03*
D20*
X284500Y344000D03*
D10*
X-203500Y345000D03*
D21*
X-192000Y345000D03*
X-168000Y345000D03*
D28*
X-159000Y345000D03*
D21*
X-118000Y345000D03*
D28*
X-109000Y345000D03*
D21*
X-61000Y345000D03*
D31*
X-52000Y345000D03*
D21*
X-10000Y345000D03*
D10*
X-1500Y345000D03*
D38*
X56500Y345000D03*
D63*
X108500Y345000D03*
D19*
X146500Y345000D03*
D18*
X189000Y345000D03*
D20*
X284500Y345000D03*
D10*
X-203500Y346000D03*
D38*
X-192500Y346000D03*
D21*
X-168000Y346000D03*
D28*
X-159000Y346000D03*
D21*
X-117000Y346000D03*
D28*
X-109000Y346000D03*
D21*
X-61000Y346000D03*
D31*
X-52000Y346000D03*
D20*
X-9500Y346000D03*
D10*
X-1500Y346000D03*
D39*
X57000Y346000D03*
D64*
X107000Y346000D03*
D19*
X146500Y346000D03*
D18*
X189000Y346000D03*
D20*
X284500Y346000D03*
D10*
X-203500Y347000D03*
D38*
X-192500Y347000D03*
D21*
X-168000Y347000D03*
D28*
X-159000Y347000D03*
D21*
X-117000Y347000D03*
D28*
X-109000Y347000D03*
D21*
X-61000Y347000D03*
D35*
X-51500Y347000D03*
D21*
X-10000Y347000D03*
D10*
X-1500Y347000D03*
D38*
X57500Y347000D03*
D65*
X105500Y347000D03*
D19*
X146500Y347000D03*
X188500Y347000D03*
D20*
X284500Y347000D03*
D10*
X-203500Y348000D03*
D38*
X-192500Y348000D03*
D21*
X-167000Y348000D03*
D28*
X-159000Y348000D03*
D21*
X-117000Y348000D03*
D28*
X-109000Y348000D03*
D21*
X-61000Y348000D03*
D35*
X-51500Y348000D03*
D21*
X-10000Y348000D03*
D28*
X-2000Y348000D03*
D39*
X58000Y348000D03*
D12*
X70000Y348000D03*
D58*
X104500Y348000D03*
D19*
X146500Y348000D03*
D11*
X188000Y348000D03*
D28*
X244000Y348000D03*
D20*
X284500Y348000D03*
D39*
X-204000Y349000D03*
D38*
X-192500Y349000D03*
D20*
X-167500Y349000D03*
D28*
X-159000Y349000D03*
D38*
X-117500Y349000D03*
D28*
X-109000Y349000D03*
D21*
X-61000Y349000D03*
D31*
X-51000Y349000D03*
D20*
X-9500Y349000D03*
D28*
X-2000Y349000D03*
D39*
X58000Y349000D03*
D66*
X110500Y349000D03*
D22*
X187500Y349000D03*
X242500Y349000D03*
D20*
X284500Y349000D03*
D10*
X-204500Y350000D03*
D38*
X-192500Y350000D03*
D21*
X-167000Y350000D03*
D28*
X-158000Y350000D03*
D21*
X-117000Y350000D03*
D28*
X-108000Y350000D03*
D21*
X-61000Y350000D03*
D31*
X-51000Y350000D03*
D20*
X-9500Y350000D03*
D28*
X-2000Y350000D03*
D39*
X58000Y350000D03*
D55*
X98500Y350000D03*
D34*
X144500Y350000D03*
D22*
X187500Y350000D03*
D29*
X241500Y350000D03*
D12*
X285000Y350000D03*
D39*
X-204000Y351000D03*
X-193000Y351000D03*
D21*
X-167000Y351000D03*
D28*
X-158000Y351000D03*
D21*
X-117000Y351000D03*
D28*
X-108000Y351000D03*
D21*
X-60000Y351000D03*
D31*
X-51000Y351000D03*
D20*
X-9500Y351000D03*
D28*
X-2000Y351000D03*
D67*
X93000Y351000D03*
D61*
X145000Y351000D03*
D23*
X187000Y351000D03*
D47*
X241000Y351000D03*
D12*
X285000Y351000D03*
D10*
X-204500Y352000D03*
D38*
X-193500Y352000D03*
D20*
X-166500Y352000D03*
D28*
X-158000Y352000D03*
D21*
X-117000Y352000D03*
D28*
X-108000Y352000D03*
D21*
X-60000Y352000D03*
D31*
X-51000Y352000D03*
D20*
X-9500Y352000D03*
D28*
X-2000Y352000D03*
D68*
X91500Y352000D03*
D61*
X145000Y352000D03*
D22*
X186500Y352000D03*
D10*
X231500Y352000D03*
D18*
X244000Y352000D03*
D20*
X284500Y352000D03*
D10*
X-204500Y353000D03*
D38*
X-193500Y353000D03*
D21*
X-166000Y353000D03*
D28*
X-158000Y353000D03*
D21*
X-117000Y353000D03*
D28*
X-108000Y353000D03*
D21*
X-60000Y353000D03*
D35*
X-50500Y353000D03*
D21*
X-10000Y353000D03*
D28*
X-2000Y353000D03*
D57*
X89500Y353000D03*
D61*
X145000Y353000D03*
D23*
X186000Y353000D03*
D38*
X229500Y353000D03*
D18*
X244000Y353000D03*
D20*
X284500Y353000D03*
D10*
X-204500Y354000D03*
D38*
X-193500Y354000D03*
D21*
X-166000Y354000D03*
D28*
X-158000Y354000D03*
D21*
X-116000Y354000D03*
D28*
X-107000Y354000D03*
D38*
X-59500Y354000D03*
D31*
X-50000Y354000D03*
D21*
X-10000Y354000D03*
D28*
X-2000Y354000D03*
D48*
X87500Y354000D03*
D29*
X145500Y354000D03*
D23*
X186000Y354000D03*
D38*
X227500Y354000D03*
D29*
X244500Y354000D03*
D20*
X284500Y354000D03*
D39*
X-205000Y355000D03*
D38*
X-193500Y355000D03*
D20*
X-165500Y355000D03*
D28*
X-158000Y355000D03*
D38*
X-116500Y355000D03*
D28*
X-107000Y355000D03*
D21*
X-59000Y355000D03*
D31*
X-50000Y355000D03*
D20*
X-10500Y355000D03*
D28*
X-2000Y355000D03*
D46*
X86000Y355000D03*
D18*
X145000Y355000D03*
D25*
X185500Y355000D03*
D38*
X226500Y355000D03*
D19*
X245500Y355000D03*
D20*
X284500Y355000D03*
D39*
X-205000Y356000D03*
D38*
X-193500Y356000D03*
D21*
X-165000Y356000D03*
D28*
X-157000Y356000D03*
D21*
X-116000Y356000D03*
D28*
X-107000Y356000D03*
D21*
X-59000Y356000D03*
D31*
X-50000Y356000D03*
D20*
X-10500Y356000D03*
D28*
X-2000Y356000D03*
D45*
X83500Y356000D03*
D18*
X145000Y356000D03*
D25*
X185500Y356000D03*
D21*
X225000Y356000D03*
D11*
X246000Y356000D03*
D20*
X284500Y356000D03*
D39*
X-205000Y357000D03*
D38*
X-193500Y357000D03*
D21*
X-165000Y357000D03*
D28*
X-157000Y357000D03*
D21*
X-115000Y357000D03*
D10*
X-106500Y357000D03*
D21*
X-58000Y357000D03*
D35*
X-49500Y357000D03*
D20*
X-10500Y357000D03*
D28*
X-2000Y357000D03*
D44*
X81500Y357000D03*
D19*
X145500Y357000D03*
D27*
X185000Y357000D03*
D21*
X224000Y357000D03*
D11*
X247000Y357000D03*
D39*
X283000Y357000D03*
X-205000Y358000D03*
D38*
X-193500Y358000D03*
D21*
X-165000Y358000D03*
D28*
X-157000Y358000D03*
D38*
X-115500Y358000D03*
D28*
X-106000Y358000D03*
D21*
X-58000Y358000D03*
D35*
X-49500Y358000D03*
D20*
X-10500Y358000D03*
D28*
X-2000Y358000D03*
D69*
X79500Y358000D03*
D19*
X145500Y358000D03*
D27*
X185000Y358000D03*
D21*
X223000Y358000D03*
D22*
X247500Y358000D03*
D35*
X280500Y358000D03*
D39*
X-205000Y359000D03*
D38*
X-193500Y359000D03*
D21*
X-164000Y359000D03*
D28*
X-157000Y359000D03*
D38*
X-115500Y359000D03*
D28*
X-106000Y359000D03*
D38*
X-57500Y359000D03*
D35*
X-49500Y359000D03*
D20*
X-10500Y359000D03*
D10*
X-1500Y359000D03*
D70*
X79000Y359000D03*
D19*
X145500Y359000D03*
D26*
X184500Y359000D03*
D21*
X222000Y359000D03*
D23*
X248000Y359000D03*
D35*
X276500Y359000D03*
D10*
X-205500Y360000D03*
D38*
X-193500Y360000D03*
D21*
X-164000Y360000D03*
D28*
X-157000Y360000D03*
D21*
X-115000Y360000D03*
D28*
X-106000Y360000D03*
D38*
X-57500Y360000D03*
D35*
X-49500Y360000D03*
D20*
X-10500Y360000D03*
D10*
X-1500Y360000D03*
D69*
X79500Y360000D03*
D11*
X146000Y360000D03*
D26*
X184500Y360000D03*
D21*
X221000Y360000D03*
D27*
X249000Y360000D03*
D31*
X273000Y360000D03*
D10*
X-205500Y361000D03*
D38*
X-193500Y361000D03*
D21*
X-164000Y361000D03*
D28*
X-156000Y361000D03*
D38*
X-114500Y361000D03*
D28*
X-105000Y361000D03*
D21*
X-57000Y361000D03*
D35*
X-48500Y361000D03*
D20*
X-10500Y361000D03*
D10*
X-1500Y361000D03*
D52*
X74000Y361000D03*
D10*
X101500Y361000D03*
D11*
X146000Y361000D03*
D26*
X184500Y361000D03*
D20*
X220500Y361000D03*
D26*
X249500Y361000D03*
D31*
X270000Y361000D03*
D10*
X-205500Y362000D03*
D39*
X-194000Y362000D03*
D21*
X-164000Y362000D03*
D28*
X-156000Y362000D03*
D21*
X-114000Y362000D03*
D28*
X-105000Y362000D03*
D21*
X-57000Y362000D03*
D35*
X-48500Y362000D03*
D20*
X-10500Y362000D03*
D10*
X-1500Y362000D03*
D16*
X72500Y362000D03*
D28*
X102000Y362000D03*
D22*
X146500Y362000D03*
D31*
X184000Y362000D03*
D21*
X220000Y362000D03*
D31*
X250000Y362000D03*
X266000Y362000D03*
D10*
X-205500Y363000D03*
D39*
X-194000Y363000D03*
D21*
X-163000Y363000D03*
D28*
X-156000Y363000D03*
D21*
X-114000Y363000D03*
D28*
X-105000Y363000D03*
D21*
X-56000Y363000D03*
D35*
X-48500Y363000D03*
D21*
X-10000Y363000D03*
D28*
X-1000Y363000D03*
D15*
X70500Y363000D03*
D35*
X101500Y363000D03*
D22*
X146500Y363000D03*
D31*
X184000Y363000D03*
D20*
X219500Y363000D03*
D35*
X250500Y363000D03*
D26*
X262500Y363000D03*
D10*
X-205500Y364000D03*
D39*
X-194000Y364000D03*
D21*
X-163000Y364000D03*
D35*
X-155500Y364000D03*
D21*
X-114000Y364000D03*
D28*
X-104000Y364000D03*
D21*
X-56000Y364000D03*
D31*
X-48000Y364000D03*
D20*
X-9500Y364000D03*
D28*
X-1000Y364000D03*
D39*
X23000Y364000D03*
D71*
X68500Y364000D03*
D35*
X101500Y364000D03*
D22*
X146500Y364000D03*
D31*
X184000Y364000D03*
D21*
X219000Y364000D03*
D11*
X256000Y364000D03*
D10*
X-205500Y365000D03*
D39*
X-194000Y365000D03*
D21*
X-163000Y365000D03*
D28*
X-155000Y365000D03*
D38*
X-113500Y365000D03*
D28*
X-104000Y365000D03*
D21*
X-56000Y365000D03*
D31*
X-48000Y365000D03*
D20*
X-9500Y365000D03*
D10*
X-500Y365000D03*
D12*
X12000Y365000D03*
D19*
X22500Y365000D03*
D49*
X66500Y365000D03*
D31*
X102000Y365000D03*
D23*
X147000Y365000D03*
D31*
X183000Y365000D03*
D21*
X219000Y365000D03*
D26*
X254500Y365000D03*
D10*
X-205500Y366000D03*
X-193500Y366000D03*
D21*
X-163000Y366000D03*
D28*
X-155000Y366000D03*
D21*
X-113000Y366000D03*
D28*
X-104000Y366000D03*
D21*
X-55000Y366000D03*
D35*
X-47500Y366000D03*
D21*
X-9000Y366000D03*
D10*
X-500Y366000D03*
D40*
X20000Y366000D03*
D12*
X33000Y366000D03*
D47*
X65000Y366000D03*
D31*
X102000Y366000D03*
D23*
X147000Y366000D03*
D31*
X183000Y366000D03*
D14*
X231000Y366000D03*
D39*
X253000Y366000D03*
D10*
X-205500Y367000D03*
X-193500Y367000D03*
D20*
X-162500Y367000D03*
D28*
X-155000Y367000D03*
D21*
X-112000Y367000D03*
D28*
X-103000Y367000D03*
D21*
X-55000Y367000D03*
D31*
X-48000Y367000D03*
D20*
X-9500Y367000D03*
D28*
X0Y367000D03*
D54*
X20000Y367000D03*
D18*
X63000Y367000D03*
D31*
X102000Y367000D03*
D25*
X146500Y367000D03*
D31*
X183000Y367000D03*
D72*
X232500Y367000D03*
D10*
X-205500Y368000D03*
D39*
X-193000Y368000D03*
D20*
X-162500Y368000D03*
D28*
X-155000Y368000D03*
D38*
X-112500Y368000D03*
D28*
X-103000Y368000D03*
D21*
X-55000Y368000D03*
D31*
X-47000Y368000D03*
D20*
X-8500Y368000D03*
D28*
X0Y368000D03*
D54*
X20000Y368000D03*
D18*
X62000Y368000D03*
D26*
X102500Y368000D03*
D27*
X147000Y368000D03*
D31*
X183000Y368000D03*
D15*
X233500Y368000D03*
D10*
X-205500Y369000D03*
D39*
X-193000Y369000D03*
D21*
X-162000Y369000D03*
D28*
X-154000Y369000D03*
D21*
X-112000Y369000D03*
D28*
X-103000Y369000D03*
D21*
X-54000Y369000D03*
D31*
X-47000Y369000D03*
D20*
X-8500Y369000D03*
D36*
X16500Y369000D03*
D19*
X62500Y369000D03*
D26*
X102500Y369000D03*
D27*
X147000Y369000D03*
D35*
X182500Y369000D03*
D73*
X234500Y369000D03*
D10*
X-205500Y370000D03*
D39*
X-193000Y370000D03*
D20*
X-161500Y370000D03*
D28*
X-154000Y370000D03*
D38*
X-111500Y370000D03*
D28*
X-102000Y370000D03*
D21*
X-54000Y370000D03*
D31*
X-46000Y370000D03*
D20*
X-8500Y370000D03*
D38*
X-500Y370000D03*
D30*
X20000Y370000D03*
D18*
X62000Y370000D03*
D26*
X102500Y370000D03*
D27*
X147000Y370000D03*
D35*
X182500Y370000D03*
D30*
X235000Y370000D03*
D39*
X-205000Y371000D03*
X-193000Y371000D03*
D21*
X-162000Y371000D03*
D28*
X-154000Y371000D03*
D21*
X-111000Y371000D03*
D28*
X-102000Y371000D03*
D21*
X-54000Y371000D03*
D31*
X-46000Y371000D03*
D20*
X-7500Y371000D03*
D74*
X18500Y371000D03*
D18*
X62000Y371000D03*
D27*
X103000Y371000D03*
D26*
X147500Y371000D03*
D35*
X182500Y371000D03*
D33*
X236000Y371000D03*
D39*
X-205000Y372000D03*
X-193000Y372000D03*
D21*
X-161000Y372000D03*
D28*
X-153000Y372000D03*
D38*
X-110500Y372000D03*
D28*
X-101000Y372000D03*
D21*
X-53000Y372000D03*
D31*
X-46000Y372000D03*
D21*
X-7000Y372000D03*
D37*
X19000Y372000D03*
D18*
X62000Y372000D03*
D27*
X103000Y372000D03*
D26*
X147500Y372000D03*
D35*
X182500Y372000D03*
D33*
X237000Y372000D03*
D39*
X-205000Y373000D03*
X-193000Y373000D03*
D20*
X-160500Y373000D03*
D28*
X-153000Y373000D03*
D38*
X-110500Y373000D03*
D28*
X-101000Y373000D03*
D21*
X-53000Y373000D03*
D31*
X-45000Y373000D03*
D20*
X-7500Y373000D03*
D37*
X20000Y373000D03*
D18*
X62000Y373000D03*
D25*
X103500Y373000D03*
D26*
X147500Y373000D03*
D35*
X182500Y373000D03*
D33*
X238000Y373000D03*
D28*
X-206000Y374000D03*
D39*
X-193000Y374000D03*
D38*
X-160500Y374000D03*
D28*
X-153000Y374000D03*
D38*
X-109500Y374000D03*
D28*
X-101000Y374000D03*
D38*
X-52500Y374000D03*
D31*
X-45000Y374000D03*
D20*
X-6500Y374000D03*
D75*
X20500Y374000D03*
D18*
X62000Y374000D03*
D25*
X103500Y374000D03*
D31*
X148000Y374000D03*
D28*
X182000Y374000D03*
D60*
X239500Y374000D03*
D26*
X-206500Y375000D03*
D10*
X-192500Y375000D03*
D21*
X-160000Y375000D03*
D28*
X-152000Y375000D03*
D38*
X-109500Y375000D03*
D28*
X-100000Y375000D03*
D21*
X-52000Y375000D03*
D35*
X-44500Y375000D03*
D20*
X-6500Y375000D03*
D75*
X20500Y375000D03*
D18*
X62000Y375000D03*
D25*
X103500Y375000D03*
D31*
X148000Y375000D03*
D28*
X182000Y375000D03*
D33*
X241000Y375000D03*
D27*
X-207000Y376000D03*
D10*
X-192500Y376000D03*
D20*
X-159500Y376000D03*
D28*
X-152000Y376000D03*
D21*
X-109000Y376000D03*
D28*
X-100000Y376000D03*
D21*
X-52000Y376000D03*
D31*
X-44000Y376000D03*
D20*
X-6500Y376000D03*
D76*
X21000Y376000D03*
D18*
X62000Y376000D03*
D22*
X103500Y376000D03*
D31*
X148000Y376000D03*
D28*
X182000Y376000D03*
D30*
X244000Y376000D03*
D25*
X-207500Y377000D03*
D10*
X-192500Y377000D03*
D21*
X-159000Y377000D03*
D35*
X-151500Y377000D03*
D38*
X-108500Y377000D03*
D35*
X-99500Y377000D03*
D38*
X-51500Y377000D03*
D31*
X-44000Y377000D03*
D20*
X-5500Y377000D03*
D76*
X22000Y377000D03*
D18*
X62000Y377000D03*
D20*
X97500Y377000D03*
D27*
X105000Y377000D03*
D35*
X148500Y377000D03*
X181500Y377000D03*
D41*
X248000Y377000D03*
D22*
X-208500Y378000D03*
D10*
X-192500Y378000D03*
D21*
X-159000Y378000D03*
D28*
X-151000Y378000D03*
D21*
X-108000Y378000D03*
D28*
X-99000Y378000D03*
D21*
X-51000Y378000D03*
D29*
X-39500Y378000D03*
D20*
X-5500Y378000D03*
D33*
X18000Y378000D03*
D28*
X42000Y378000D03*
D18*
X62000Y378000D03*
D20*
X97500Y378000D03*
D26*
X105500Y378000D03*
D28*
X148000Y378000D03*
D35*
X181500Y378000D03*
D27*
X258000Y378000D03*
D11*
X-209000Y379000D03*
D10*
X-192500Y379000D03*
D20*
X-158500Y379000D03*
D28*
X-151000Y379000D03*
D21*
X-108000Y379000D03*
D28*
X-99000Y379000D03*
D13*
X-40000Y379000D03*
D21*
X-5000Y379000D03*
D71*
X13500Y379000D03*
D10*
X42500Y379000D03*
D18*
X62000Y379000D03*
D20*
X97500Y379000D03*
D27*
X106000Y379000D03*
D28*
X148000Y379000D03*
D35*
X181500Y379000D03*
D28*
X262000Y379000D03*
D26*
X-212500Y380000D03*
D20*
X-202500Y380000D03*
D39*
X-192000Y380000D03*
D21*
X-158000Y380000D03*
D35*
X-150500Y380000D03*
D21*
X-107000Y380000D03*
D28*
X-98000Y380000D03*
D32*
X-38500Y380000D03*
D20*
X-4500Y380000D03*
D24*
X12500Y380000D03*
D21*
X45000Y380000D03*
D19*
X61500Y380000D03*
D20*
X97500Y380000D03*
D27*
X106000Y380000D03*
D10*
X148500Y380000D03*
D35*
X181500Y380000D03*
D39*
X264000Y380000D03*
D26*
X-213500Y381000D03*
D20*
X-202500Y381000D03*
D39*
X-192000Y381000D03*
D20*
X-157500Y381000D03*
D28*
X-150000Y381000D03*
D38*
X-106500Y381000D03*
D28*
X-98000Y381000D03*
D41*
X-38000Y381000D03*
D20*
X-3500Y381000D03*
D29*
X10500Y381000D03*
D21*
X45000Y381000D03*
D19*
X61500Y381000D03*
D20*
X97500Y381000D03*
D27*
X106000Y381000D03*
D39*
X148000Y381000D03*
D35*
X181500Y381000D03*
D38*
X265500Y381000D03*
D35*
X-214500Y382000D03*
D20*
X-201500Y382000D03*
D10*
X-191500Y382000D03*
D21*
X-157000Y382000D03*
D35*
X-149500Y382000D03*
D38*
X-106500Y382000D03*
D28*
X-97000Y382000D03*
D30*
X-39000Y382000D03*
D21*
X-3000Y382000D03*
D11*
X9000Y382000D03*
D20*
X46500Y382000D03*
D19*
X61500Y382000D03*
D20*
X97500Y382000D03*
D27*
X107000Y382000D03*
D38*
X147500Y382000D03*
D35*
X181500Y382000D03*
D21*
X267000Y382000D03*
D35*
X-215500Y383000D03*
D20*
X-201500Y383000D03*
D10*
X-191500Y383000D03*
D20*
X-156500Y383000D03*
D28*
X-149000Y383000D03*
D21*
X-106000Y383000D03*
D28*
X-97000Y383000D03*
D36*
X-40500Y383000D03*
D20*
X-2500Y383000D03*
D27*
X8000Y383000D03*
D20*
X47500Y383000D03*
D18*
X61000Y383000D03*
D20*
X97500Y383000D03*
D27*
X107000Y383000D03*
D21*
X148000Y383000D03*
D35*
X181500Y383000D03*
D21*
X268000Y383000D03*
D28*
X-216000Y384000D03*
D20*
X-201500Y384000D03*
D10*
X-191500Y384000D03*
D38*
X-156500Y384000D03*
D28*
X-149000Y384000D03*
D38*
X-105500Y384000D03*
D28*
X-96000Y384000D03*
D51*
X-41500Y384000D03*
D21*
X-2000Y384000D03*
D25*
X7500Y384000D03*
D20*
X48500Y384000D03*
D18*
X61000Y384000D03*
D20*
X97500Y384000D03*
D26*
X107500Y384000D03*
D20*
X147500Y384000D03*
D35*
X181500Y384000D03*
D21*
X269000Y384000D03*
D28*
X-217000Y385000D03*
D20*
X-201500Y385000D03*
D39*
X-191000Y385000D03*
D21*
X-156000Y385000D03*
D28*
X-148000Y385000D03*
D21*
X-105000Y385000D03*
D28*
X-96000Y385000D03*
D69*
X-42500Y385000D03*
D21*
X-1000Y385000D03*
D25*
X7500Y385000D03*
D12*
X49000Y385000D03*
D18*
X61000Y385000D03*
D20*
X97500Y385000D03*
D27*
X108000Y385000D03*
D12*
X147000Y385000D03*
D35*
X181500Y385000D03*
D20*
X269500Y385000D03*
D28*
X-218000Y386000D03*
D20*
X-200500Y386000D03*
D10*
X-190500Y386000D03*
D21*
X-156000Y386000D03*
D28*
X-148000Y386000D03*
D38*
X-104500Y386000D03*
D35*
X-95500Y386000D03*
D77*
X-44000Y386000D03*
D21*
X-1000Y386000D03*
D27*
X8000Y386000D03*
D12*
X50000Y386000D03*
D18*
X61000Y386000D03*
D20*
X97500Y386000D03*
D27*
X108000Y386000D03*
D35*
X181500Y386000D03*
D20*
X270500Y386000D03*
D10*
X-218500Y387000D03*
D20*
X-200500Y387000D03*
D10*
X-190500Y387000D03*
D38*
X-155500Y387000D03*
D35*
X-147500Y387000D03*
D21*
X-104000Y387000D03*
D28*
X-95000Y387000D03*
D78*
X-45500Y387000D03*
D21*
X0Y387000D03*
D26*
X7500Y387000D03*
D34*
X59500Y387000D03*
D21*
X97000Y387000D03*
D26*
X108500Y387000D03*
D35*
X181500Y387000D03*
D21*
X271000Y387000D03*
D28*
X-219000Y388000D03*
D21*
X-200000Y388000D03*
D10*
X-190500Y388000D03*
D20*
X-154500Y388000D03*
D28*
X-147000Y388000D03*
D38*
X-103500Y388000D03*
D28*
X-94000Y388000D03*
D48*
X-46500Y388000D03*
D22*
X5500Y388000D03*
D34*
X59500Y388000D03*
D21*
X97000Y388000D03*
D27*
X109000Y388000D03*
D35*
X181500Y388000D03*
D20*
X271500Y388000D03*
D10*
X-219500Y389000D03*
D20*
X-199500Y389000D03*
D39*
X-190000Y389000D03*
D21*
X-154000Y389000D03*
D28*
X-147000Y389000D03*
D21*
X-103000Y389000D03*
D28*
X-94000Y389000D03*
D57*
X-48500Y389000D03*
D22*
X5500Y389000D03*
D61*
X60000Y389000D03*
D20*
X96500Y389000D03*
D27*
X109000Y389000D03*
D35*
X181500Y389000D03*
D21*
X272000Y389000D03*
D10*
X-220500Y390000D03*
D20*
X-199500Y390000D03*
D10*
X-189500Y390000D03*
D20*
X-153500Y390000D03*
D28*
X-146000Y390000D03*
D38*
X-102500Y390000D03*
D79*
X-55500Y390000D03*
D22*
X6500Y390000D03*
D61*
X60000Y390000D03*
D20*
X96500Y390000D03*
D27*
X110000Y390000D03*
D26*
X181500Y390000D03*
D20*
X272500Y390000D03*
D28*
X-221000Y391000D03*
D20*
X-199500Y391000D03*
D10*
X-189500Y391000D03*
D20*
X-153500Y391000D03*
D28*
X-146000Y391000D03*
D38*
X-102500Y391000D03*
D79*
X-54500Y391000D03*
D22*
X6500Y391000D03*
D29*
X60500Y391000D03*
D20*
X96500Y391000D03*
D27*
X110000Y391000D03*
D26*
X181500Y391000D03*
D21*
X273000Y391000D03*
D10*
X-221500Y392000D03*
D21*
X-199000Y392000D03*
D10*
X-189500Y392000D03*
D20*
X-152500Y392000D03*
D28*
X-145000Y392000D03*
D21*
X-102000Y392000D03*
D79*
X-53500Y392000D03*
D23*
X7000Y392000D03*
D18*
X60000Y392000D03*
D20*
X96500Y392000D03*
D27*
X110000Y392000D03*
D26*
X181500Y392000D03*
D20*
X273500Y392000D03*
D28*
X-222000Y393000D03*
D20*
X-199500Y393000D03*
D10*
X-188500Y393000D03*
D20*
X-152500Y393000D03*
D28*
X-145000Y393000D03*
D21*
X-102000Y393000D03*
D79*
X-53500Y393000D03*
D25*
X6500Y393000D03*
D18*
X60000Y393000D03*
D20*
X96500Y393000D03*
D27*
X111000Y393000D03*
D26*
X181500Y393000D03*
D20*
X273500Y393000D03*
D10*
X-221500Y394000D03*
D20*
X-209500Y394000D03*
X-199500Y394000D03*
D10*
X-188500Y394000D03*
D21*
X-152000Y394000D03*
D35*
X-144500Y394000D03*
D21*
X-101000Y394000D03*
D80*
X-53000Y394000D03*
D25*
X6500Y394000D03*
D18*
X60000Y394000D03*
D20*
X96500Y394000D03*
D27*
X111000Y394000D03*
X182000Y394000D03*
D21*
X274000Y394000D03*
D10*
X-222500Y395000D03*
D12*
X-210000Y395000D03*
D21*
X-199000Y395000D03*
D10*
X-188500Y395000D03*
D20*
X-151500Y395000D03*
D28*
X-144000Y395000D03*
D21*
X-101000Y395000D03*
D48*
X-63500Y395000D03*
D31*
X-14000Y395000D03*
D25*
X6500Y395000D03*
D18*
X60000Y395000D03*
D20*
X96500Y395000D03*
D27*
X111000Y395000D03*
X182000Y395000D03*
D20*
X274500Y395000D03*
D10*
X-222500Y396000D03*
D20*
X-210500Y396000D03*
D21*
X-198000Y396000D03*
D39*
X-188000Y396000D03*
D21*
X-152000Y396000D03*
D28*
X-143000Y396000D03*
D21*
X-100000Y396000D03*
D78*
X-65500Y396000D03*
D10*
X-12500Y396000D03*
D25*
X6500Y396000D03*
D19*
X60500Y396000D03*
D20*
X96500Y396000D03*
D27*
X112000Y396000D03*
D21*
X178000Y396000D03*
D28*
X184000Y396000D03*
D20*
X274500Y396000D03*
D28*
X-223000Y397000D03*
D20*
X-211500Y397000D03*
X-198500Y397000D03*
D10*
X-187500Y397000D03*
D21*
X-151000Y397000D03*
D28*
X-143000Y397000D03*
D21*
X-100000Y397000D03*
D81*
X-67500Y397000D03*
D10*
X-11500Y397000D03*
D25*
X6500Y397000D03*
D19*
X60500Y397000D03*
D20*
X96500Y397000D03*
D27*
X112000Y397000D03*
D21*
X178000Y397000D03*
D28*
X185000Y397000D03*
D20*
X274500Y397000D03*
D10*
X-223500Y398000D03*
D21*
X-212000Y398000D03*
X-198000Y398000D03*
D10*
X-187500Y398000D03*
D20*
X-150500Y398000D03*
D35*
X-142500Y398000D03*
D21*
X-99000Y398000D03*
D82*
X-69000Y398000D03*
D38*
X-10500Y398000D03*
D25*
X6500Y398000D03*
D19*
X60500Y398000D03*
D20*
X96500Y398000D03*
D27*
X112000Y398000D03*
D21*
X178000Y398000D03*
D39*
X186000Y398000D03*
D21*
X275000Y398000D03*
D10*
X-223500Y399000D03*
D21*
X-212000Y399000D03*
X-198000Y399000D03*
D10*
X-187500Y399000D03*
D21*
X-150000Y399000D03*
D28*
X-142000Y399000D03*
D38*
X-98500Y399000D03*
D43*
X-70000Y399000D03*
D38*
X-9500Y399000D03*
D12*
X0Y399000D03*
D27*
X7000Y399000D03*
D19*
X60500Y399000D03*
D21*
X96000Y399000D03*
D27*
X113000Y399000D03*
D21*
X178000Y399000D03*
D39*
X187000Y399000D03*
D21*
X275000Y399000D03*
D10*
X-223500Y400000D03*
D21*
X-213000Y400000D03*
D20*
X-197500Y400000D03*
D10*
X-186500Y400000D03*
D21*
X-149000Y400000D03*
D28*
X-141000Y400000D03*
D21*
X-134000Y400000D03*
D35*
X-125500Y400000D03*
D21*
X-98000Y400000D03*
D43*
X-70000Y400000D03*
D21*
X-9000Y400000D03*
D25*
X6500Y400000D03*
D19*
X60500Y400000D03*
D21*
X96000Y400000D03*
D27*
X113000Y400000D03*
D21*
X178000Y400000D03*
D38*
X187500Y400000D03*
D21*
X275000Y400000D03*
D28*
X-224000Y401000D03*
D21*
X-213000Y401000D03*
D20*
X-196500Y401000D03*
D10*
X-186500Y401000D03*
D21*
X-149000Y401000D03*
D26*
X-139500Y401000D03*
D19*
X-125500Y401000D03*
D76*
X-76000Y401000D03*
D28*
X-48000Y401000D03*
D38*
X-8500Y401000D03*
D25*
X6500Y401000D03*
D19*
X60500Y401000D03*
D20*
X95500Y401000D03*
D27*
X114000Y401000D03*
D21*
X177000Y401000D03*
D38*
X188500Y401000D03*
D20*
X275500Y401000D03*
D10*
X-223500Y402000D03*
D21*
X-213000Y402000D03*
X-196000Y402000D03*
D39*
X-186000Y402000D03*
D38*
X-148500Y402000D03*
D54*
X-129000Y402000D03*
D17*
X-78000Y402000D03*
D28*
X-48000Y402000D03*
D21*
X-8000Y402000D03*
D27*
X7000Y402000D03*
D19*
X60500Y402000D03*
D20*
X95500Y402000D03*
D25*
X113500Y402000D03*
D21*
X177000Y402000D03*
D38*
X189500Y402000D03*
D21*
X275000Y402000D03*
D10*
X-224500Y403000D03*
D38*
X-213500Y403000D03*
D20*
X-195500Y403000D03*
D10*
X-185500Y403000D03*
D38*
X-147500Y403000D03*
D53*
X-128000Y403000D03*
D16*
X-79500Y403000D03*
D10*
X-48500Y403000D03*
D21*
X-7000Y403000D03*
D26*
X7500Y403000D03*
D19*
X60500Y403000D03*
D20*
X95500Y403000D03*
D25*
X113500Y403000D03*
D21*
X177000Y403000D03*
D38*
X190500Y403000D03*
D20*
X275500Y403000D03*
D10*
X-224500Y404000D03*
D38*
X-213500Y404000D03*
D21*
X-195000Y404000D03*
D10*
X-185500Y404000D03*
D39*
X-147000Y404000D03*
D53*
X-127000Y404000D03*
D54*
X-81000Y404000D03*
D10*
X-48500Y404000D03*
D21*
X-7000Y404000D03*
D26*
X7500Y404000D03*
D11*
X60000Y404000D03*
D20*
X95500Y404000D03*
D22*
X113500Y404000D03*
D21*
X177000Y404000D03*
D38*
X191500Y404000D03*
D20*
X275500Y404000D03*
D10*
X-224500Y405000D03*
D38*
X-213500Y405000D03*
D21*
X-195000Y405000D03*
D10*
X-184500Y405000D03*
D52*
X-128000Y405000D03*
D14*
X-82000Y405000D03*
D10*
X-48500Y405000D03*
D20*
X-6500Y405000D03*
D35*
X7500Y405000D03*
D11*
X60000Y405000D03*
D20*
X95500Y405000D03*
D11*
X113000Y405000D03*
D21*
X177000Y405000D03*
D38*
X192500Y405000D03*
D20*
X275500Y405000D03*
D10*
X-224500Y406000D03*
D38*
X-213500Y406000D03*
D20*
X-194500Y406000D03*
D10*
X-184500Y406000D03*
D36*
X-127500Y406000D03*
D40*
X-84000Y406000D03*
D10*
X-48500Y406000D03*
D21*
X-6000Y406000D03*
D28*
X8000Y406000D03*
D11*
X60000Y406000D03*
D20*
X95500Y406000D03*
D11*
X113000Y406000D03*
D21*
X177000Y406000D03*
D38*
X193500Y406000D03*
D20*
X275500Y406000D03*
D10*
X-224500Y407000D03*
D21*
X-214000Y407000D03*
D20*
X-194500Y407000D03*
D10*
X-184500Y407000D03*
D74*
X-127500Y407000D03*
D61*
X-86000Y407000D03*
D10*
X-48500Y407000D03*
D21*
X-6000Y407000D03*
D28*
X8000Y407000D03*
D11*
X60000Y407000D03*
D20*
X95500Y407000D03*
D18*
X113000Y407000D03*
D21*
X177000Y407000D03*
D39*
X195000Y407000D03*
D21*
X275000Y407000D03*
D10*
X-224500Y408000D03*
D21*
X-214000Y408000D03*
D20*
X-194500Y408000D03*
D10*
X-183500Y408000D03*
D76*
X-128000Y408000D03*
D18*
X-87000Y408000D03*
D10*
X-48500Y408000D03*
D20*
X-5500Y408000D03*
D10*
X8500Y408000D03*
D11*
X60000Y408000D03*
D20*
X95500Y408000D03*
D29*
X112500Y408000D03*
D21*
X177000Y408000D03*
D38*
X196500Y408000D03*
D20*
X275500Y408000D03*
D10*
X-224500Y409000D03*
D21*
X-214000Y409000D03*
D20*
X-193500Y409000D03*
D10*
X-183500Y409000D03*
D42*
X-128000Y409000D03*
D29*
X-87500Y409000D03*
D28*
X-49000Y409000D03*
D20*
X-5500Y409000D03*
D39*
X9000Y409000D03*
D11*
X60000Y409000D03*
D20*
X95500Y409000D03*
D29*
X112500Y409000D03*
D21*
X177000Y409000D03*
D10*
X198500Y409000D03*
D21*
X275000Y409000D03*
D10*
X-224500Y410000D03*
D38*
X-213500Y410000D03*
D20*
X-193500Y410000D03*
D10*
X-182500Y410000D03*
D70*
X-128000Y410000D03*
D29*
X-87500Y410000D03*
D28*
X-49000Y410000D03*
D21*
X-5000Y410000D03*
D39*
X9000Y410000D03*
D11*
X60000Y410000D03*
D20*
X95500Y410000D03*
D34*
X112500Y410000D03*
D21*
X177000Y410000D03*
D20*
X195500Y410000D03*
D10*
X200500Y410000D03*
D21*
X275000Y410000D03*
D10*
X-224500Y411000D03*
D38*
X-213500Y411000D03*
D20*
X-193500Y411000D03*
D10*
X-182500Y411000D03*
D43*
X-129000Y411000D03*
D29*
X-87500Y411000D03*
D28*
X-49000Y411000D03*
D21*
X-5000Y411000D03*
D38*
X9500Y411000D03*
D28*
X19000Y411000D03*
D19*
X59500Y411000D03*
D20*
X95500Y411000D03*
D47*
X112000Y411000D03*
D21*
X177000Y411000D03*
D28*
X194000Y411000D03*
D35*
X203500Y411000D03*
D21*
X275000Y411000D03*
D10*
X-224500Y412000D03*
D38*
X-213500Y412000D03*
D20*
X-192500Y412000D03*
D39*
X-182000Y412000D03*
D44*
X-129500Y412000D03*
D29*
X-87500Y412000D03*
D28*
X-49000Y412000D03*
D21*
X-5000Y412000D03*
X10000Y412000D03*
D27*
X18000Y412000D03*
D19*
X59500Y412000D03*
D20*
X94500Y412000D03*
D24*
X111500Y412000D03*
D21*
X177000Y412000D03*
D25*
X192500Y412000D03*
D23*
X209000Y412000D03*
D21*
X275000Y412000D03*
D10*
X-224500Y413000D03*
D38*
X-213500Y413000D03*
D21*
X-192000Y413000D03*
D10*
X-181500Y413000D03*
D81*
X-129500Y413000D03*
D18*
X-88000Y413000D03*
D28*
X-49000Y413000D03*
D21*
X-5000Y413000D03*
D19*
X16500Y413000D03*
X59500Y413000D03*
D20*
X94500Y413000D03*
D40*
X112000Y413000D03*
D21*
X177000Y413000D03*
D19*
X191500Y413000D03*
D72*
X220500Y413000D03*
D20*
X274500Y413000D03*
D10*
X-224500Y414000D03*
D38*
X-213500Y414000D03*
D20*
X-191500Y414000D03*
D10*
X-181500Y414000D03*
D64*
X-130000Y414000D03*
D18*
X-88000Y414000D03*
D28*
X-49000Y414000D03*
D20*
X-4500Y414000D03*
D11*
X17000Y414000D03*
D19*
X59500Y414000D03*
D20*
X94500Y414000D03*
D49*
X111500Y414000D03*
D38*
X176500Y414000D03*
D47*
X190000Y414000D03*
D29*
X230500Y414000D03*
D20*
X274500Y414000D03*
D10*
X-224500Y415000D03*
D38*
X-213500Y415000D03*
D20*
X-191500Y415000D03*
D10*
X-180500Y415000D03*
D83*
X-130000Y415000D03*
D18*
X-88000Y415000D03*
D10*
X-49500Y415000D03*
D20*
X-4500Y415000D03*
D22*
X17500Y415000D03*
D11*
X59000Y415000D03*
D20*
X94500Y415000D03*
D32*
X111500Y415000D03*
D71*
X188500Y415000D03*
D34*
X231500Y415000D03*
D20*
X274500Y415000D03*
D39*
X-224000Y416000D03*
D38*
X-213500Y416000D03*
D20*
X-190500Y416000D03*
D10*
X-180500Y416000D03*
D78*
X-130500Y416000D03*
D18*
X-88000Y416000D03*
D10*
X-49500Y416000D03*
D20*
X-4500Y416000D03*
D22*
X17500Y416000D03*
D11*
X59000Y416000D03*
D20*
X94500Y416000D03*
D13*
X111000Y416000D03*
D41*
X189000Y416000D03*
D24*
X231500Y416000D03*
D20*
X274500Y416000D03*
D10*
X-224500Y417000D03*
D38*
X-213500Y417000D03*
D21*
X-191000Y417000D03*
D10*
X-179500Y417000D03*
D65*
X-130500Y417000D03*
D18*
X-88000Y417000D03*
D10*
X-49500Y417000D03*
D20*
X-4500Y417000D03*
D22*
X17500Y417000D03*
D11*
X59000Y417000D03*
D20*
X94500Y417000D03*
D32*
X110500Y417000D03*
D72*
X189500Y417000D03*
D49*
X230500Y417000D03*
D21*
X274000Y417000D03*
D10*
X-223500Y418000D03*
D39*
X-213000Y418000D03*
D21*
X-190000Y418000D03*
D10*
X-179500Y418000D03*
D84*
X-131000Y418000D03*
D18*
X-88000Y418000D03*
D10*
X-49500Y418000D03*
D20*
X-4500Y418000D03*
D22*
X17500Y418000D03*
D11*
X59000Y418000D03*
D20*
X94500Y418000D03*
D32*
X109500Y418000D03*
D54*
X190000Y418000D03*
D32*
X230500Y418000D03*
D21*
X274000Y418000D03*
D10*
X-223500Y419000D03*
D39*
X-213000Y419000D03*
D20*
X-189500Y419000D03*
D10*
X-178500Y419000D03*
D60*
X-144500Y419000D03*
D27*
X-104000Y419000D03*
D18*
X-88000Y419000D03*
D10*
X-49500Y419000D03*
D20*
X-4500Y419000D03*
D22*
X17500Y419000D03*
D11*
X59000Y419000D03*
D20*
X94500Y419000D03*
D13*
X109000Y419000D03*
D12*
X148000Y419000D03*
D15*
X190500Y419000D03*
D71*
X229500Y419000D03*
D20*
X273500Y419000D03*
D10*
X-223500Y420000D03*
D29*
X-206500Y420000D03*
D21*
X-189000Y420000D03*
D10*
X-178500Y420000D03*
D15*
X-147500Y420000D03*
D12*
X-130000Y420000D03*
D35*
X-102500Y420000D03*
D18*
X-88000Y420000D03*
D10*
X-49500Y420000D03*
D20*
X-4500Y420000D03*
D22*
X17500Y420000D03*
D11*
X59000Y420000D03*
D71*
X107500Y420000D03*
D12*
X148000Y420000D03*
D73*
X191500Y420000D03*
D54*
X228000Y420000D03*
D20*
X273500Y420000D03*
D10*
X-223500Y421000D03*
D24*
X-204500Y421000D03*
D20*
X-188500Y421000D03*
D10*
X-177500Y421000D03*
D15*
X-148500Y421000D03*
D28*
X-101000Y421000D03*
D18*
X-88000Y421000D03*
D28*
X-50000Y421000D03*
D21*
X-5000Y421000D03*
D22*
X17500Y421000D03*
D11*
X59000Y421000D03*
D14*
X107000Y421000D03*
D20*
X147500Y421000D03*
D30*
X192000Y421000D03*
D53*
X227000Y421000D03*
D21*
X273000Y421000D03*
D10*
X-222500Y422000D03*
D71*
X-204500Y422000D03*
D21*
X-188000Y422000D03*
D10*
X-177500Y422000D03*
D72*
X-151500Y422000D03*
D49*
X-91500Y422000D03*
D28*
X-50000Y422000D03*
D21*
X-5000Y422000D03*
D22*
X17500Y422000D03*
D11*
X59000Y422000D03*
D32*
X106500Y422000D03*
D21*
X147000Y422000D03*
D56*
X209000Y422000D03*
D20*
X272500Y422000D03*
D33*
X-208000Y423000D03*
D20*
X-187500Y423000D03*
D10*
X-176500Y423000D03*
D41*
X-152000Y423000D03*
D24*
X-90500Y423000D03*
D28*
X-50000Y423000D03*
D21*
X-5000Y423000D03*
D22*
X17500Y423000D03*
D11*
X59000Y423000D03*
D13*
X106000Y423000D03*
D21*
X147000Y423000D03*
D56*
X209000Y423000D03*
D20*
X272500Y423000D03*
D17*
X-205000Y424000D03*
D10*
X-176500Y424000D03*
D14*
X-154000Y424000D03*
D47*
X-90000Y424000D03*
D28*
X-50000Y424000D03*
D21*
X-5000Y424000D03*
D23*
X17000Y424000D03*
D11*
X59000Y424000D03*
D13*
X106000Y424000D03*
D38*
X146500Y424000D03*
D57*
X208500Y424000D03*
D21*
X272000Y424000D03*
D74*
X-206500Y425000D03*
D10*
X-175500Y425000D03*
D32*
X-155500Y425000D03*
D34*
X-89500Y425000D03*
D28*
X-50000Y425000D03*
D21*
X-5000Y425000D03*
D23*
X17000Y425000D03*
D19*
X58500Y425000D03*
D13*
X105000Y425000D03*
D38*
X146500Y425000D03*
D57*
X208500Y425000D03*
D20*
X271500Y425000D03*
D76*
X-207000Y426000D03*
D39*
X-175000Y426000D03*
D13*
X-156000Y426000D03*
D29*
X-89500Y426000D03*
D10*
X-50500Y426000D03*
D21*
X-38000Y426000D03*
X-5000Y426000D03*
D22*
X16500Y426000D03*
D19*
X58500Y426000D03*
D49*
X104500Y426000D03*
D39*
X146000Y426000D03*
D30*
X191000Y426000D03*
D72*
X226500Y426000D03*
D20*
X271500Y426000D03*
D51*
X-207500Y427000D03*
D10*
X-174500Y427000D03*
D49*
X-157500Y427000D03*
D18*
X-89000Y427000D03*
D10*
X-50500Y427000D03*
D35*
X-39500Y427000D03*
D21*
X-5000Y427000D03*
D22*
X16500Y427000D03*
D19*
X58500Y427000D03*
D49*
X104500Y427000D03*
D10*
X145500Y427000D03*
D54*
X189000Y427000D03*
D72*
X226500Y427000D03*
D21*
X271000Y427000D03*
D70*
X-208000Y428000D03*
D72*
X-161500Y428000D03*
D19*
X-88500Y428000D03*
D61*
X-44000Y428000D03*
D20*
X-5500Y428000D03*
D22*
X16500Y428000D03*
D19*
X58500Y428000D03*
D40*
X104000Y428000D03*
D39*
X145000Y428000D03*
D71*
X187500Y428000D03*
D41*
X226000Y428000D03*
D20*
X270500Y428000D03*
D69*
X-208500Y429000D03*
D41*
X-162000Y429000D03*
D19*
X-88500Y429000D03*
D61*
X-44000Y429000D03*
D20*
X-5500Y429000D03*
D22*
X16500Y429000D03*
D19*
X58500Y429000D03*
D24*
X103500Y429000D03*
D10*
X144500Y429000D03*
D49*
X185500Y429000D03*
D71*
X225500Y429000D03*
D21*
X270000Y429000D03*
D82*
X-209000Y430000D03*
D32*
X-162500Y430000D03*
D11*
X-88000Y430000D03*
D34*
X-43500Y430000D03*
D20*
X-5500Y430000D03*
D22*
X16500Y430000D03*
D11*
X58000Y430000D03*
D47*
X103000Y430000D03*
D28*
X144000Y430000D03*
D34*
X183500Y430000D03*
D71*
X225500Y430000D03*
D21*
X270000Y430000D03*
D77*
X-210000Y431000D03*
D32*
X-162500Y431000D03*
D11*
X-88000Y431000D03*
D34*
X-43500Y431000D03*
D20*
X-5500Y431000D03*
D22*
X16500Y431000D03*
D11*
X58000Y431000D03*
D47*
X103000Y431000D03*
D28*
X144000Y431000D03*
D19*
X181500Y431000D03*
D32*
X225500Y431000D03*
D20*
X269500Y431000D03*
D64*
X-210000Y432000D03*
D40*
X-163000Y432000D03*
D22*
X-87500Y432000D03*
D34*
X-43500Y432000D03*
D21*
X-6000Y432000D03*
D22*
X16500Y432000D03*
D11*
X58000Y432000D03*
D34*
X102500Y432000D03*
D35*
X143500Y432000D03*
D23*
X180000Y432000D03*
D13*
X225000Y432000D03*
D21*
X269000Y432000D03*
D83*
X-210000Y433000D03*
D34*
X-162500Y433000D03*
D22*
X-87500Y433000D03*
D34*
X-43500Y433000D03*
D21*
X-6000Y433000D03*
D22*
X16500Y433000D03*
D11*
X58000Y433000D03*
D61*
X102000Y433000D03*
D31*
X143000Y433000D03*
X178000Y433000D03*
D40*
X224000Y433000D03*
D21*
X268000Y433000D03*
D78*
X-210500Y434000D03*
D34*
X-163500Y434000D03*
D23*
X-87000Y434000D03*
D47*
X-44000Y434000D03*
D21*
X-6000Y434000D03*
D22*
X16500Y434000D03*
D11*
X58000Y434000D03*
D61*
X102000Y434000D03*
D31*
X143000Y434000D03*
D35*
X177500Y434000D03*
D47*
X224000Y434000D03*
D20*
X267500Y434000D03*
D65*
X-210500Y435000D03*
D61*
X-164000Y435000D03*
D23*
X-87000Y435000D03*
D34*
X-44500Y435000D03*
D21*
X-6000Y435000D03*
D22*
X16500Y435000D03*
D11*
X58000Y435000D03*
D29*
X101500Y435000D03*
D26*
X142500Y435000D03*
D35*
X177500Y435000D03*
D29*
X223500Y435000D03*
D21*
X267000Y435000D03*
D48*
X-210500Y436000D03*
D29*
X-164500Y436000D03*
D25*
X-86500Y436000D03*
D34*
X-44500Y436000D03*
D21*
X-6000Y436000D03*
D23*
X16000Y436000D03*
D11*
X58000Y436000D03*
D29*
X100500Y436000D03*
D27*
X142000Y436000D03*
D35*
X177500Y436000D03*
D19*
X222500Y436000D03*
D20*
X266500Y436000D03*
D58*
X-210500Y437000D03*
D61*
X-165000Y437000D03*
D25*
X-86500Y437000D03*
D34*
X-44500Y437000D03*
D20*
X-6500Y437000D03*
D23*
X16000Y437000D03*
D19*
X57500Y437000D03*
D29*
X100500Y437000D03*
D27*
X142000Y437000D03*
D31*
X177000Y437000D03*
D27*
X222000Y437000D03*
D21*
X266000Y437000D03*
D50*
X-211000Y438000D03*
D12*
X-176000Y438000D03*
D18*
X-166000Y438000D03*
D27*
X-87000Y438000D03*
D34*
X-44500Y438000D03*
D20*
X-6500Y438000D03*
D23*
X16000Y438000D03*
D19*
X57500Y438000D03*
D18*
X100000Y438000D03*
D25*
X141500Y438000D03*
D31*
X177000Y438000D03*
D20*
X220500Y438000D03*
X265500Y438000D03*
D66*
X-201500Y439000D03*
D26*
X-86500Y439000D03*
D34*
X-44500Y439000D03*
D20*
X-6500Y439000D03*
D19*
X14500Y439000D03*
X57500Y439000D03*
X99500Y439000D03*
D23*
X141000Y439000D03*
D31*
X177000Y439000D03*
D20*
X264500Y439000D03*
D51*
X-223500Y440000D03*
D12*
X-196000Y440000D03*
D16*
X-176500Y440000D03*
D26*
X-86500Y440000D03*
D34*
X-44500Y440000D03*
D20*
X-6500Y440000D03*
D61*
X13000Y440000D03*
D19*
X57500Y440000D03*
D11*
X99000Y440000D03*
D25*
X140500Y440000D03*
D31*
X177000Y440000D03*
D21*
X264000Y440000D03*
D36*
X-227500Y441000D03*
D12*
X-206000Y441000D03*
D25*
X-184500Y441000D03*
D18*
X-168000Y441000D03*
D26*
X-86500Y441000D03*
D34*
X-44500Y441000D03*
D20*
X-6500Y441000D03*
D40*
X11000Y441000D03*
D19*
X57500Y441000D03*
D11*
X99000Y441000D03*
D23*
X140000Y441000D03*
D31*
X177000Y441000D03*
D21*
X263000Y441000D03*
D60*
X-229500Y442000D03*
D35*
X-182500Y442000D03*
D18*
X-168000Y442000D03*
D26*
X-86500Y442000D03*
D34*
X-44500Y442000D03*
D20*
X-6500Y442000D03*
D13*
X10000Y442000D03*
D11*
X57000Y442000D03*
D22*
X98500Y442000D03*
X139500Y442000D03*
D31*
X177000Y442000D03*
D20*
X262500Y442000D03*
D30*
X-231000Y443000D03*
D13*
X-173000Y443000D03*
D31*
X-86000Y443000D03*
D34*
X-44500Y443000D03*
D72*
X7500Y443000D03*
D11*
X57000Y443000D03*
D23*
X98000Y443000D03*
D22*
X139500Y443000D03*
D31*
X177000Y443000D03*
D21*
X262000Y443000D03*
D53*
X-233000Y444000D03*
D24*
X-172500Y444000D03*
D31*
X-86000Y444000D03*
D34*
X-44500Y444000D03*
D72*
X7500Y444000D03*
D11*
X57000Y444000D03*
D23*
X98000Y444000D03*
D11*
X139000Y444000D03*
D31*
X177000Y444000D03*
D21*
X261000Y444000D03*
D15*
X-234500Y445000D03*
D24*
X-172500Y445000D03*
D31*
X-86000Y445000D03*
D34*
X-44500Y445000D03*
D54*
X7000Y445000D03*
D35*
X53500Y445000D03*
D39*
X62000Y445000D03*
D25*
X97500Y445000D03*
D11*
X139000Y445000D03*
D31*
X177000Y445000D03*
D38*
X260500Y445000D03*
D72*
X-235500Y446000D03*
D34*
X-172500Y446000D03*
D31*
X-86000Y446000D03*
D47*
X-45000Y446000D03*
D54*
X7000Y446000D03*
D38*
X51500Y446000D03*
D39*
X62000Y446000D03*
D27*
X97000Y446000D03*
D19*
X138500Y446000D03*
D31*
X177000Y446000D03*
D38*
X259500Y446000D03*
D41*
X-237000Y447000D03*
D29*
X-172500Y447000D03*
D31*
X-127000Y447000D03*
X-86000Y447000D03*
D34*
X-45500Y447000D03*
D72*
X6500Y447000D03*
D12*
X50000Y447000D03*
D39*
X62000Y447000D03*
D26*
X96500Y447000D03*
D18*
X138000Y447000D03*
D26*
X177500Y447000D03*
D38*
X258500Y447000D03*
D14*
X-238000Y448000D03*
D19*
X-171500Y448000D03*
D25*
X-127500Y448000D03*
D31*
X-86000Y448000D03*
D34*
X-45500Y448000D03*
D72*
X6500Y448000D03*
D39*
X62000Y448000D03*
D27*
X96000Y448000D03*
D29*
X137500Y448000D03*
D26*
X177500Y448000D03*
D39*
X258000Y448000D03*
D32*
X-239500Y449000D03*
D11*
X-172000Y449000D03*
D22*
X-127500Y449000D03*
D31*
X-86000Y449000D03*
D34*
X-45500Y449000D03*
D72*
X6500Y449000D03*
D39*
X61000Y449000D03*
D31*
X95000Y449000D03*
D61*
X137000Y449000D03*
D26*
X177500Y449000D03*
D38*
X257500Y449000D03*
D32*
X-240500Y450000D03*
D23*
X-172000Y450000D03*
D19*
X-127500Y450000D03*
D31*
X-86000Y450000D03*
D34*
X-45500Y450000D03*
D72*
X6500Y450000D03*
D10*
X61500Y450000D03*
D35*
X95500Y450000D03*
D40*
X135000Y450000D03*
D26*
X177500Y450000D03*
D38*
X256500Y450000D03*
D49*
X-241500Y451000D03*
D25*
X-171500Y451000D03*
D29*
X-128500Y451000D03*
D28*
X-86000Y451000D03*
D34*
X-45500Y451000D03*
D72*
X6500Y451000D03*
D39*
X61000Y451000D03*
D12*
X92000Y451000D03*
D39*
X96000Y451000D03*
D14*
X133000Y451000D03*
D25*
X177500Y451000D03*
D10*
X255500Y451000D03*
D40*
X-242000Y452000D03*
D27*
X-172000Y452000D03*
D29*
X-128500Y452000D03*
D35*
X-86500Y452000D03*
D34*
X-45500Y452000D03*
D72*
X6500Y452000D03*
D38*
X61500Y452000D03*
D10*
X94500Y452000D03*
D31*
X121000Y452000D03*
D19*
X137500Y452000D03*
D21*
X173000Y452000D03*
D35*
X179500Y452000D03*
D10*
X254500Y452000D03*
D24*
X-243500Y453000D03*
D26*
X-171500Y453000D03*
D34*
X-128500Y453000D03*
D28*
X-86000Y453000D03*
D34*
X-45500Y453000D03*
D72*
X6500Y453000D03*
D38*
X61500Y453000D03*
D21*
X93000Y453000D03*
D12*
X96000Y453000D03*
X113000Y453000D03*
D28*
X118000Y453000D03*
D19*
X137500Y453000D03*
D21*
X173000Y453000D03*
D28*
X180000Y453000D03*
D10*
X253500Y453000D03*
D47*
X-244000Y454000D03*
D27*
X-172000Y454000D03*
D47*
X-129000Y454000D03*
D28*
X-86000Y454000D03*
D34*
X-45500Y454000D03*
D72*
X6500Y454000D03*
D38*
X61500Y454000D03*
D10*
X93500Y454000D03*
D12*
X109000Y454000D03*
D10*
X113500Y454000D03*
D12*
X118000Y454000D03*
D18*
X137000Y454000D03*
D21*
X173000Y454000D03*
D28*
X181000Y454000D03*
X253000Y454000D03*
D47*
X-245000Y455000D03*
D26*
X-171500Y455000D03*
D47*
X-129000Y455000D03*
D28*
X-86000Y455000D03*
D34*
X-45500Y455000D03*
D41*
X6000Y455000D03*
D39*
X61000Y455000D03*
D10*
X93500Y455000D03*
D35*
X110500Y455000D03*
D18*
X137000Y455000D03*
D20*
X172500Y455000D03*
D10*
X181500Y455000D03*
D28*
X252000Y455000D03*
D34*
X-245500Y456000D03*
D35*
X-171500Y456000D03*
D24*
X-129500Y456000D03*
D28*
X-86000Y456000D03*
D34*
X-45500Y456000D03*
D32*
X3500Y456000D03*
D39*
X61000Y456000D03*
X93000Y456000D03*
D21*
X103000Y456000D03*
D10*
X110500Y456000D03*
D18*
X137000Y456000D03*
D20*
X172500Y456000D03*
D10*
X182500Y456000D03*
D35*
X250500Y456000D03*
D61*
X-246000Y457000D03*
D35*
X-171500Y457000D03*
D40*
X-130000Y457000D03*
D10*
X-86500Y457000D03*
D61*
X-46000Y457000D03*
D40*
X2000Y457000D03*
D39*
X61000Y457000D03*
D21*
X92000Y457000D03*
D12*
X98000Y457000D03*
D21*
X101000Y457000D03*
D28*
X112000Y457000D03*
D18*
X137000Y457000D03*
D20*
X172500Y457000D03*
D39*
X183000Y457000D03*
D35*
X249500Y457000D03*
D29*
X-246500Y458000D03*
D35*
X-171500Y458000D03*
D13*
X-131000Y458000D03*
D28*
X-86000Y458000D03*
D34*
X-46500Y458000D03*
D61*
X0Y458000D03*
D39*
X61000Y458000D03*
D21*
X92000Y458000D03*
D38*
X96500Y458000D03*
D35*
X113500Y458000D03*
D19*
X136500Y458000D03*
D20*
X172500Y458000D03*
D39*
X184000Y458000D03*
D31*
X248000Y458000D03*
D29*
X-247500Y459000D03*
D28*
X-172000Y459000D03*
D72*
X-133500Y459000D03*
D28*
X-87000Y459000D03*
D34*
X-46500Y459000D03*
D29*
X-500Y459000D03*
D39*
X61000Y459000D03*
D20*
X91500Y459000D03*
D35*
X114500Y459000D03*
D19*
X136500Y459000D03*
D20*
X172500Y459000D03*
D39*
X185000Y459000D03*
D31*
X248000Y459000D03*
D18*
X-248000Y460000D03*
D39*
X-172000Y460000D03*
D12*
X-152000Y460000D03*
D54*
X-135000Y460000D03*
D28*
X-86000Y460000D03*
D34*
X-46500Y460000D03*
D29*
X-500Y460000D03*
D10*
X60500Y460000D03*
D20*
X87500Y460000D03*
D12*
X90000Y460000D03*
D20*
X112500Y460000D03*
D38*
X116500Y460000D03*
D18*
X137000Y460000D03*
D20*
X172500Y460000D03*
D38*
X185500Y460000D03*
D27*
X246000Y460000D03*
D19*
X-248500Y461000D03*
D28*
X-172000Y461000D03*
D12*
X-156000Y461000D03*
D15*
X-138500Y461000D03*
D28*
X-86000Y461000D03*
D34*
X-46500Y461000D03*
D35*
X-5500Y461000D03*
X4500Y461000D03*
D10*
X60500Y461000D03*
D20*
X83500Y461000D03*
D12*
X86000Y461000D03*
D35*
X116500Y461000D03*
D18*
X137000Y461000D03*
D20*
X172500Y461000D03*
D21*
X187000Y461000D03*
D25*
X244500Y461000D03*
D19*
X-248500Y462000D03*
D39*
X-172000Y462000D03*
D15*
X-141500Y462000D03*
D28*
X-87000Y462000D03*
D34*
X-46500Y462000D03*
D38*
X-7500Y462000D03*
D35*
X4500Y462000D03*
D39*
X61000Y462000D03*
D12*
X80000Y462000D03*
D20*
X82500Y462000D03*
D26*
X117500Y462000D03*
D18*
X137000Y462000D03*
D21*
X172000Y462000D03*
X188000Y462000D03*
D27*
X244000Y462000D03*
D19*
X-249500Y463000D03*
D39*
X-172000Y463000D03*
D15*
X-146500Y463000D03*
D12*
X-129000Y463000D03*
D10*
X-86500Y463000D03*
D34*
X-46500Y463000D03*
D12*
X-9000Y463000D03*
D28*
X4000Y463000D03*
D10*
X60500Y463000D03*
D12*
X76000Y463000D03*
D20*
X78500Y463000D03*
D31*
X119000Y463000D03*
D19*
X136500Y463000D03*
D21*
X172000Y463000D03*
X189000Y463000D03*
D39*
X238000Y463000D03*
X247000Y463000D03*
D11*
X-250000Y464000D03*
D38*
X-172500Y464000D03*
D12*
X-167000Y464000D03*
D54*
X-150000Y464000D03*
D12*
X-133000Y464000D03*
D10*
X-86500Y464000D03*
D34*
X-46500Y464000D03*
D28*
X4000Y464000D03*
D10*
X60500Y464000D03*
D21*
X75000Y464000D03*
D31*
X120000Y464000D03*
D19*
X136500Y464000D03*
D21*
X172000Y464000D03*
X190000Y464000D03*
D28*
X236000Y464000D03*
D38*
X246500Y464000D03*
D22*
X-250500Y465000D03*
D39*
X-172000Y465000D03*
D15*
X-152500Y465000D03*
D10*
X-86500Y465000D03*
D34*
X-46500Y465000D03*
D28*
X4000Y465000D03*
D38*
X60500Y465000D03*
D20*
X71500Y465000D03*
D31*
X122000Y465000D03*
D19*
X136500Y465000D03*
D20*
X171500Y465000D03*
D38*
X191500Y465000D03*
D31*
X235000Y465000D03*
D21*
X246000Y465000D03*
D22*
X-250500Y466000D03*
D38*
X-209500Y466000D03*
D53*
X-158000Y466000D03*
D28*
X-87000Y466000D03*
D34*
X-46500Y466000D03*
D28*
X4000Y466000D03*
D10*
X60500Y466000D03*
D12*
X65000Y466000D03*
D10*
X69500Y466000D03*
D31*
X122000Y466000D03*
D18*
X136000Y466000D03*
D20*
X171500Y466000D03*
D39*
X193000Y466000D03*
D35*
X232500Y466000D03*
D21*
X245000Y466000D03*
D23*
X-251000Y467000D03*
D31*
X-210000Y467000D03*
D71*
X-159500Y467000D03*
D12*
X-144000Y467000D03*
D28*
X-87000Y467000D03*
D34*
X-46500Y467000D03*
D28*
X4000Y467000D03*
D10*
X61500Y467000D03*
D39*
X71000Y467000D03*
D13*
X132000Y467000D03*
D20*
X171500Y467000D03*
D10*
X194500Y467000D03*
D27*
X229000Y467000D03*
D21*
X245000Y467000D03*
D23*
X-251000Y468000D03*
D25*
X-210500Y468000D03*
D14*
X-161000Y468000D03*
D28*
X-87000Y468000D03*
D34*
X-46500Y468000D03*
D28*
X4000Y468000D03*
X60000Y468000D03*
D10*
X71500Y468000D03*
D24*
X133500Y468000D03*
D20*
X171500Y468000D03*
D39*
X196000Y468000D03*
D12*
X200000Y468000D03*
X220000Y468000D03*
D25*
X227500Y468000D03*
D38*
X243500Y468000D03*
D25*
X-251500Y469000D03*
D22*
X-210500Y469000D03*
D24*
X-163500Y469000D03*
D28*
X-87000Y469000D03*
D34*
X-47500Y469000D03*
D28*
X4000Y469000D03*
D27*
X59000Y469000D03*
D10*
X72500Y469000D03*
D34*
X133500Y469000D03*
D20*
X171500Y469000D03*
D10*
X199500Y469000D03*
D12*
X204000Y469000D03*
D31*
X210000Y469000D03*
X220000Y469000D03*
D10*
X228500Y469000D03*
D21*
X243000Y469000D03*
D25*
X-251500Y470000D03*
D11*
X-211000Y470000D03*
D24*
X-167500Y470000D03*
D12*
X-155000Y470000D03*
D10*
X-87500Y470000D03*
D34*
X-47500Y470000D03*
D35*
X3500Y470000D03*
D31*
X54000Y470000D03*
D38*
X63500Y470000D03*
D28*
X74000Y470000D03*
D29*
X134500Y470000D03*
D20*
X171500Y470000D03*
D12*
X199000Y470000D03*
D47*
X211000Y470000D03*
D31*
X227000Y470000D03*
D21*
X242000Y470000D03*
D27*
X-252000Y471000D03*
D19*
X-211500Y471000D03*
D40*
X-172000Y471000D03*
D12*
X-159000Y471000D03*
D28*
X-88000Y471000D03*
D61*
X-48000Y471000D03*
D28*
X4000Y471000D03*
D26*
X51500Y471000D03*
D38*
X64500Y471000D03*
D10*
X75500Y471000D03*
D29*
X134500Y471000D03*
D20*
X171500Y471000D03*
D21*
X204000Y471000D03*
X214000Y471000D03*
D35*
X224500Y471000D03*
D21*
X241000Y471000D03*
D27*
X-252000Y472000D03*
D29*
X-211500Y472000D03*
D47*
X-175000Y472000D03*
D12*
X-163000Y472000D03*
D28*
X-87000Y472000D03*
D11*
X-50000Y472000D03*
D35*
X3500Y472000D03*
D10*
X49500Y472000D03*
D38*
X65500Y472000D03*
D10*
X75500Y472000D03*
D19*
X136500Y472000D03*
D20*
X171500Y472000D03*
D35*
X223500Y472000D03*
D38*
X240500Y472000D03*
D26*
X-252500Y473000D03*
D18*
X-212000Y473000D03*
D28*
X-187000Y473000D03*
D12*
X-182000Y473000D03*
D25*
X-173500Y473000D03*
D35*
X-87500Y473000D03*
D25*
X-51500Y473000D03*
D35*
X3500Y473000D03*
D21*
X48000Y473000D03*
X66000Y473000D03*
D22*
X75500Y473000D03*
D23*
X137000Y473000D03*
D20*
X171500Y473000D03*
D12*
X216000Y473000D03*
D35*
X221500Y473000D03*
D38*
X239500Y473000D03*
D26*
X-252500Y474000D03*
D29*
X-212500Y474000D03*
D12*
X-194000Y474000D03*
D10*
X-189500Y474000D03*
D31*
X-175000Y474000D03*
D28*
X-88000Y474000D03*
D35*
X-53500Y474000D03*
X3500Y474000D03*
D21*
X48000Y474000D03*
D61*
X75000Y474000D03*
D23*
X137000Y474000D03*
D38*
X170500Y474000D03*
D26*
X219500Y474000D03*
D21*
X239000Y474000D03*
D31*
X-253000Y475000D03*
D29*
X-212500Y475000D03*
D12*
X-198000Y475000D03*
D26*
X-191500Y475000D03*
D31*
X-175000Y475000D03*
D28*
X-88000Y475000D03*
X-54000Y475000D03*
D35*
X3500Y475000D03*
D21*
X48000Y475000D03*
D47*
X75000Y475000D03*
D27*
X139000Y475000D03*
D35*
X168500Y475000D03*
D25*
X216500Y475000D03*
D21*
X238000Y475000D03*
D31*
X-253000Y476000D03*
D34*
X-211500Y476000D03*
D11*
X-193000Y476000D03*
D35*
X-175500Y476000D03*
X-88500Y476000D03*
D28*
X-54000Y476000D03*
X3000Y476000D03*
D21*
X48000Y476000D03*
D35*
X66500Y476000D03*
D10*
X83500Y476000D03*
D31*
X139000Y476000D03*
X166000Y476000D03*
D25*
X213500Y476000D03*
D21*
X238000Y476000D03*
D31*
X-253000Y477000D03*
D60*
X-203500Y477000D03*
D35*
X-175500Y477000D03*
D28*
X-88000Y477000D03*
X-54000Y477000D03*
X3000Y477000D03*
D21*
X48000Y477000D03*
D10*
X64500Y477000D03*
D38*
X85500Y477000D03*
D10*
X140500Y477000D03*
D12*
X158000Y477000D03*
D28*
X163000Y477000D03*
D12*
X204000Y477000D03*
D27*
X211000Y477000D03*
D21*
X236000Y477000D03*
D28*
X-253000Y478000D03*
D33*
X-203000Y478000D03*
D31*
X-175000Y478000D03*
D35*
X-88500Y478000D03*
D28*
X-54000Y478000D03*
X3000Y478000D03*
D20*
X47500Y478000D03*
D38*
X63500Y478000D03*
X86500Y478000D03*
D21*
X142000Y478000D03*
D12*
X154000Y478000D03*
D28*
X159000Y478000D03*
D12*
X200000Y478000D03*
D22*
X208500Y478000D03*
D39*
X235000Y478000D03*
D28*
X-253000Y479000D03*
D33*
X-203000Y479000D03*
D35*
X-175500Y479000D03*
X-88500Y479000D03*
D28*
X-54000Y479000D03*
X3000Y479000D03*
D21*
X18000Y479000D03*
D20*
X47500Y479000D03*
D38*
X62500Y479000D03*
D39*
X88000Y479000D03*
D21*
X142000Y479000D03*
D27*
X156000Y479000D03*
D12*
X195000Y479000D03*
D22*
X204500Y479000D03*
D39*
X234000Y479000D03*
D28*
X-253000Y480000D03*
D16*
X-202500Y480000D03*
D31*
X-175000Y480000D03*
X-89000Y480000D03*
D28*
X-54000Y480000D03*
X3000Y480000D03*
D12*
X13000Y480000D03*
D39*
X17000Y480000D03*
D20*
X47500Y480000D03*
D39*
X62000Y480000D03*
X89000Y480000D03*
D20*
X142500Y480000D03*
D12*
X147000Y480000D03*
D18*
X157000Y480000D03*
D39*
X170000Y480000D03*
X187000Y480000D03*
D61*
X201000Y480000D03*
D38*
X233500Y480000D03*
D28*
X-253000Y481000D03*
D16*
X-201500Y481000D03*
D35*
X-174500Y481000D03*
D21*
X-121000Y481000D03*
D28*
X-89000Y481000D03*
X-54000Y481000D03*
X3000Y481000D03*
D26*
X13500Y481000D03*
D20*
X47500Y481000D03*
D39*
X61000Y481000D03*
D10*
X90500Y481000D03*
D12*
X142000Y481000D03*
D21*
X145000Y481000D03*
D81*
X175500Y481000D03*
D38*
X232500Y481000D03*
D28*
X-253000Y482000D03*
D53*
X-200000Y482000D03*
D35*
X-174500Y482000D03*
D12*
X-126000Y482000D03*
D38*
X-122500Y482000D03*
D35*
X-89500Y482000D03*
D28*
X-54000Y482000D03*
D47*
X9000Y482000D03*
D20*
X47500Y482000D03*
D38*
X60500Y482000D03*
D35*
X91500Y482000D03*
D70*
X175000Y482000D03*
D12*
X202000Y482000D03*
D38*
X231500Y482000D03*
D10*
X-253500Y483000D03*
D21*
X-204000Y483000D03*
D18*
X-192000Y483000D03*
D35*
X-174500Y483000D03*
D12*
X-130000Y483000D03*
D35*
X-124500Y483000D03*
X-89500Y483000D03*
X-54500Y483000D03*
D21*
X0Y483000D03*
D18*
X11000Y483000D03*
D21*
X47000Y483000D03*
D38*
X59500Y483000D03*
D31*
X93000Y483000D03*
D12*
X155000Y483000D03*
D33*
X177000Y483000D03*
D10*
X230500Y483000D03*
D39*
X-253000Y484000D03*
D12*
X-196000Y484000D03*
D25*
X-188500Y484000D03*
D35*
X-174500Y484000D03*
D12*
X-134000Y484000D03*
D25*
X-126500Y484000D03*
D31*
X-89000Y484000D03*
D35*
X-54500Y484000D03*
D10*
X-1500Y484000D03*
D19*
X11500Y484000D03*
D21*
X47000Y484000D03*
D38*
X58500Y484000D03*
X90500Y484000D03*
D39*
X96000Y484000D03*
D53*
X176000Y484000D03*
D28*
X228000Y484000D03*
D39*
X-253000Y485000D03*
D12*
X-193000Y485000D03*
D31*
X-187000Y485000D03*
D35*
X-174500Y485000D03*
D11*
X-129000Y485000D03*
D26*
X-89500Y485000D03*
D35*
X-54500Y485000D03*
D31*
X-3000Y485000D03*
D11*
X11000Y485000D03*
D21*
X47000Y485000D03*
D38*
X58500Y485000D03*
X90500Y485000D03*
D39*
X98000Y485000D03*
D12*
X167000Y485000D03*
X175000Y485000D03*
D28*
X227000Y485000D03*
D39*
X-253000Y486000D03*
D35*
X-186500Y486000D03*
X-174500Y486000D03*
D12*
X-141000Y486000D03*
D61*
X-130000Y486000D03*
D31*
X-90000Y486000D03*
D35*
X-54500Y486000D03*
D27*
X-5000Y486000D03*
D11*
X11000Y486000D03*
D38*
X47500Y486000D03*
D21*
X58000Y486000D03*
X91000Y486000D03*
D39*
X100000Y486000D03*
D31*
X226000Y486000D03*
D39*
X-253000Y487000D03*
D28*
X-185000Y487000D03*
D35*
X-174500Y487000D03*
D47*
X-132000Y487000D03*
D31*
X-90000Y487000D03*
D28*
X-55000Y487000D03*
D27*
X-6000Y487000D03*
D11*
X11000Y487000D03*
D39*
X48000Y487000D03*
D38*
X57500Y487000D03*
X91500Y487000D03*
D39*
X102000Y487000D03*
D26*
X224500Y487000D03*
D38*
X-252500Y488000D03*
D39*
X-184000Y488000D03*
D28*
X-175000Y488000D03*
D47*
X-132000Y488000D03*
D26*
X-90500Y488000D03*
D28*
X-55000Y488000D03*
D31*
X-7000Y488000D03*
D11*
X11000Y488000D03*
D10*
X48500Y488000D03*
D21*
X57000Y488000D03*
D39*
X92000Y488000D03*
X104000Y488000D03*
D27*
X223000Y488000D03*
D38*
X-252500Y489000D03*
X-183500Y489000D03*
D10*
X-174500Y489000D03*
D47*
X-132000Y489000D03*
D26*
X-90500Y489000D03*
D28*
X-55000Y489000D03*
D21*
X-11000Y489000D03*
D10*
X-5500Y489000D03*
D11*
X11000Y489000D03*
D31*
X50000Y489000D03*
D21*
X57000Y489000D03*
D38*
X78500Y489000D03*
D10*
X92500Y489000D03*
D39*
X106000Y489000D03*
D25*
X221500Y489000D03*
D38*
X-252500Y490000D03*
X-182500Y490000D03*
D28*
X-174000Y490000D03*
D34*
X-132500Y490000D03*
D26*
X-90500Y490000D03*
D28*
X-55000Y490000D03*
D27*
X-7000Y490000D03*
D22*
X10500Y490000D03*
D23*
X52000Y490000D03*
D10*
X78500Y490000D03*
D28*
X93000Y490000D03*
D39*
X109000Y490000D03*
D38*
X216500Y490000D03*
D28*
X223000Y490000D03*
D38*
X-252500Y491000D03*
X-181500Y491000D03*
D28*
X-174000Y491000D03*
D61*
X-133000Y491000D03*
D27*
X-91000Y491000D03*
D28*
X-55000Y491000D03*
D25*
X-6500Y491000D03*
D23*
X11000Y491000D03*
D31*
X50000Y491000D03*
D21*
X57000Y491000D03*
D35*
X77500Y491000D03*
D38*
X91500Y491000D03*
D21*
X96000Y491000D03*
D39*
X111000Y491000D03*
D38*
X214500Y491000D03*
D39*
X223000Y491000D03*
D38*
X-252500Y492000D03*
X-180500Y492000D03*
D10*
X-174500Y492000D03*
D61*
X-133000Y492000D03*
D27*
X-91000Y492000D03*
D28*
X-55000Y492000D03*
D38*
X-10500Y492000D03*
D35*
X-2500Y492000D03*
D22*
X11500Y492000D03*
D12*
X46000Y492000D03*
D27*
X53000Y492000D03*
D35*
X77500Y492000D03*
D21*
X92000Y492000D03*
D39*
X98000Y492000D03*
X114000Y492000D03*
X213000Y492000D03*
D28*
X221000Y492000D03*
D21*
X-252000Y493000D03*
D27*
X-176000Y493000D03*
D18*
X-133000Y493000D03*
D27*
X-92000Y493000D03*
D28*
X-55000Y493000D03*
D21*
X-11000Y493000D03*
D31*
X-1000Y493000D03*
D25*
X11500Y493000D03*
D12*
X46000Y493000D03*
D20*
X48500Y493000D03*
D35*
X54500Y493000D03*
D38*
X74500Y493000D03*
D21*
X80000Y493000D03*
X92000Y493000D03*
D38*
X99500Y493000D03*
D39*
X116000Y493000D03*
X211000Y493000D03*
D28*
X220000Y493000D03*
D21*
X-252000Y494000D03*
D27*
X-176000Y494000D03*
D29*
X-133500Y494000D03*
D25*
X-92500Y494000D03*
D28*
X-55000Y494000D03*
D21*
X-11000Y494000D03*
D40*
X7000Y494000D03*
D12*
X46000Y494000D03*
D10*
X55500Y494000D03*
D38*
X74500Y494000D03*
D12*
X79000Y494000D03*
D21*
X92000Y494000D03*
D39*
X101000Y494000D03*
D20*
X118500Y494000D03*
D10*
X208500Y494000D03*
X219500Y494000D03*
D21*
X-252000Y495000D03*
D27*
X-176000Y495000D03*
D19*
X-133500Y495000D03*
D25*
X-92500Y495000D03*
D28*
X-55000Y495000D03*
D39*
X-41000Y495000D03*
D21*
X-11000Y495000D03*
D35*
X1500Y495000D03*
D25*
X12500Y495000D03*
D20*
X45500Y495000D03*
D39*
X56000Y495000D03*
D35*
X76500Y495000D03*
D38*
X91500Y495000D03*
D39*
X103000Y495000D03*
D28*
X206000Y495000D03*
D10*
X218500Y495000D03*
D21*
X-252000Y496000D03*
D31*
X-176000Y496000D03*
D11*
X-134000Y496000D03*
D23*
X-92000Y496000D03*
D35*
X-55500Y496000D03*
D28*
X-43000Y496000D03*
D21*
X-11000Y496000D03*
D29*
X8500Y496000D03*
D12*
X46000Y496000D03*
D20*
X48500Y496000D03*
D39*
X56000Y496000D03*
D35*
X76500Y496000D03*
D39*
X92000Y496000D03*
D10*
X105500Y496000D03*
D28*
X203000Y496000D03*
D10*
X217500Y496000D03*
D21*
X-252000Y497000D03*
D35*
X-175500Y497000D03*
D23*
X-134000Y497000D03*
D22*
X-92500Y497000D03*
D35*
X-55500Y497000D03*
D27*
X-45000Y497000D03*
D38*
X-10500Y497000D03*
D18*
X9000Y497000D03*
D20*
X45500Y497000D03*
D38*
X49500Y497000D03*
D20*
X54500Y497000D03*
X57500Y497000D03*
D28*
X77000Y497000D03*
D38*
X91500Y497000D03*
D28*
X108000Y497000D03*
X201000Y497000D03*
D10*
X216500Y497000D03*
D20*
X-251500Y498000D03*
D31*
X-176000Y498000D03*
D25*
X-133500Y498000D03*
D11*
X-93000Y498000D03*
D34*
X-49500Y498000D03*
D10*
X-9500Y498000D03*
D11*
X10000Y498000D03*
D31*
X49000Y498000D03*
D12*
X55000Y498000D03*
D21*
X58000Y498000D03*
D38*
X78500Y498000D03*
D39*
X91000Y498000D03*
D28*
X111000Y498000D03*
X199000Y498000D03*
D10*
X215500Y498000D03*
D21*
X-251000Y499000D03*
D31*
X-175000Y499000D03*
X-134000Y499000D03*
D11*
X-93000Y499000D03*
D61*
X-49000Y499000D03*
D35*
X-8500Y499000D03*
D22*
X10500Y499000D03*
D21*
X46000Y499000D03*
D39*
X51000Y499000D03*
D12*
X56000Y499000D03*
D20*
X58500Y499000D03*
X74500Y499000D03*
D38*
X78500Y499000D03*
D39*
X91000Y499000D03*
D35*
X115500Y499000D03*
D12*
X121000Y499000D03*
D28*
X197000Y499000D03*
X214000Y499000D03*
D21*
X-251000Y500000D03*
D31*
X-175000Y500000D03*
D12*
X-138000Y500000D03*
D38*
X-134500Y500000D03*
D11*
X-94000Y500000D03*
D34*
X-49500Y500000D03*
D20*
X-11500Y500000D03*
D39*
X-6000Y500000D03*
D25*
X11500Y500000D03*
D21*
X46000Y500000D03*
D38*
X53500Y500000D03*
D20*
X58500Y500000D03*
D35*
X76500Y500000D03*
D20*
X88500Y500000D03*
D21*
X92000Y500000D03*
D25*
X119500Y500000D03*
D35*
X193500Y500000D03*
D28*
X213000Y500000D03*
D20*
X-250500Y501000D03*
D31*
X-175000Y501000D03*
D11*
X-94000Y501000D03*
D61*
X-50000Y501000D03*
D20*
X-11500Y501000D03*
D10*
X-4500Y501000D03*
D26*
X11500Y501000D03*
D10*
X44500Y501000D03*
X56500Y501000D03*
D28*
X76000Y501000D03*
X90000Y501000D03*
D35*
X122500Y501000D03*
D26*
X190500Y501000D03*
D35*
X211500Y501000D03*
D21*
X-250000Y502000D03*
D31*
X-174000Y502000D03*
D11*
X-94000Y502000D03*
D61*
X-50000Y502000D03*
D20*
X-11500Y502000D03*
D39*
X-3000Y502000D03*
D31*
X13000Y502000D03*
D12*
X38000Y502000D03*
D39*
X42000Y502000D03*
D10*
X57500Y502000D03*
X75500Y502000D03*
D20*
X87500Y502000D03*
D21*
X91000Y502000D03*
D28*
X126000Y502000D03*
D27*
X187000Y502000D03*
D31*
X210000Y502000D03*
D21*
X-250000Y503000D03*
D12*
X-178000Y503000D03*
D28*
X-173000Y503000D03*
D19*
X-94500Y503000D03*
D61*
X-50000Y503000D03*
D20*
X-11500Y503000D03*
D39*
X-1000Y503000D03*
D35*
X13500Y503000D03*
D12*
X34000Y503000D03*
D10*
X38500Y503000D03*
D12*
X43000Y503000D03*
D39*
X58000Y503000D03*
D28*
X89000Y503000D03*
D35*
X129500Y503000D03*
D25*
X183500Y503000D03*
D31*
X208000Y503000D03*
D21*
X-249000Y504000D03*
D12*
X-178000Y504000D03*
D38*
X-172500Y504000D03*
D18*
X-95000Y504000D03*
D12*
X-59000Y504000D03*
D18*
X-48000Y504000D03*
D20*
X-11500Y504000D03*
D10*
X500Y504000D03*
D28*
X14000Y504000D03*
D20*
X30500Y504000D03*
D39*
X35000Y504000D03*
D12*
X39000Y504000D03*
D38*
X59500Y504000D03*
D21*
X86000Y504000D03*
X90000Y504000D03*
D22*
X135500Y504000D03*
D23*
X179000Y504000D03*
D31*
X207000Y504000D03*
D20*
X-248500Y505000D03*
D12*
X-178000Y505000D03*
D39*
X-172000Y505000D03*
D18*
X-95000Y505000D03*
D12*
X-59000Y505000D03*
D19*
X-47500Y505000D03*
D20*
X-11500Y505000D03*
D39*
X2000Y505000D03*
D10*
X14500Y505000D03*
D39*
X31000Y505000D03*
D12*
X36000Y505000D03*
D38*
X60500Y505000D03*
X84500Y505000D03*
X89500Y505000D03*
D62*
X156500Y505000D03*
D31*
X206000Y505000D03*
D21*
X-248000Y506000D03*
D20*
X-177500Y506000D03*
D39*
X-172000Y506000D03*
D29*
X-96500Y506000D03*
D12*
X-59000Y506000D03*
D11*
X-47000Y506000D03*
D21*
X-12000Y506000D03*
D10*
X3500Y506000D03*
D39*
X15000Y506000D03*
D12*
X23000Y506000D03*
D39*
X27000Y506000D03*
D20*
X31500Y506000D03*
D39*
X61000Y506000D03*
D26*
X86500Y506000D03*
D73*
X158500Y506000D03*
D31*
X205000Y506000D03*
D38*
X-246500Y507000D03*
D20*
X-177500Y507000D03*
D38*
X-171500Y507000D03*
D29*
X-96500Y507000D03*
D12*
X-59000Y507000D03*
D23*
X-47000Y507000D03*
D21*
X-12000Y507000D03*
D39*
X5000Y507000D03*
D38*
X15500Y507000D03*
D10*
X22500Y507000D03*
D20*
X27500Y507000D03*
D39*
X62000Y507000D03*
D12*
X70000Y507000D03*
D25*
X84500Y507000D03*
D31*
X204000Y507000D03*
D35*
X-247500Y508000D03*
D20*
X-177500Y508000D03*
D21*
X-171000Y508000D03*
D20*
X-105500Y508000D03*
D19*
X-95500Y508000D03*
D20*
X-59500Y508000D03*
D23*
X-47000Y508000D03*
D21*
X-12000Y508000D03*
D10*
X6500Y508000D03*
D11*
X22000Y508000D03*
D10*
X63500Y508000D03*
D24*
X80500Y508000D03*
D26*
X202500Y508000D03*
D22*
X-248500Y509000D03*
D20*
X-177500Y509000D03*
D39*
X-171000Y509000D03*
D12*
X-106000Y509000D03*
D29*
X-95500Y509000D03*
D20*
X-59500Y509000D03*
D25*
X-46500Y509000D03*
D21*
X-12000Y509000D03*
D10*
X8500Y509000D03*
D11*
X22000Y509000D03*
D28*
X65000Y509000D03*
D40*
X83000Y509000D03*
D27*
X201000Y509000D03*
D18*
X-248000Y510000D03*
D12*
X-178000Y510000D03*
D38*
X-170500Y510000D03*
D20*
X-107500Y510000D03*
D18*
X-95000Y510000D03*
D27*
X-46000Y510000D03*
D21*
X-12000Y510000D03*
D39*
X10000Y510000D03*
D20*
X16500Y510000D03*
D27*
X26000Y510000D03*
D28*
X67000Y510000D03*
D35*
X81500Y510000D03*
D25*
X92500Y510000D03*
D23*
X199000Y510000D03*
D34*
X-246500Y511000D03*
D20*
X-178500Y511000D03*
D38*
X-170500Y511000D03*
D20*
X-107500Y511000D03*
D29*
X-95500Y511000D03*
D27*
X-46000Y511000D03*
D21*
X-12000Y511000D03*
D39*
X12000Y511000D03*
D31*
X29000Y511000D03*
D61*
X74000Y511000D03*
D23*
X95000Y511000D03*
D22*
X197500Y511000D03*
D32*
X-243500Y512000D03*
D20*
X-178500Y512000D03*
D38*
X-169500Y512000D03*
D20*
X-108500Y512000D03*
D19*
X-95500Y512000D03*
D26*
X-45500Y512000D03*
D20*
X-12500Y512000D03*
D10*
X13500Y512000D03*
D26*
X31500Y512000D03*
D11*
X74000Y512000D03*
D23*
X99000Y512000D03*
D22*
X195500Y512000D03*
D52*
X-237000Y513000D03*
D20*
X-178500Y513000D03*
D38*
X-169500Y513000D03*
X-108500Y513000D03*
D19*
X-95500Y513000D03*
D12*
X-60000Y513000D03*
D35*
X-45500Y513000D03*
D20*
X-12500Y513000D03*
D10*
X15500Y513000D03*
D26*
X33500Y513000D03*
D22*
X75500Y513000D03*
D12*
X85000Y513000D03*
D22*
X102500Y513000D03*
D19*
X193500Y513000D03*
D51*
X-233500Y514000D03*
D12*
X-179000Y514000D03*
D38*
X-168500Y514000D03*
D10*
X-108500Y514000D03*
D19*
X-95500Y514000D03*
D12*
X-60000Y514000D03*
D35*
X-45500Y514000D03*
D20*
X-12500Y514000D03*
D10*
X17500Y514000D03*
D26*
X35500Y514000D03*
D11*
X79000Y514000D03*
D12*
X88000Y514000D03*
X101000Y514000D03*
D23*
X109000Y514000D03*
D18*
X192000Y514000D03*
D62*
X-232500Y515000D03*
D20*
X-178500Y515000D03*
D21*
X-168000Y515000D03*
D20*
X-111500Y515000D03*
D34*
X-97500Y515000D03*
D12*
X-60000Y515000D03*
D28*
X-45000Y515000D03*
D20*
X-12500Y515000D03*
D28*
X19000Y515000D03*
D26*
X37500Y515000D03*
D31*
X87000Y515000D03*
D18*
X113000Y515000D03*
D61*
X190000Y515000D03*
D70*
X-232000Y516000D03*
D20*
X-179500Y516000D03*
D21*
X-168000Y516000D03*
X-112000Y516000D03*
D61*
X-97000Y516000D03*
D12*
X-60000Y516000D03*
D28*
X-44000Y516000D03*
D21*
X-13000Y516000D03*
D35*
X20500Y516000D03*
D26*
X40500Y516000D03*
D35*
X88500Y516000D03*
D12*
X95000Y516000D03*
D47*
X120000Y516000D03*
D12*
X178000Y516000D03*
D28*
X183000Y516000D03*
D26*
X192500Y516000D03*
D70*
X-231000Y517000D03*
D20*
X-179500Y517000D03*
D38*
X-166500Y517000D03*
D21*
X-113000Y517000D03*
D29*
X-96500Y517000D03*
D12*
X-60000Y517000D03*
D28*
X-44000Y517000D03*
D39*
X-14000Y517000D03*
D28*
X23000Y517000D03*
D26*
X42500Y517000D03*
D20*
X87500Y517000D03*
D28*
X93000Y517000D03*
D12*
X98000Y517000D03*
D25*
X121500Y517000D03*
D38*
X130500Y517000D03*
D20*
X173500Y517000D03*
D35*
X179500Y517000D03*
D26*
X191500Y517000D03*
D70*
X-231000Y518000D03*
D12*
X-180000Y518000D03*
D38*
X-166500Y518000D03*
X-114500Y518000D03*
D11*
X-96000Y518000D03*
D12*
X-60000Y518000D03*
D10*
X-43500Y518000D03*
D12*
X-21000Y518000D03*
D35*
X-15500Y518000D03*
D28*
X25000Y518000D03*
D31*
X45000Y518000D03*
X96000Y518000D03*
D12*
X102000Y518000D03*
X131000Y518000D03*
X169000Y518000D03*
D26*
X175500Y518000D03*
D12*
X182000Y518000D03*
D26*
X190500Y518000D03*
D62*
X-231500Y519000D03*
D20*
X-179500Y519000D03*
X-165500Y519000D03*
X-115500Y519000D03*
D22*
X-95500Y519000D03*
D12*
X-60000Y519000D03*
D39*
X-44000Y519000D03*
D12*
X-25000Y519000D03*
D28*
X-20000Y519000D03*
D38*
X-13500Y519000D03*
D10*
X27500Y519000D03*
D26*
X47500Y519000D03*
X100500Y519000D03*
D20*
X107500Y519000D03*
D21*
X163000Y519000D03*
D27*
X171000Y519000D03*
D26*
X188500Y519000D03*
D62*
X-231500Y520000D03*
D20*
X-180500Y520000D03*
D38*
X-164500Y520000D03*
D21*
X-117000Y520000D03*
D23*
X-95000Y520000D03*
D20*
X-60500Y520000D03*
D38*
X-43500Y520000D03*
D12*
X-29000Y520000D03*
D10*
X-24500Y520000D03*
X-17500Y520000D03*
D28*
X30000Y520000D03*
D26*
X50500Y520000D03*
D20*
X97500Y520000D03*
D27*
X105000Y520000D03*
D12*
X112000Y520000D03*
D20*
X114500Y520000D03*
D12*
X156000Y520000D03*
D20*
X158500Y520000D03*
D26*
X165500Y520000D03*
D27*
X187000Y520000D03*
D41*
X-241000Y521000D03*
D19*
X-215500Y521000D03*
D21*
X-181000Y521000D03*
X-164000Y521000D03*
D38*
X-118500Y521000D03*
D22*
X-94500Y521000D03*
D12*
X-61000Y521000D03*
D21*
X-43000Y521000D03*
D28*
X-28000Y521000D03*
D12*
X-23000Y521000D03*
D35*
X-17500Y521000D03*
D28*
X32000Y521000D03*
D26*
X52500Y521000D03*
D20*
X102500Y521000D03*
D52*
X124000Y521000D03*
D20*
X148500Y521000D03*
X151500Y521000D03*
D11*
X161000Y521000D03*
D26*
X186500Y521000D03*
D13*
X-242000Y522000D03*
D11*
X-216000Y522000D03*
D21*
X-181000Y522000D03*
X-163000Y522000D03*
D39*
X-120000Y522000D03*
D23*
X-94000Y522000D03*
D21*
X-43000Y522000D03*
D26*
X-31500Y522000D03*
D28*
X-15000Y522000D03*
D10*
X33500Y522000D03*
D26*
X55500Y522000D03*
D12*
X108000Y522000D03*
D63*
X135500Y522000D03*
D25*
X184500Y522000D03*
D47*
X-244000Y523000D03*
D22*
X-216500Y523000D03*
D20*
X-181500Y523000D03*
D21*
X-162000Y523000D03*
D12*
X-124000Y523000D03*
D21*
X-121000Y523000D03*
D25*
X-94500Y523000D03*
D20*
X-42500Y523000D03*
D39*
X-36000Y523000D03*
X-28000Y523000D03*
D28*
X-13000Y523000D03*
D10*
X36500Y523000D03*
D27*
X58000Y523000D03*
D12*
X113000Y523000D03*
D52*
X135000Y523000D03*
D12*
X156000Y523000D03*
D27*
X183000Y523000D03*
D18*
X-246000Y524000D03*
D22*
X-216500Y524000D03*
D12*
X-182000Y524000D03*
D38*
X-160500Y524000D03*
X-122500Y524000D03*
D27*
X-94000Y524000D03*
D38*
X-40500Y524000D03*
D28*
X-25000Y524000D03*
X-11000Y524000D03*
D10*
X38500Y524000D03*
D27*
X62000Y524000D03*
D20*
X127500Y524000D03*
D12*
X130000Y524000D03*
D38*
X145500Y524000D03*
D27*
X182000Y524000D03*
D23*
X-248000Y525000D03*
D27*
X-217000Y525000D03*
D20*
X-182500Y525000D03*
D38*
X-159500Y525000D03*
D39*
X-125000Y525000D03*
D27*
X-94000Y525000D03*
D39*
X-23000Y525000D03*
D28*
X-9000Y525000D03*
X41000Y525000D03*
D27*
X64000Y525000D03*
D25*
X179500Y525000D03*
D26*
X-249500Y526000D03*
D31*
X-217000Y526000D03*
D20*
X-183500Y526000D03*
D38*
X-157500Y526000D03*
D28*
X-125000Y526000D03*
D26*
X-93500Y526000D03*
D12*
X-61000Y526000D03*
D10*
X-19500Y526000D03*
D28*
X-7000Y526000D03*
X43000Y526000D03*
D26*
X67500Y526000D03*
D27*
X179000Y526000D03*
D10*
X-251500Y527000D03*
D39*
X-218000Y527000D03*
D20*
X-183500Y527000D03*
D39*
X-156000Y527000D03*
D12*
X-133000Y527000D03*
D25*
X-125500Y527000D03*
D26*
X-93500Y527000D03*
D12*
X-61000Y527000D03*
D28*
X-18000Y527000D03*
X-5000Y527000D03*
X45000Y527000D03*
D27*
X71000Y527000D03*
D23*
X177000Y527000D03*
D38*
X-252500Y528000D03*
D21*
X-184000Y528000D03*
D10*
X-153500Y528000D03*
D12*
X-137000Y528000D03*
D10*
X-132500Y528000D03*
D28*
X-122000Y528000D03*
D26*
X-93500Y528000D03*
D12*
X-61000Y528000D03*
D39*
X-16000Y528000D03*
D10*
X-2500Y528000D03*
D28*
X47000Y528000D03*
D27*
X76000Y528000D03*
D23*
X175000Y528000D03*
D21*
X-252000Y529000D03*
X-185000Y529000D03*
D24*
X-143500Y529000D03*
D35*
X-119500Y529000D03*
D31*
X-93000Y529000D03*
D12*
X-61000Y529000D03*
D38*
X-14500Y529000D03*
D10*
X-500Y529000D03*
D35*
X49500Y529000D03*
D25*
X78500Y529000D03*
D19*
X172500Y529000D03*
D21*
X-252000Y530000D03*
D20*
X-185500Y530000D03*
D29*
X-141500Y530000D03*
D28*
X-118000Y530000D03*
D31*
X-93000Y530000D03*
D12*
X-61000Y530000D03*
D20*
X-58500Y530000D03*
D39*
X-12000Y530000D03*
D28*
X2000Y530000D03*
X52000Y530000D03*
D12*
X57000Y530000D03*
D26*
X85500Y530000D03*
D29*
X169500Y530000D03*
D21*
X-252000Y531000D03*
X-186000Y531000D03*
D27*
X-137000Y531000D03*
D10*
X-116500Y531000D03*
D28*
X-93000Y531000D03*
D12*
X-61000Y531000D03*
D38*
X-57500Y531000D03*
D28*
X-10000Y531000D03*
D10*
X4500Y531000D03*
D31*
X55000Y531000D03*
D12*
X61000Y531000D03*
D25*
X88500Y531000D03*
D61*
X167000Y531000D03*
D21*
X-252000Y532000D03*
X-187000Y532000D03*
D26*
X-135500Y532000D03*
D28*
X-115000Y532000D03*
X-93000Y532000D03*
D12*
X-61000Y532000D03*
D10*
X-56500Y532000D03*
D39*
X-8000Y532000D03*
D28*
X7000Y532000D03*
D26*
X58500Y532000D03*
D12*
X65000Y532000D03*
D31*
X97000Y532000D03*
D24*
X164500Y532000D03*
D21*
X-252000Y533000D03*
D20*
X-187500Y533000D03*
D27*
X-134000Y533000D03*
D35*
X-113500Y533000D03*
D10*
X-92500Y533000D03*
D20*
X-61500Y533000D03*
D35*
X-55500Y533000D03*
D10*
X-6500Y533000D03*
D12*
X-2000Y533000D03*
D10*
X9500Y533000D03*
D26*
X62500Y533000D03*
D12*
X70000Y533000D03*
D35*
X154500Y533000D03*
D22*
X166500Y533000D03*
D21*
X-252000Y534000D03*
D20*
X-188500Y534000D03*
D27*
X-132000Y534000D03*
D28*
X-111000Y534000D03*
X-92000Y534000D03*
D21*
X-62000Y534000D03*
D35*
X-53500Y534000D03*
D10*
X-3500Y534000D03*
D39*
X13000Y534000D03*
D27*
X67000Y534000D03*
D12*
X74000Y534000D03*
D27*
X152000Y534000D03*
D23*
X166000Y534000D03*
D20*
X-251500Y535000D03*
D21*
X-189000Y535000D03*
D27*
X-131000Y535000D03*
D28*
X-110000Y535000D03*
D10*
X-91500Y535000D03*
D12*
X-67000Y535000D03*
D21*
X-63000Y535000D03*
D35*
X-51500Y535000D03*
D28*
X-1000Y535000D03*
D21*
X15000Y535000D03*
D25*
X70500Y535000D03*
D12*
X78000Y535000D03*
D26*
X149500Y535000D03*
D22*
X164500Y535000D03*
D20*
X-251500Y536000D03*
D21*
X-190000Y536000D03*
D27*
X-129000Y536000D03*
D35*
X-107500Y536000D03*
D39*
X-92000Y536000D03*
D12*
X-70000Y536000D03*
D39*
X-66000Y536000D03*
D35*
X-48500Y536000D03*
D10*
X2500Y536000D03*
D26*
X75500Y536000D03*
D12*
X82000Y536000D03*
X85000Y536000D03*
D26*
X146500Y536000D03*
D22*
X162500Y536000D03*
D20*
X-251500Y537000D03*
D21*
X-191000Y537000D03*
D27*
X-127000Y537000D03*
D28*
X-106000Y537000D03*
D38*
X-91500Y537000D03*
D26*
X-68500Y537000D03*
D12*
X-62000Y537000D03*
D35*
X-46500Y537000D03*
D28*
X5000Y537000D03*
D11*
X82000Y537000D03*
D12*
X92000Y537000D03*
D31*
X143000Y537000D03*
D22*
X160500Y537000D03*
D21*
X-251000Y538000D03*
X-192000Y538000D03*
D25*
X-125500Y538000D03*
D35*
X-104500Y538000D03*
D38*
X-91500Y538000D03*
D12*
X-77000Y538000D03*
D39*
X-73000Y538000D03*
X-64000Y538000D03*
D31*
X-44000Y538000D03*
D28*
X8000Y538000D03*
D30*
X96000Y538000D03*
D14*
X131000Y538000D03*
D23*
X159000Y538000D03*
D20*
X-250500Y539000D03*
D21*
X-193000Y539000D03*
D25*
X-123500Y539000D03*
D35*
X-102500Y539000D03*
D21*
X-91000Y539000D03*
D12*
X-81000Y539000D03*
D10*
X-76500Y539000D03*
D39*
X-62000Y539000D03*
D31*
X-41000Y539000D03*
D10*
X10500Y539000D03*
D12*
X15000Y539000D03*
D38*
X84500Y539000D03*
D77*
X115000Y539000D03*
D22*
X156500Y539000D03*
D20*
X-250500Y540000D03*
D21*
X-194000Y540000D03*
D23*
X-122000Y540000D03*
D28*
X-100000Y540000D03*
D21*
X-91000Y540000D03*
D28*
X-81000Y540000D03*
D39*
X-60000Y540000D03*
D35*
X-38500Y540000D03*
D10*
X13500Y540000D03*
D52*
X113000Y540000D03*
D12*
X136000Y540000D03*
D20*
X145500Y540000D03*
D11*
X155000Y540000D03*
D21*
X-250000Y541000D03*
D38*
X-195500Y541000D03*
D25*
X-120500Y541000D03*
D31*
X-98000Y541000D03*
D38*
X-90500Y541000D03*
D10*
X-83500Y541000D03*
D39*
X-57000Y541000D03*
D31*
X-36000Y541000D03*
D10*
X15500Y541000D03*
D29*
X152500Y541000D03*
D20*
X-249500Y542000D03*
D38*
X-196500Y542000D03*
D23*
X-119000Y542000D03*
D22*
X-91500Y542000D03*
D39*
X-56000Y542000D03*
D31*
X-33000Y542000D03*
D28*
X19000Y542000D03*
D29*
X149500Y542000D03*
D21*
X-249000Y543000D03*
D38*
X-197500Y543000D03*
D25*
X-116500Y543000D03*
D39*
X-94000Y543000D03*
D38*
X-88500Y543000D03*
D39*
X-54000Y543000D03*
D26*
X-30500Y543000D03*
D31*
X22000Y543000D03*
D29*
X147500Y543000D03*
D20*
X-248500Y544000D03*
D38*
X-199500Y544000D03*
D23*
X-115000Y544000D03*
D35*
X-90500Y544000D03*
D39*
X-52000Y544000D03*
D26*
X-27500Y544000D03*
D31*
X26000Y544000D03*
D12*
X32000Y544000D03*
D61*
X145000Y544000D03*
D21*
X-248000Y545000D03*
D39*
X-201000Y545000D03*
D23*
X-113000Y545000D03*
D31*
X-89000Y545000D03*
D38*
X-49500Y545000D03*
D12*
X-46000Y545000D03*
D31*
X-24000Y545000D03*
X30000Y545000D03*
D20*
X36500Y545000D03*
D35*
X135500Y545000D03*
D23*
X147000Y545000D03*
D21*
X-247000Y546000D03*
D39*
X-202000Y546000D03*
D22*
X-111500Y546000D03*
D35*
X-86500Y546000D03*
D39*
X-48000Y546000D03*
D12*
X-44000Y546000D03*
D31*
X-21000Y546000D03*
D26*
X34500Y546000D03*
D12*
X42000Y546000D03*
D26*
X131500Y546000D03*
D22*
X144500Y546000D03*
D21*
X-246000Y547000D03*
D39*
X-204000Y547000D03*
D23*
X-109000Y547000D03*
D31*
X-84000Y547000D03*
D39*
X-46000Y547000D03*
D12*
X-41000Y547000D03*
D31*
X-18000Y547000D03*
D20*
X34500Y547000D03*
D31*
X41000Y547000D03*
D26*
X126500Y547000D03*
D23*
X143000Y547000D03*
D38*
X-245500Y548000D03*
D39*
X-206000Y548000D03*
D22*
X-107500Y548000D03*
D31*
X-82000Y548000D03*
D35*
X-42500Y548000D03*
D26*
X-13500Y548000D03*
D25*
X44500Y548000D03*
D31*
X122000Y548000D03*
D23*
X141000Y548000D03*
D38*
X-244500Y549000D03*
D10*
X-208500Y549000D03*
D23*
X-105000Y549000D03*
D31*
X-79000Y549000D03*
D10*
X-41500Y549000D03*
D27*
X-11000Y549000D03*
X50000Y549000D03*
D12*
X58000Y549000D03*
D27*
X116000Y549000D03*
D12*
X124000Y549000D03*
D23*
X139000Y549000D03*
D39*
X-243000Y550000D03*
X-211000Y550000D03*
D22*
X-102500Y550000D03*
D26*
X-76500Y550000D03*
D12*
X-42000Y550000D03*
D39*
X-38000Y550000D03*
D31*
X-7000Y550000D03*
D27*
X55000Y550000D03*
D25*
X111500Y550000D03*
D23*
X136000Y550000D03*
D39*
X-241000Y551000D03*
D35*
X-213500Y551000D03*
D22*
X-100500Y551000D03*
D31*
X-74000Y551000D03*
D26*
X-34500Y551000D03*
D27*
X-2000Y551000D03*
D61*
X63000Y551000D03*
D29*
X103500Y551000D03*
D23*
X134000Y551000D03*
D35*
X-238500Y552000D03*
D26*
X-217500Y552000D03*
D22*
X-98500Y552000D03*
D31*
X-71000Y552000D03*
D12*
X-61000Y552000D03*
D35*
X-31500Y552000D03*
D25*
X2500Y552000D03*
D42*
X83000Y552000D03*
D12*
X122000Y552000D03*
D23*
X132000Y552000D03*
D24*
X-228500Y553000D03*
D22*
X-96500Y553000D03*
D31*
X-68000Y553000D03*
D20*
X-56500Y553000D03*
D12*
X-32000Y553000D03*
D28*
X-27000Y553000D03*
D26*
X8500Y553000D03*
D15*
X82500Y553000D03*
D12*
X103000Y553000D03*
D11*
X130000Y553000D03*
X-228000Y554000D03*
X-94000Y554000D03*
D31*
X-65000Y554000D03*
D12*
X-50000Y554000D03*
D35*
X-24500Y554000D03*
D25*
X13500Y554000D03*
D22*
X127500Y554000D03*
D19*
X-91500Y555000D03*
D26*
X-61500Y555000D03*
D20*
X-45500Y555000D03*
D35*
X-20500Y555000D03*
D27*
X20000Y555000D03*
D11*
X125000Y555000D03*
D19*
X-89500Y556000D03*
D26*
X-58500Y556000D03*
D28*
X-17000Y556000D03*
D10*
X25500Y556000D03*
D12*
X111000Y556000D03*
D19*
X121500Y556000D03*
X-86500Y557000D03*
D27*
X-55000Y557000D03*
D35*
X-13500Y557000D03*
D12*
X-7000Y557000D03*
X107000Y557000D03*
D34*
X118500Y557000D03*
D18*
X-84000Y558000D03*
D26*
X-51500Y558000D03*
D31*
X-10000Y558000D03*
D12*
X-2000Y558000D03*
D49*
X112500Y558000D03*
D29*
X-81500Y559000D03*
D27*
X-47000Y559000D03*
D26*
X-5500Y559000D03*
D12*
X4000Y559000D03*
X6000Y559000D03*
D13*
X109000Y559000D03*
D29*
X-78500Y560000D03*
D26*
X-42500Y560000D03*
D23*
X0Y560000D03*
D12*
X8000Y560000D03*
D20*
X90500Y560000D03*
D31*
X97000Y560000D03*
D18*
X111000Y560000D03*
D29*
X-75500Y561000D03*
D27*
X-38000Y561000D03*
D11*
X6000Y561000D03*
D21*
X18000Y561000D03*
D12*
X22000Y561000D03*
D26*
X91500Y561000D03*
D12*
X99000Y561000D03*
D19*
X108500Y561000D03*
D34*
X-72500Y562000D03*
D25*
X-32500Y562000D03*
D29*
X15500Y562000D03*
D20*
X26500Y562000D03*
D12*
X74000Y562000D03*
X76000Y562000D03*
D11*
X86000Y562000D03*
D12*
X95000Y562000D03*
D18*
X105000Y562000D03*
D34*
X-69500Y563000D03*
D25*
X-27500Y563000D03*
D29*
X21500Y563000D03*
D21*
X36000Y563000D03*
D20*
X53500Y563000D03*
D12*
X58000Y563000D03*
D61*
X78000Y563000D03*
D18*
X102000Y563000D03*
D12*
X112000Y563000D03*
X-77000Y564000D03*
D47*
X-65000Y564000D03*
D22*
X-20500Y564000D03*
D81*
X51500Y564000D03*
D29*
X98500Y564000D03*
D12*
X-74000Y565000D03*
D47*
X-62000Y565000D03*
D19*
X-12500Y565000D03*
D36*
X49500Y565000D03*
D12*
X75000Y565000D03*
D61*
X95000Y565000D03*
D24*
X-58500Y566000D03*
D49*
X1500Y566000D03*
D39*
X20000Y566000D03*
D26*
X42500Y566000D03*
D47*
X92000Y566000D03*
D13*
X-55000Y567000D03*
D61*
X14000Y567000D03*
D47*
X87000Y567000D03*
D14*
X-51000Y568000D03*
D49*
X83500Y568000D03*
D71*
X-45500Y569000D03*
D49*
X78500Y569000D03*
D53*
X-41000Y570000D03*
D71*
X72500Y570000D03*
D73*
X-34500Y571000D03*
D15*
X66500Y571000D03*
D36*
X-27500Y572000D03*
D33*
X59000Y572000D03*
D12*
X-44000Y573000D03*
D44*
X-15500Y573000D03*
D75*
X50500Y573000D03*
D12*
X74000Y573000D03*
D85*
X15000Y574000D03*
D12*
X69000Y574000D03*
X-33000Y575000D03*
D86*
X15000Y575000D03*
D12*
X63000Y575000D03*
X-27000Y576000D03*
D87*
X14500Y576000D03*
D12*
X-20000Y577000D03*
D48*
X14500Y577000D03*
D12*
X49000Y577000D03*
X-9000Y578000D03*
D33*
X15000Y578000D03*
D20*
X38500Y578000D03*
D88*
X385000Y42350D02*
X394000Y42350D01*
X395000Y95750D02*
X386000Y95750D01*
D89*
X390000Y36000D03*
D88*
X390002Y36044D01*
X390008Y36087D01*
X390017Y36129D01*
X390030Y36171D01*
X390047Y36211D01*
X390067Y36250D01*
X390090Y36287D01*
X390117Y36321D01*
X390146Y36354D01*
X390179Y36383D01*
X390213Y36410D01*
X390250Y36433D01*
X390289Y36453D01*
X390329Y36470D01*
X390371Y36483D01*
X390413Y36492D01*
X390456Y36498D01*
X390500Y36500D01*
X390544Y36498D01*
X390587Y36492D01*
X390629Y36483D01*
X390671Y36470D01*
X390711Y36453D01*
X390750Y36433D01*
X390787Y36410D01*
X390821Y36383D01*
X390854Y36354D01*
X390883Y36321D01*
X390910Y36287D01*
X390933Y36250D01*
X390953Y36211D01*
X390970Y36171D01*
X390983Y36129D01*
X390992Y36087D01*
X390998Y36044D01*
X391000Y36000D01*
D89*
X391000Y36000D03*
D88*
X390998Y35956D01*
X390992Y35913D01*
X390983Y35871D01*
X390970Y35829D01*
X390953Y35789D01*
X390933Y35750D01*
X390910Y35713D01*
X390883Y35679D01*
X390854Y35646D01*
X390821Y35617D01*
X390787Y35590D01*
X390750Y35567D01*
X390711Y35547D01*
X390671Y35530D01*
X390629Y35517D01*
X390587Y35508D01*
X390544Y35502D01*
X390500Y35500D01*
X390456Y35502D01*
X390413Y35508D01*
X390371Y35517D01*
X390329Y35530D01*
X390289Y35547D01*
X390250Y35567D01*
X390213Y35590D01*
X390179Y35617D01*
X390146Y35646D01*
X390117Y35679D01*
X390090Y35713D01*
X390067Y35750D01*
X390047Y35789D01*
X390030Y35829D01*
X390017Y35871D01*
X390008Y35913D01*
X390002Y35956D01*
X390000Y36000D01*
D90*
X414158Y55322D02*
X425842Y55322D01*
X414158Y54024D02*
X414158Y56620D01*
X425842Y56620D02*
X425842Y54024D01*
X414158Y63784D02*
X414158Y66380D01*
X414158Y63784D02*
X414160Y63685D01*
X414166Y63585D01*
X414175Y63486D01*
X414188Y63388D01*
X414205Y63290D01*
X414226Y63192D01*
X414251Y63096D01*
X414279Y63001D01*
X414311Y62907D01*
X414346Y62814D01*
X414385Y62722D01*
X414428Y62632D01*
X414473Y62544D01*
X414523Y62457D01*
X414575Y62373D01*
X414631Y62290D01*
X414689Y62210D01*
X414751Y62132D01*
X414816Y62057D01*
X414884Y61984D01*
X414954Y61914D01*
X415027Y61846D01*
X415102Y61781D01*
X415180Y61719D01*
X415260Y61661D01*
X415343Y61605D01*
X415427Y61553D01*
X415514Y61503D01*
X415602Y61458D01*
X415692Y61415D01*
X415784Y61376D01*
X415877Y61341D01*
X415971Y61309D01*
X416066Y61281D01*
X416162Y61256D01*
X416260Y61235D01*
X416358Y61218D01*
X416456Y61205D01*
X416555Y61196D01*
X416655Y61190D01*
X416754Y61188D01*
X416754Y61187D02*
X423246Y61187D01*
X423246Y61188D02*
X423345Y61190D01*
X423445Y61196D01*
X423544Y61205D01*
X423642Y61218D01*
X423740Y61235D01*
X423838Y61256D01*
X423934Y61281D01*
X424029Y61309D01*
X424123Y61341D01*
X424216Y61376D01*
X424308Y61415D01*
X424398Y61458D01*
X424486Y61503D01*
X424573Y61553D01*
X424657Y61605D01*
X424740Y61661D01*
X424820Y61719D01*
X424898Y61781D01*
X424973Y61846D01*
X425046Y61914D01*
X425116Y61984D01*
X425184Y62057D01*
X425249Y62132D01*
X425311Y62210D01*
X425369Y62290D01*
X425425Y62373D01*
X425477Y62457D01*
X425527Y62544D01*
X425572Y62632D01*
X425615Y62722D01*
X425654Y62814D01*
X425689Y62906D01*
X425721Y63001D01*
X425749Y63096D01*
X425774Y63192D01*
X425795Y63290D01*
X425812Y63388D01*
X425825Y63486D01*
X425834Y63585D01*
X425840Y63685D01*
X425842Y63784D01*
X425842Y66380D01*
X420649Y70745D02*
X420649Y74640D01*
X420647Y74739D01*
X420641Y74839D01*
X420632Y74938D01*
X420619Y75036D01*
X420602Y75134D01*
X420581Y75232D01*
X420556Y75328D01*
X420528Y75423D01*
X420496Y75517D01*
X420461Y75610D01*
X420422Y75702D01*
X420379Y75792D01*
X420334Y75880D01*
X420284Y75967D01*
X420232Y76051D01*
X420176Y76134D01*
X420118Y76214D01*
X420056Y76292D01*
X419991Y76367D01*
X419923Y76440D01*
X419853Y76510D01*
X419780Y76578D01*
X419705Y76643D01*
X419627Y76705D01*
X419547Y76763D01*
X419464Y76819D01*
X419380Y76871D01*
X419293Y76921D01*
X419205Y76966D01*
X419115Y77009D01*
X419023Y77048D01*
X418930Y77083D01*
X418836Y77115D01*
X418741Y77143D01*
X418645Y77168D01*
X418547Y77189D01*
X418449Y77206D01*
X418351Y77219D01*
X418252Y77228D01*
X418152Y77234D01*
X418053Y77236D01*
X417404Y77236D01*
X417404Y77237D02*
X417291Y77235D01*
X417178Y77229D01*
X417065Y77219D01*
X416952Y77205D01*
X416840Y77188D01*
X416729Y77166D01*
X416619Y77141D01*
X416509Y77111D01*
X416401Y77078D01*
X416294Y77041D01*
X416188Y77001D01*
X416084Y76956D01*
X415981Y76908D01*
X415880Y76857D01*
X415781Y76802D01*
X415684Y76744D01*
X415589Y76682D01*
X415496Y76617D01*
X415406Y76549D01*
X415318Y76478D01*
X415232Y76403D01*
X415149Y76326D01*
X415069Y76246D01*
X414992Y76163D01*
X414917Y76077D01*
X414846Y75989D01*
X414778Y75899D01*
X414713Y75806D01*
X414651Y75711D01*
X414593Y75614D01*
X414538Y75515D01*
X414487Y75414D01*
X414439Y75311D01*
X414394Y75207D01*
X414354Y75101D01*
X414317Y74994D01*
X414284Y74886D01*
X414254Y74776D01*
X414229Y74666D01*
X414207Y74555D01*
X414190Y74443D01*
X414176Y74330D01*
X414166Y74217D01*
X414160Y74104D01*
X414158Y73991D01*
X414160Y73878D01*
X414166Y73765D01*
X414176Y73652D01*
X414190Y73539D01*
X414207Y73427D01*
X414229Y73316D01*
X414254Y73206D01*
X414284Y73096D01*
X414317Y72988D01*
X414354Y72881D01*
X414394Y72775D01*
X414439Y72671D01*
X414487Y72568D01*
X414538Y72467D01*
X414593Y72368D01*
X414651Y72271D01*
X414713Y72176D01*
X414778Y72083D01*
X414846Y71993D01*
X414917Y71905D01*
X414992Y71819D01*
X415069Y71736D01*
X415149Y71656D01*
X415232Y71579D01*
X415318Y71504D01*
X415406Y71433D01*
X415496Y71365D01*
X415589Y71300D01*
X415684Y71238D01*
X415781Y71180D01*
X415880Y71125D01*
X415981Y71074D01*
X416084Y71026D01*
X416188Y70981D01*
X416294Y70941D01*
X416401Y70904D01*
X416509Y70871D01*
X416619Y70841D01*
X416729Y70816D01*
X416840Y70794D01*
X416952Y70777D01*
X417065Y70763D01*
X417178Y70753D01*
X417291Y70747D01*
X417404Y70745D01*
X420649Y70745D01*
X420792Y70747D01*
X420935Y70753D01*
X421078Y70763D01*
X421220Y70777D01*
X421362Y70794D01*
X421504Y70816D01*
X421645Y70841D01*
X421785Y70871D01*
X421924Y70904D01*
X422062Y70941D01*
X422199Y70982D01*
X422335Y71026D01*
X422470Y71075D01*
X422603Y71127D01*
X422735Y71182D01*
X422865Y71242D01*
X422994Y71305D01*
X423121Y71371D01*
X423245Y71441D01*
X423368Y71514D01*
X423489Y71591D01*
X423608Y71671D01*
X423724Y71754D01*
X423839Y71840D01*
X423950Y71929D01*
X424060Y72022D01*
X424166Y72117D01*
X424270Y72216D01*
X424371Y72317D01*
X424470Y72421D01*
X424565Y72527D01*
X424658Y72637D01*
X424747Y72748D01*
X424833Y72863D01*
X424916Y72979D01*
X424996Y73098D01*
X425073Y73219D01*
X425146Y73341D01*
X425216Y73466D01*
X425282Y73593D01*
X425345Y73722D01*
X425405Y73852D01*
X425460Y73984D01*
X425512Y74117D01*
X425561Y74252D01*
X425605Y74388D01*
X425646Y74525D01*
X425683Y74663D01*
X425716Y74802D01*
X425746Y74942D01*
X425771Y75083D01*
X425793Y75225D01*
X425810Y75367D01*
X425824Y75509D01*
X425834Y75652D01*
X425840Y75795D01*
X425842Y75938D01*
M02*
