G04 EAGLE Gerber RS-274X export*
G75*
%MOMM*%
%FSLAX34Y34*%
%LPD*%
%INSoldermask Bottom*%
%IPPOS*%
%AMOC8*
5,1,8,0,0,1.08239X$1,22.5*%
G01*
%ADD10C,3.203200*%
%ADD11R,1.470200X1.470200*%
%ADD12C,1.470200*%
%ADD13C,1.173200*%
%ADD14C,1.733200*%
%ADD15C,2.753200*%
%ADD16R,1.451200X1.451200*%
%ADD17C,1.451200*%
%ADD18C,1.727200*%
%ADD19C,2.003200*%
%ADD20C,4.253200*%


D10*
X-139000Y-362000D03*
X-391000Y175000D03*
X412000Y-217000D03*
X25000Y133000D03*
D11*
X-317790Y161300D03*
D12*
X-317790Y135900D03*
X-317790Y110500D03*
X-317790Y85100D03*
X-317790Y59700D03*
X-317790Y34300D03*
X-317790Y8900D03*
X-317790Y-16500D03*
X-317790Y-41900D03*
X-317790Y-67300D03*
X-317790Y-92700D03*
X-317790Y-118100D03*
X-317790Y-143500D03*
X-317790Y-168900D03*
X-317790Y-194300D03*
X-317790Y-219700D03*
X-317790Y-245100D03*
X-317790Y-270500D03*
X-317790Y-295900D03*
X-317790Y-321300D03*
X-162210Y-321300D03*
X-162210Y-295900D03*
X-162210Y-270500D03*
X-162210Y-245100D03*
X-162210Y-219700D03*
X-162210Y-194300D03*
X-162210Y-168900D03*
X-162210Y-143500D03*
X-162210Y-118100D03*
X-162210Y-92700D03*
X-162210Y-67300D03*
X-162210Y-41900D03*
X-162210Y-16500D03*
X-162210Y8900D03*
X-162210Y34300D03*
X-162210Y59700D03*
X-162210Y85100D03*
X-162210Y110500D03*
X-162210Y135900D03*
X-162210Y161300D03*
D13*
X0Y-99050D03*
X0Y-60950D03*
D11*
X162210Y161300D03*
D12*
X162210Y135900D03*
X162210Y110500D03*
X162210Y85100D03*
X162210Y59700D03*
X162210Y34300D03*
X162210Y8900D03*
X162210Y-16500D03*
X162210Y-41900D03*
X162210Y-67300D03*
X162210Y-92700D03*
X162210Y-118100D03*
X162210Y-143500D03*
X162210Y-168900D03*
X162210Y-194300D03*
X162210Y-219700D03*
X162210Y-245100D03*
X162210Y-270500D03*
X162210Y-295900D03*
X162210Y-321300D03*
X317790Y-321300D03*
X317790Y-295900D03*
X317790Y-270500D03*
X317790Y-245100D03*
X317790Y-219700D03*
X317790Y-194300D03*
X317790Y-168900D03*
X317790Y-143500D03*
X317790Y-118100D03*
X317790Y-92700D03*
X317790Y-67300D03*
X317790Y-41900D03*
X317790Y-16500D03*
X317790Y8900D03*
X317790Y34300D03*
X317790Y59700D03*
X317790Y85100D03*
X317790Y110500D03*
X317790Y135900D03*
X317790Y161300D03*
D14*
X124400Y-300000D03*
X99000Y-300000D03*
X73600Y-300000D03*
X405400Y-300000D03*
X380000Y-300000D03*
X354600Y-300000D03*
D15*
X0Y-274000D03*
X0Y-324000D03*
X27000Y-299000D03*
D16*
X390000Y50000D03*
D17*
X390000Y62700D03*
X390000Y75400D03*
X390000Y88100D03*
D18*
X-368380Y-194800D02*
X-383620Y-194800D01*
X-383620Y-220200D02*
X-368380Y-220200D01*
X-368380Y-245600D02*
X-383620Y-245600D01*
X-383620Y-271000D02*
X-368380Y-271000D01*
X-368380Y-296400D02*
X-383620Y-296400D01*
X-383620Y-321800D02*
X-368380Y-321800D01*
X-368380Y-347200D02*
X-383620Y-347200D01*
D16*
X390000Y141000D03*
D17*
X390000Y153700D03*
X390000Y166400D03*
X390000Y179100D03*
D19*
X-276600Y624580D03*
X-251200Y624580D03*
X-225800Y624580D03*
X-200400Y624580D03*
X-175000Y624580D03*
X-149600Y624580D03*
X-124200Y624580D03*
X-98800Y624580D03*
X-73400Y624580D03*
X-48000Y624580D03*
X-22600Y624580D03*
X2800Y624580D03*
X28200Y624580D03*
X53600Y624580D03*
X79000Y624580D03*
X104400Y624580D03*
D20*
X-384790Y224500D03*
X408500Y224500D03*
X408500Y614500D03*
X-384790Y614500D03*
D18*
X72380Y110300D02*
X87620Y110300D01*
X87620Y135700D02*
X72380Y135700D01*
M02*
