G04 EAGLE Gerber RS-274X export*
G75*
%MOMM*%
%FSLAX34Y34*%
%LPD*%
%INSolderpaste Top*%
%IPPOS*%
%AMOC8*
5,1,8,0,0,1.08239X$1,22.5*%
G01*
%ADD10R,2.790000X0.740000*%
%ADD11R,1.000000X1.550000*%
%ADD12R,1.100000X1.000000*%
%ADD13R,0.558800X1.981200*%
%ADD14R,1.854200X3.403600*%
%ADD15R,1.000000X1.100000*%
%ADD16R,1.200000X1.200000*%
%ADD17R,1.600000X1.500000*%
%ADD18R,1.800000X4.200000*%


D10*
X20350Y-105400D03*
X-20350Y-105400D03*
X20350Y-92700D03*
X-20350Y-92700D03*
X20350Y-80000D03*
X-20350Y-80000D03*
X20350Y-67300D03*
X-20350Y-67300D03*
X20350Y-54600D03*
X-20350Y-54600D03*
D11*
X-364000Y-41750D03*
X-396000Y-41750D03*
X-396000Y-94250D03*
X-364000Y-94250D03*
D12*
X-380000Y-18500D03*
X-380000Y-1500D03*
X-140000Y-268500D03*
X-140000Y-251500D03*
X-140000Y-298500D03*
X-140000Y-281500D03*
D11*
X389000Y-67750D03*
X357000Y-67750D03*
X357000Y-120250D03*
X389000Y-120250D03*
D12*
X371000Y-40500D03*
X371000Y-23500D03*
D13*
X109050Y-76362D03*
X96350Y-76362D03*
X83650Y-76362D03*
X70950Y-76362D03*
X70950Y-125638D03*
X83650Y-125638D03*
X96350Y-125638D03*
X109050Y-125638D03*
D14*
X44822Y-230000D03*
X99178Y-230000D03*
D12*
X44000Y-196500D03*
X44000Y-179500D03*
X99000Y-196500D03*
X99000Y-179500D03*
X99000Y-166500D03*
X99000Y-149500D03*
X21000Y-196500D03*
X21000Y-179500D03*
D15*
X-137000Y-92500D03*
X-137000Y-109500D03*
X-138000Y-42500D03*
X-138000Y-59500D03*
X350000Y-40500D03*
X350000Y-23500D03*
X-338000Y-66500D03*
X-338000Y-83500D03*
D16*
X-380000Y94000D03*
D17*
X-370000Y126500D03*
D16*
X-360000Y94000D03*
D15*
X137000Y-66500D03*
X137000Y-83500D03*
X340000Y-151500D03*
X340000Y-168500D03*
D18*
X-40000Y-224500D03*
X-40000Y-155500D03*
M02*
